G04*
G04 #@! TF.GenerationSoftware,Altium Limited,Altium Designer,26.9.1 (10)*
G04*
G04 Layer_Color=32896*
G04 Board_Origin=34100000|22900000*
%FSLAX44Y44*%
%MOMM*%
G71*
G04*
G04 #@! TF.SameCoordinates,422ACB3C-2A18-4883-AF2F-CBEBC1C0E268*
G04*
G04*
G04 #@! TF.FilePolarity,Positive*
G04*
G01*
G75*
%ADD10C,0.2500*%
%ADD11C,0.6000*%
%ADD12C,0.2000*%
%ADD13C,0.1270*%
%ADD14C,0.1500*%
%ADD40C,0.2540*%
D10*
X197350Y409150D02*
G03*
X197350Y409150I-1250J0D01*
G01*
X78240Y343190D02*
G03*
X78240Y343190I-1250J0D01*
G01*
X20820Y409150D02*
G03*
X20820Y409150I-1250J0D01*
G01*
D11*
X126220Y173310D02*
G03*
X121851Y175979I-3000J0D01*
G01*
X120276Y173888D02*
G03*
X126220Y173310I2944J-578D01*
G01*
D12*
X183500Y17150D02*
Y401950D01*
X210200D01*
X183500Y17150D02*
X210200D01*
Y401950D01*
X88030Y220250D02*
Y224250D01*
X138030Y220250D02*
Y224250D01*
X85220Y78310D02*
Y119356D01*
Y127024D02*
Y183310D01*
X133220Y78310D02*
Y137835D01*
Y146645D02*
Y183310D01*
X85220D02*
X112920D01*
X118220D02*
X133220D01*
X85220Y78310D02*
X96308D01*
X104352D02*
X133220D01*
X76990Y326690D02*
X143990D01*
X76990Y300690D02*
X120460D01*
X128460D02*
X143990D01*
X76990D02*
Y326690D01*
X143990Y300690D02*
Y326690D01*
X6970Y17150D02*
X33670D01*
X6970D02*
Y401950D01*
X33670D01*
Y17150D02*
Y325028D01*
Y329387D02*
Y401950D01*
X48479Y267859D02*
X81061D01*
X48479Y290941D02*
X81061D01*
D13*
X107605Y35795D02*
X110835D01*
X107605Y50565D02*
X110835D01*
X150095Y322235D02*
Y325465D01*
X164865Y322235D02*
Y325465D01*
Y287945D02*
Y291175D01*
X150095Y287945D02*
Y291175D01*
D14*
X169490Y159290D02*
Y163290D01*
X160560Y50800D02*
X164560D01*
D40*
X106300Y206250D02*
X119760D01*
X115736Y238250D02*
X119760D01*
M02*
