G04*
G04 #@! TF.GenerationSoftware,Altium Limited,Altium Designer,26.9.1 (10)*
G04*
G04 Layer_Color=2752767*
G04 Board_Origin=34100000|22900000*
%FSLAX44Y44*%
%MOMM*%
G71*
G04*
G04 #@! TF.SameCoordinates,422ACB3C-2A18-4883-AF2F-CBEBC1C0E268*
G04*
G04*
G04 #@! TF.FilePolarity,Positive*
G04*
G01*
G75*
%ADD13C,0.1270*%
%ADD60C,0.1693*%
D13*
X154940Y74930D02*
X149860Y85090D01*
X160020D01*
X154940Y74930D01*
X168910Y174126D02*
X163830Y184286D01*
X173990D01*
X168910Y174126D01*
X50800Y20320D02*
X45720Y30480D01*
X55880D01*
X50800Y20320D01*
X77470Y232067D02*
X72390Y242227D01*
X82550D01*
X77470Y232067D01*
X124460Y298610D02*
X119380Y308770D01*
X129540D01*
X124460Y298610D01*
X138430Y285750D02*
Y295910D01*
X148590D01*
Y285750D01*
X138430D01*
X85090Y62230D02*
X80010Y72390D01*
X90170D01*
X85090Y62230D01*
X60960D02*
X55880Y72390D01*
X66040D01*
X60960Y62230D01*
X99121Y76261D02*
X94041Y86421D01*
X104201D01*
X99121Y76261D01*
X158750Y203041D02*
X153670Y213202D01*
X163830D01*
X158750Y203041D01*
X170222Y213402D02*
X165142Y223562D01*
X175302D01*
X170222Y213402D01*
X57150Y393700D02*
X52070Y403860D01*
X62230D01*
X57150Y393700D01*
X49530Y326390D02*
Y336550D01*
X59690D01*
Y326390D01*
X49530D01*
X38170Y322128D02*
X33090Y332288D01*
X43250D01*
X38170Y322128D01*
X169955Y405355D02*
X164875Y415515D01*
X175035D01*
X169955Y405355D01*
X162910Y355600D02*
X157830Y365760D01*
X167990D01*
X162910Y355600D01*
X50800Y354330D02*
Y364490D01*
X60960D01*
Y354330D01*
X50800D01*
X53340Y115570D02*
Y125730D01*
X63500D01*
Y115570D01*
X53340D01*
X81280Y118110D02*
Y128270D01*
X91440D01*
Y118110D01*
X81280D01*
X95250Y170180D02*
X90170Y180340D01*
X100330D01*
X95250Y170180D01*
X144780Y176530D02*
X139700Y186690D01*
X149860D01*
X144780Y176530D01*
X102870Y254000D02*
X97790Y264160D01*
X107950D01*
X102870Y254000D01*
X110490Y233680D02*
X105410Y243840D01*
X115570D01*
X110490Y233680D01*
X43180Y397510D02*
X38100Y407670D01*
X48260D01*
X43180Y397510D01*
X39370Y13970D02*
X34290Y24130D01*
X44450D01*
X39370Y13970D01*
X68580Y69850D02*
X63500Y80010D01*
X73660D01*
X68580Y69850D01*
X116840Y66040D02*
Y76200D01*
X127000D01*
Y66040D01*
X116840D01*
X109220D02*
X104140Y76200D01*
X114300D01*
X109220Y66040D01*
X138430Y69850D02*
Y80010D01*
X148590D01*
Y69850D01*
X138430D01*
X161850Y102236D02*
X156770Y112396D01*
X166931D01*
X161850Y102236D01*
X130854Y137160D02*
X125774Y147320D01*
X135934D01*
X130854Y137160D01*
X97790Y157480D02*
X92710Y167640D01*
X102870D01*
X97790Y157480D01*
X118110D02*
X113030Y167640D01*
X123190D01*
X118110Y157480D01*
X115570Y173990D02*
X110490Y184150D01*
X120650D01*
X115570Y173990D01*
X120650Y214550D02*
X115570Y224710D01*
X125730D01*
X120650Y214550D01*
X132080Y242570D02*
X127000Y252730D01*
X137160D01*
X132080Y242570D01*
X110490Y253365D02*
Y263525D01*
X120650D01*
Y253365D01*
X110490D01*
X82550Y358140D02*
Y368300D01*
X92710D01*
Y358140D01*
X82550D01*
X170180Y293370D02*
Y303530D01*
X180340D01*
Y293370D01*
X170180D01*
X144730Y330200D02*
X139650Y340360D01*
X149810D01*
X144730Y330200D01*
X170180Y340360D02*
X165100Y350520D01*
X175260D01*
X170180Y340360D01*
X161290Y391160D02*
X156210Y401320D01*
X166370D01*
X161290Y391160D01*
X184150Y405130D02*
X179070Y415290D01*
X189230D01*
X184150Y405130D01*
D60*
X87630Y378460D02*
G03*
X87630Y378460I-5080J0D01*
G01*
X113030D02*
G03*
X113030Y378460I-5080J0D01*
G01*
X138430D02*
G03*
X138430Y378460I-5080J0D01*
G01*
X113030Y403860D02*
G03*
X113030Y403860I-5080J0D01*
G01*
X138430D02*
G03*
X138430Y403860I-5080J0D01*
G01*
X87630D02*
G03*
X87630Y403860I-5080J0D01*
G01*
X25400Y311150D02*
G03*
X25400Y311150I-5080J0D01*
G01*
X201930Y387350D02*
G03*
X201930Y387350I-5080J0D01*
G01*
Y361950D02*
G03*
X201930Y361950I-5080J0D01*
G01*
Y336550D02*
G03*
X201930Y336550I-5080J0D01*
G01*
Y311150D02*
G03*
X201930Y311150I-5080J0D01*
G01*
Y285750D02*
G03*
X201930Y285750I-5080J0D01*
G01*
Y260350D02*
G03*
X201930Y260350I-5080J0D01*
G01*
Y234950D02*
G03*
X201930Y234950I-5080J0D01*
G01*
Y209550D02*
G03*
X201930Y209550I-5080J0D01*
G01*
Y184150D02*
G03*
X201930Y184150I-5080J0D01*
G01*
Y158750D02*
G03*
X201930Y158750I-5080J0D01*
G01*
Y133350D02*
G03*
X201930Y133350I-5080J0D01*
G01*
Y107950D02*
G03*
X201930Y107950I-5080J0D01*
G01*
Y82550D02*
G03*
X201930Y82550I-5080J0D01*
G01*
Y57150D02*
G03*
X201930Y57150I-5080J0D01*
G01*
Y31750D02*
G03*
X201930Y31750I-5080J0D01*
G01*
X25400Y387350D02*
G03*
X25400Y387350I-5080J0D01*
G01*
Y361950D02*
G03*
X25400Y361950I-5080J0D01*
G01*
Y336550D02*
G03*
X25400Y336550I-5080J0D01*
G01*
Y285750D02*
G03*
X25400Y285750I-5080J0D01*
G01*
Y260350D02*
G03*
X25400Y260350I-5080J0D01*
G01*
Y234950D02*
G03*
X25400Y234950I-5080J0D01*
G01*
Y209550D02*
G03*
X25400Y209550I-5080J0D01*
G01*
Y184150D02*
G03*
X25400Y184150I-5080J0D01*
G01*
Y158750D02*
G03*
X25400Y158750I-5080J0D01*
G01*
Y133350D02*
G03*
X25400Y133350I-5080J0D01*
G01*
Y107950D02*
G03*
X25400Y107950I-5080J0D01*
G01*
Y82550D02*
G03*
X25400Y82550I-5080J0D01*
G01*
Y57150D02*
G03*
X25400Y57150I-5080J0D01*
G01*
Y31750D02*
G03*
X25400Y31750I-5080J0D01*
G01*
M02*
