G04*
G04 #@! TF.GenerationSoftware,Altium Limited,Altium Designer,26.9.1 (10)*
G04*
G04 Layer_Color=0*
G04 Board_Origin=34100000|22900000*
%FSLAX44Y44*%
%MOMM*%
G71*
G04*
G04 #@! TF.SameCoordinates,422ACB3C-2A18-4883-AF2F-CBEBC1C0E268*
G04*
G04*
G04 #@! TF.FilePolarity,Positive*
G04*
G01*
G75*
%ADD12C,0.2000*%
%ADD58C,0.1000*%
%ADD59C,0.0500*%
D12*
X211200Y16150D02*
Y402950D01*
X182500D02*
X211200D01*
X182500Y16150D02*
Y402950D01*
Y16150D02*
X211200D01*
X34670D02*
Y402950D01*
X5970D02*
X34670D01*
X5970Y16150D02*
Y402950D01*
Y16150D02*
X34670D01*
X43479Y291941D02*
X86061D01*
X43479Y266859D02*
Y291941D01*
Y266859D02*
X86061D01*
Y291941D01*
D58*
X113030Y217250D02*
Y227250D01*
X108030Y222250D02*
X118030D01*
X104220Y130810D02*
X114220D01*
X109220Y125810D02*
Y135810D01*
X105490Y313690D02*
X115490D01*
X110490Y308690D02*
Y318690D01*
X56210Y316230D02*
X65710D01*
X60960Y311480D02*
Y320980D01*
X52400Y251460D02*
X61900D01*
X57150Y246710D02*
Y256210D01*
D59*
X143030Y203250D02*
Y241250D01*
X83030D02*
X143030D01*
X83030Y203250D02*
Y241250D01*
Y203250D02*
X143030D01*
X160720Y73310D02*
Y188310D01*
X57720Y73310D02*
Y188310D01*
X160720D01*
X57720Y73310D02*
X160720D01*
X148990Y265690D02*
Y361690D01*
X71990Y265690D02*
Y361690D01*
Y265690D02*
X148990D01*
X71990Y361690D02*
X148990D01*
X92220Y33930D02*
X126220D01*
X92220Y52430D02*
X126220D01*
X92220Y33930D02*
Y52430D01*
X126220Y33930D02*
Y52430D01*
X166730Y306850D02*
Y340850D01*
X148230Y306850D02*
Y340850D01*
Y306850D02*
X166730D01*
X148230Y340850D02*
X166730D01*
Y272560D02*
Y306560D01*
X148230Y272560D02*
Y306560D01*
Y272560D02*
X166730D01*
X148230Y306560D02*
X166730D01*
X77960Y305730D02*
Y326730D01*
X43960Y305730D02*
Y326730D01*
X77960D01*
X43960Y305730D02*
X77960D01*
X160490Y165790D02*
X178490D01*
X160490Y156790D02*
X178490D01*
Y165790D01*
X160490Y156790D02*
Y165790D01*
X166740Y161290D02*
X172240D01*
X169490Y158540D02*
Y164040D01*
X74150Y240960D02*
Y261960D01*
X40150Y240960D02*
Y261960D01*
X74150D01*
X40150Y240960D02*
X74150D01*
X167060Y41800D02*
Y59800D01*
X158060Y41800D02*
Y59800D01*
Y41800D02*
X167060D01*
X158060Y59800D02*
X167060D01*
X162560Y48050D02*
Y53550D01*
X159810Y50800D02*
X165310D01*
M02*
