G04*
G04 #@! TF.GenerationSoftware,Altium Limited,Altium Designer,26.9.1 (10)*
G04*
G04 Layer_Color=16711935*
G04 Board_Origin=34100000|22900000*
%FSLAX44Y44*%
%MOMM*%
G71*
G04*
G04 #@! TF.SameCoordinates,422ACB3C-2A18-4883-AF2F-CBEBC1C0E268*
G04*
G04*
G04 #@! TF.FilePolarity,Positive*
G04*
G01*
G75*
%ADD12C,0.2000*%
%ADD58C,0.1000*%
G36*
X115943Y40592D02*
X116002D01*
X116126Y40575D01*
X116276Y40542D01*
X116435Y40508D01*
X116601Y40450D01*
X116768Y40375D01*
X116776D01*
X116785Y40367D01*
X116810Y40350D01*
X116843Y40333D01*
X116918Y40283D01*
X117018Y40217D01*
X117126Y40125D01*
X117243Y40017D01*
X117351Y39900D01*
X117443Y39758D01*
Y39750D01*
X117451Y39742D01*
X117484Y39692D01*
X117518Y39609D01*
X117568Y39509D01*
X117609Y39383D01*
X117651Y39242D01*
X117676Y39092D01*
X117684Y38934D01*
Y38925D01*
Y38917D01*
Y38867D01*
X117676Y38784D01*
X117659Y38684D01*
X117626Y38567D01*
X117593Y38442D01*
X117534Y38309D01*
X117459Y38175D01*
X117451Y38159D01*
X117418Y38117D01*
X117368Y38059D01*
X117293Y37984D01*
X117201Y37892D01*
X117085Y37801D01*
X116951Y37717D01*
X116801Y37634D01*
X116810D01*
X116826Y37626D01*
X116860Y37617D01*
X116893Y37609D01*
X116943Y37592D01*
X117001Y37567D01*
X117126Y37517D01*
X117268Y37442D01*
X117409Y37342D01*
X117559Y37226D01*
X117684Y37084D01*
Y37076D01*
X117701Y37067D01*
X117718Y37042D01*
X117734Y37009D01*
X117759Y36967D01*
X117784Y36926D01*
X117843Y36801D01*
X117901Y36651D01*
X117951Y36476D01*
X117984Y36284D01*
X118001Y36059D01*
Y36051D01*
Y36026D01*
Y35976D01*
X117993Y35918D01*
X117984Y35843D01*
X117968Y35759D01*
X117951Y35668D01*
X117926Y35568D01*
X117893Y35459D01*
X117851Y35343D01*
X117801Y35226D01*
X117743Y35101D01*
X117668Y34985D01*
X117584Y34860D01*
X117493Y34743D01*
X117384Y34635D01*
X117376Y34626D01*
X117360Y34610D01*
X117326Y34585D01*
X117276Y34543D01*
X117218Y34501D01*
X117143Y34451D01*
X117059Y34402D01*
X116968Y34351D01*
X116860Y34293D01*
X116743Y34243D01*
X116618Y34193D01*
X116476Y34151D01*
X116335Y34110D01*
X116176Y34085D01*
X116018Y34068D01*
X115843Y34060D01*
X115760D01*
X115702Y34068D01*
X115635Y34076D01*
X115552Y34085D01*
X115452Y34102D01*
X115352Y34127D01*
X115135Y34185D01*
X115018Y34227D01*
X114902Y34268D01*
X114777Y34327D01*
X114660Y34393D01*
X114552Y34468D01*
X114444Y34560D01*
X114435Y34568D01*
X114418Y34585D01*
X114394Y34610D01*
X114352Y34651D01*
X114310Y34701D01*
X114260Y34760D01*
X114210Y34835D01*
X114152Y34910D01*
X114102Y35001D01*
X114044Y35101D01*
X113994Y35210D01*
X113944Y35326D01*
X113894Y35451D01*
X113860Y35576D01*
X113827Y35718D01*
X113810Y35868D01*
X114593Y35976D01*
Y35968D01*
X114602Y35943D01*
X114610Y35909D01*
X114619Y35868D01*
X114635Y35809D01*
X114652Y35751D01*
X114702Y35601D01*
X114760Y35443D01*
X114843Y35285D01*
X114935Y35126D01*
X114985Y35060D01*
X115043Y35001D01*
X115060Y34993D01*
X115102Y34960D01*
X115168Y34910D01*
X115268Y34860D01*
X115385Y34801D01*
X115518Y34760D01*
X115677Y34726D01*
X115843Y34710D01*
X115901D01*
X115935Y34718D01*
X115985D01*
X116043Y34726D01*
X116168Y34760D01*
X116318Y34801D01*
X116476Y34868D01*
X116635Y34968D01*
X116710Y35026D01*
X116785Y35093D01*
X116793Y35101D01*
X116801Y35110D01*
X116818Y35135D01*
X116843Y35160D01*
X116910Y35243D01*
X116976Y35359D01*
X117043Y35493D01*
X117109Y35659D01*
X117151Y35843D01*
X117168Y35943D01*
Y36043D01*
Y36051D01*
Y36068D01*
Y36093D01*
X117160Y36134D01*
Y36176D01*
X117151Y36234D01*
X117126Y36359D01*
X117085Y36501D01*
X117018Y36651D01*
X116926Y36793D01*
X116876Y36867D01*
X116810Y36934D01*
X116793Y36951D01*
X116743Y36992D01*
X116668Y37042D01*
X116568Y37109D01*
X116435Y37176D01*
X116285Y37226D01*
X116110Y37267D01*
X115910Y37284D01*
X115818D01*
X115760Y37276D01*
X115677Y37267D01*
X115577Y37251D01*
X115468Y37226D01*
X115352Y37201D01*
X115443Y37892D01*
X115460D01*
X115485Y37884D01*
X115527Y37876D01*
X115618D01*
X115652Y37884D01*
X115751Y37892D01*
X115868Y37909D01*
X116010Y37942D01*
X116160Y37984D01*
X116318Y38050D01*
X116468Y38134D01*
X116476D01*
X116485Y38150D01*
X116535Y38184D01*
X116601Y38251D01*
X116676Y38334D01*
X116751Y38450D01*
X116810Y38592D01*
X116860Y38759D01*
X116868Y38850D01*
X116876Y38950D01*
Y38959D01*
Y38967D01*
X116868Y39025D01*
X116860Y39100D01*
X116843Y39200D01*
X116801Y39309D01*
X116751Y39425D01*
X116676Y39550D01*
X116576Y39658D01*
X116560Y39675D01*
X116526Y39708D01*
X116460Y39750D01*
X116376Y39808D01*
X116268Y39858D01*
X116135Y39908D01*
X115993Y39942D01*
X115827Y39950D01*
X115785D01*
X115751Y39942D01*
X115660Y39933D01*
X115552Y39917D01*
X115435Y39875D01*
X115302Y39825D01*
X115177Y39758D01*
X115052Y39658D01*
X115035Y39642D01*
X115002Y39609D01*
X114952Y39542D01*
X114893Y39442D01*
X114827Y39325D01*
X114760Y39175D01*
X114710Y39000D01*
X114669Y38800D01*
X113885Y38942D01*
Y38950D01*
X113894Y38975D01*
X113902Y39017D01*
X113919Y39075D01*
X113935Y39134D01*
X113960Y39217D01*
X113985Y39300D01*
X114019Y39392D01*
X114110Y39583D01*
X114219Y39783D01*
X114360Y39983D01*
X114444Y40075D01*
X114535Y40158D01*
X114544Y40167D01*
X114560Y40175D01*
X114585Y40200D01*
X114627Y40225D01*
X114677Y40258D01*
X114735Y40300D01*
X114810Y40342D01*
X114885Y40383D01*
X114977Y40417D01*
X115068Y40458D01*
X115285Y40533D01*
X115535Y40583D01*
X115668Y40592D01*
X115810Y40600D01*
X115901D01*
X115943Y40592D01*
D02*
G37*
G36*
X112744Y36209D02*
Y36201D01*
Y36176D01*
Y36134D01*
Y36076D01*
X112736Y36009D01*
Y35934D01*
X112727Y35843D01*
X112719Y35751D01*
X112694Y35551D01*
X112661Y35343D01*
X112611Y35143D01*
X112577Y35043D01*
X112544Y34960D01*
Y34951D01*
X112536Y34943D01*
X112527Y34918D01*
X112511Y34885D01*
X112461Y34810D01*
X112394Y34710D01*
X112311Y34601D01*
X112202Y34493D01*
X112078Y34385D01*
X111927Y34285D01*
X111919D01*
X111911Y34276D01*
X111886Y34268D01*
X111853Y34251D01*
X111769Y34210D01*
X111644Y34176D01*
X111503Y34135D01*
X111336Y34093D01*
X111144Y34068D01*
X110936Y34060D01*
X110853D01*
X110794Y34068D01*
X110728Y34076D01*
X110645Y34085D01*
X110553Y34102D01*
X110461Y34118D01*
X110253Y34176D01*
X110145Y34218D01*
X110036Y34268D01*
X109928Y34318D01*
X109828Y34385D01*
X109736Y34460D01*
X109645Y34543D01*
X109636Y34551D01*
X109628Y34568D01*
X109603Y34593D01*
X109578Y34635D01*
X109545Y34685D01*
X109503Y34743D01*
X109461Y34818D01*
X109420Y34901D01*
X109387Y35001D01*
X109345Y35110D01*
X109312Y35226D01*
X109278Y35351D01*
X109253Y35493D01*
X109228Y35643D01*
X109220Y35801D01*
Y35976D01*
X109986Y36084D01*
Y36076D01*
Y36051D01*
Y36018D01*
X109995Y35968D01*
X110003Y35909D01*
X110011Y35843D01*
X110028Y35684D01*
X110061Y35518D01*
X110111Y35351D01*
X110170Y35201D01*
X110211Y35143D01*
X110253Y35085D01*
X110261Y35076D01*
X110303Y35043D01*
X110353Y35001D01*
X110436Y34951D01*
X110528Y34901D01*
X110645Y34860D01*
X110786Y34826D01*
X110936Y34818D01*
X110986D01*
X111053Y34826D01*
X111128Y34835D01*
X111211Y34851D01*
X111303Y34876D01*
X111394Y34910D01*
X111486Y34960D01*
X111494Y34968D01*
X111528Y34985D01*
X111561Y35018D01*
X111611Y35068D01*
X111669Y35126D01*
X111719Y35193D01*
X111769Y35268D01*
X111803Y35359D01*
X111811Y35368D01*
X111819Y35410D01*
X111836Y35468D01*
X111853Y35551D01*
X111869Y35668D01*
X111877Y35801D01*
X111894Y35968D01*
Y36159D01*
Y40575D01*
X112744D01*
Y36209D01*
D02*
G37*
G36*
X62287Y42666D02*
X61528D01*
Y46140D01*
X59546D01*
Y43133D01*
X58787D01*
Y46140D01*
X55880D01*
Y46990D01*
X62287D01*
Y42666D01*
D02*
G37*
G36*
X60704Y41275D02*
X60720Y41250D01*
X60737Y41217D01*
X60762Y41175D01*
X60787Y41117D01*
X60829Y41050D01*
X60912Y40892D01*
X61020Y40717D01*
X61153Y40517D01*
X61295Y40325D01*
X61453Y40134D01*
X61462Y40125D01*
X61470Y40108D01*
X61495Y40083D01*
X61528Y40050D01*
X61612Y39967D01*
X61728Y39859D01*
X61853Y39750D01*
X62003Y39634D01*
X62153Y39525D01*
X62312Y39434D01*
Y38925D01*
X55880D01*
Y39709D01*
X60887D01*
X60879Y39725D01*
X60845Y39759D01*
X60787Y39825D01*
X60720Y39909D01*
X60637Y40017D01*
X60545Y40150D01*
X60445Y40292D01*
X60345Y40458D01*
Y40467D01*
X60337Y40475D01*
X60320Y40500D01*
X60304Y40533D01*
X60254Y40625D01*
X60195Y40733D01*
X60129Y40858D01*
X60062Y41000D01*
X59995Y41142D01*
X59937Y41283D01*
X60704D01*
Y41275D01*
D02*
G37*
G36*
X102314Y97347D02*
X102306Y97272D01*
Y97198D01*
X102298Y97106D01*
X102289Y97006D01*
X102273Y96798D01*
X102239Y96581D01*
X102198Y96373D01*
X102173Y96273D01*
X102139Y96189D01*
Y96181D01*
X102131Y96173D01*
X102123Y96148D01*
X102106Y96114D01*
X102064Y96031D01*
X101998Y95931D01*
X101914Y95815D01*
X101806Y95698D01*
X101673Y95581D01*
X101523Y95473D01*
X101515D01*
X101506Y95465D01*
X101481Y95448D01*
X101448Y95431D01*
X101356Y95390D01*
X101240Y95340D01*
X101098Y95290D01*
X100931Y95248D01*
X100748Y95215D01*
X100556Y95206D01*
X100548D01*
X100523D01*
X100490D01*
X100440Y95215D01*
X100381Y95223D01*
X100315Y95231D01*
X100156Y95265D01*
X99973Y95315D01*
X99782Y95390D01*
X99690Y95440D01*
X99590Y95498D01*
X99498Y95573D01*
X99407Y95648D01*
X99398Y95656D01*
X99390Y95665D01*
X99365Y95698D01*
X99332Y95731D01*
X99298Y95781D01*
X99257Y95840D01*
X99207Y95906D01*
X99157Y95981D01*
X99107Y96073D01*
X99057Y96173D01*
X99007Y96289D01*
X98957Y96414D01*
X98915Y96548D01*
X98874Y96689D01*
X98840Y96848D01*
X98815Y97014D01*
X98807Y96997D01*
X98790Y96956D01*
X98757Y96897D01*
X98715Y96823D01*
X98607Y96656D01*
X98548Y96581D01*
X98490Y96506D01*
Y96498D01*
X98474Y96489D01*
X98432Y96439D01*
X98357Y96373D01*
X98257Y96273D01*
X98140Y96164D01*
X97990Y96048D01*
X97824Y95923D01*
X97640Y95798D01*
X95908Y94690D01*
Y95756D01*
X97232Y96598D01*
X97240D01*
X97257Y96614D01*
X97290Y96631D01*
X97324Y96656D01*
X97374Y96689D01*
X97432Y96731D01*
X97557Y96814D01*
X97699Y96914D01*
X97840Y97014D01*
X97982Y97114D01*
X98107Y97214D01*
X98124Y97222D01*
X98157Y97256D01*
X98215Y97297D01*
X98274Y97356D01*
X98349Y97422D01*
X98424Y97497D01*
X98482Y97572D01*
X98540Y97647D01*
X98548Y97656D01*
X98557Y97681D01*
X98582Y97714D01*
X98607Y97764D01*
X98640Y97822D01*
X98665Y97889D01*
X98715Y98031D01*
Y98039D01*
X98723Y98056D01*
Y98089D01*
X98732Y98139D01*
X98740Y98205D01*
Y98289D01*
X98749Y98380D01*
Y99480D01*
X95908D01*
Y100330D01*
X102314D01*
Y97347D01*
D02*
G37*
G36*
X99232Y92057D02*
X102314Y94240D01*
Y93223D01*
X100673Y92057D01*
X100665Y92049D01*
X100648Y92041D01*
X100623Y92024D01*
X100590Y91999D01*
X100498Y91932D01*
X100381Y91857D01*
X100256Y91774D01*
X100123Y91691D01*
X99998Y91616D01*
X99890Y91549D01*
X99907Y91541D01*
X99948Y91507D01*
X100015Y91466D01*
X100106Y91407D01*
X100215Y91332D01*
X100340Y91241D01*
X100465Y91149D01*
X100606Y91041D01*
X102314Y89766D01*
Y88841D01*
X99265Y91057D01*
X95908Y88666D01*
Y89708D01*
X98190Y91324D01*
X98199Y91332D01*
X98224Y91349D01*
X98265Y91374D01*
X98315Y91407D01*
X98374Y91449D01*
X98440Y91491D01*
X98582Y91591D01*
X98565Y91599D01*
X98532Y91624D01*
X98474Y91657D01*
X98407Y91707D01*
X98249Y91807D01*
X98182Y91849D01*
X98124Y91890D01*
X95908Y93515D01*
Y94531D01*
X99232Y92057D01*
D02*
G37*
G36*
X75542Y119325D02*
X74218Y118484D01*
X74209D01*
X74193Y118467D01*
X74159Y118450D01*
X74126Y118425D01*
X74076Y118392D01*
X74018Y118350D01*
X73893Y118267D01*
X73751Y118167D01*
X73610Y118067D01*
X73468Y117967D01*
X73343Y117867D01*
X73326Y117859D01*
X73293Y117825D01*
X73235Y117784D01*
X73176Y117725D01*
X73101Y117659D01*
X73026Y117584D01*
X72968Y117509D01*
X72910Y117434D01*
X72902Y117426D01*
X72893Y117401D01*
X72868Y117367D01*
X72843Y117317D01*
X72810Y117259D01*
X72785Y117192D01*
X72735Y117051D01*
Y117042D01*
X72726Y117026D01*
Y116992D01*
X72718Y116942D01*
X72710Y116876D01*
Y116792D01*
X72702Y116701D01*
Y115601D01*
X75542D01*
Y114751D01*
X69136D01*
Y117734D01*
X69144Y117809D01*
Y117884D01*
X69152Y117976D01*
X69161Y118076D01*
X69177Y118284D01*
X69211Y118500D01*
X69252Y118709D01*
X69277Y118809D01*
X69311Y118892D01*
Y118900D01*
X69319Y118909D01*
X69327Y118934D01*
X69344Y118967D01*
X69386Y119050D01*
X69452Y119150D01*
X69536Y119267D01*
X69644Y119383D01*
X69777Y119500D01*
X69927Y119608D01*
X69935D01*
X69944Y119617D01*
X69969Y119633D01*
X70002Y119650D01*
X70094Y119692D01*
X70210Y119742D01*
X70352Y119792D01*
X70519Y119833D01*
X70702Y119867D01*
X70894Y119875D01*
X70902D01*
X70927D01*
X70960D01*
X71010Y119867D01*
X71069Y119858D01*
X71135Y119850D01*
X71294Y119817D01*
X71477Y119767D01*
X71668Y119692D01*
X71760Y119642D01*
X71860Y119583D01*
X71952Y119508D01*
X72043Y119433D01*
X72052Y119425D01*
X72060Y119417D01*
X72085Y119383D01*
X72118Y119350D01*
X72152Y119300D01*
X72193Y119242D01*
X72243Y119175D01*
X72293Y119100D01*
X72343Y119009D01*
X72393Y118909D01*
X72443Y118792D01*
X72493Y118667D01*
X72535Y118534D01*
X72576Y118392D01*
X72610Y118234D01*
X72635Y118067D01*
X72643Y118084D01*
X72660Y118125D01*
X72693Y118184D01*
X72735Y118259D01*
X72843Y118425D01*
X72902Y118500D01*
X72960Y118575D01*
Y118584D01*
X72976Y118592D01*
X73018Y118642D01*
X73093Y118709D01*
X73193Y118809D01*
X73310Y118917D01*
X73460Y119033D01*
X73626Y119158D01*
X73810Y119284D01*
X75542Y120392D01*
Y119325D01*
D02*
G37*
G36*
Y112194D02*
Y111369D01*
X70669Y110028D01*
X70660D01*
X70644Y110019D01*
X70610Y110011D01*
X70569Y110002D01*
X70469Y109969D01*
X70344Y109936D01*
X70210Y109902D01*
X70086Y109869D01*
X69985Y109836D01*
X69944Y109828D01*
X69911Y109819D01*
X69919D01*
X69927Y109811D01*
X69952D01*
X69985Y109803D01*
X70069Y109786D01*
X70169Y109761D01*
X70286Y109728D01*
X70419Y109694D01*
X70544Y109661D01*
X70669Y109628D01*
X75542Y108278D01*
Y107387D01*
X69136Y105712D01*
Y106587D01*
X73343Y107553D01*
X73351D01*
X73376Y107562D01*
X73410Y107570D01*
X73460Y107578D01*
X73518Y107595D01*
X73585Y107612D01*
X73668Y107628D01*
X73751Y107645D01*
X73951Y107686D01*
X74176Y107736D01*
X74409Y107778D01*
X74651Y107820D01*
X74643D01*
X74609Y107828D01*
X74551Y107845D01*
X74484Y107861D01*
X74409Y107878D01*
X74318Y107903D01*
X74118Y107953D01*
X73910Y108003D01*
X73810Y108028D01*
X73718Y108045D01*
X73635Y108070D01*
X73568Y108086D01*
X73510Y108103D01*
X73468Y108111D01*
X69136Y109328D01*
Y110352D01*
X72385Y111260D01*
X72402Y111269D01*
X72435Y111277D01*
X72502Y111294D01*
X72593Y111319D01*
X72693Y111344D01*
X72826Y111377D01*
X72968Y111419D01*
X73118Y111452D01*
X73293Y111494D01*
X73468Y111536D01*
X73660Y111577D01*
X73851Y111619D01*
X74251Y111702D01*
X74651Y111769D01*
X74643D01*
X74626Y111777D01*
X74593Y111785D01*
X74543Y111794D01*
X74484Y111802D01*
X74418Y111819D01*
X74334Y111835D01*
X74251Y111852D01*
X74151Y111877D01*
X74043Y111902D01*
X73810Y111952D01*
X73543Y112019D01*
X73260Y112085D01*
X69136Y113093D01*
Y113952D01*
X75542Y112194D01*
D02*
G37*
G36*
X71127Y105204D02*
X71202Y105195D01*
X71285Y105187D01*
X71377Y105170D01*
X71469Y105145D01*
X71693Y105087D01*
X71802Y105045D01*
X71918Y104987D01*
X72035Y104929D01*
X72152Y104862D01*
X72268Y104779D01*
X72377Y104687D01*
X72385Y104679D01*
X72402Y104662D01*
X72427Y104629D01*
X72468Y104587D01*
X72510Y104529D01*
X72551Y104454D01*
X72610Y104362D01*
X72660Y104262D01*
X72710Y104137D01*
X72760Y104004D01*
X72810Y103846D01*
X72852Y103679D01*
X72893Y103488D01*
X72918Y103279D01*
X72935Y103054D01*
X72943Y102813D01*
Y101180D01*
X75542D01*
Y100330D01*
X69136D01*
Y102963D01*
X69144Y103104D01*
X69152Y103254D01*
X69161Y103421D01*
X69177Y103579D01*
X69202Y103713D01*
Y103737D01*
X69211Y103754D01*
X69219Y103787D01*
X69236Y103879D01*
X69269Y103987D01*
X69311Y104112D01*
X69361Y104237D01*
X69427Y104371D01*
X69502Y104496D01*
X69511Y104512D01*
X69544Y104546D01*
X69594Y104612D01*
X69661Y104679D01*
X69744Y104762D01*
X69852Y104854D01*
X69977Y104937D01*
X70119Y105012D01*
X70127D01*
X70135Y105021D01*
X70160Y105029D01*
X70185Y105045D01*
X70269Y105079D01*
X70377Y105112D01*
X70510Y105145D01*
X70660Y105179D01*
X70819Y105204D01*
X70994Y105212D01*
X71002D01*
X71027D01*
X71069D01*
X71127Y105204D01*
D02*
G37*
G36*
X171164Y41902D02*
X171256D01*
X171356Y41893D01*
X171464Y41877D01*
X171589Y41860D01*
X171722Y41843D01*
X171864Y41818D01*
X172155Y41752D01*
X172447Y41660D01*
X172597Y41602D01*
X172739Y41535D01*
X172747Y41527D01*
X172772Y41519D01*
X172813Y41494D01*
X172864Y41460D01*
X172922Y41427D01*
X172997Y41377D01*
X173072Y41319D01*
X173164Y41252D01*
X173347Y41102D01*
X173530Y40910D01*
X173713Y40694D01*
X173797Y40569D01*
X173872Y40444D01*
X173880Y40436D01*
X173888Y40410D01*
X173905Y40369D01*
X173930Y40319D01*
X173963Y40252D01*
X173997Y40177D01*
X174030Y40086D01*
X174072Y39986D01*
X174105Y39869D01*
X174138Y39752D01*
X174205Y39486D01*
X174247Y39194D01*
X174263Y39044D01*
Y38794D01*
X174255Y38728D01*
X174247Y38644D01*
X174238Y38544D01*
X174221Y38436D01*
X174205Y38319D01*
X174146Y38069D01*
X174105Y37936D01*
X174055Y37794D01*
X173997Y37661D01*
X173938Y37528D01*
X173855Y37395D01*
X173772Y37270D01*
X173763Y37261D01*
X173747Y37245D01*
X173722Y37203D01*
X173680Y37161D01*
X173630Y37111D01*
X173572Y37045D01*
X173497Y36978D01*
X173413Y36903D01*
X173322Y36828D01*
X173222Y36753D01*
X173105Y36678D01*
X172988Y36603D01*
X172855Y36528D01*
X172714Y36462D01*
X172555Y36395D01*
X172397Y36345D01*
X172197Y37178D01*
X172205D01*
X172230Y37186D01*
X172264Y37203D01*
X172314Y37220D01*
X172372Y37245D01*
X172439Y37270D01*
X172589Y37345D01*
X172755Y37436D01*
X172922Y37545D01*
X173080Y37678D01*
X173147Y37753D01*
X173213Y37828D01*
Y37836D01*
X173230Y37845D01*
X173247Y37869D01*
X173263Y37903D01*
X173288Y37944D01*
X173313Y37994D01*
X173380Y38119D01*
X173438Y38278D01*
X173488Y38461D01*
X173522Y38669D01*
X173538Y38902D01*
Y38977D01*
X173530Y39028D01*
Y39086D01*
X173522Y39161D01*
X173505Y39244D01*
X173497Y39336D01*
X173455Y39527D01*
X173388Y39736D01*
X173297Y39944D01*
X173247Y40044D01*
X173180Y40144D01*
Y40152D01*
X173164Y40169D01*
X173147Y40194D01*
X173113Y40227D01*
X173039Y40311D01*
X172930Y40410D01*
X172797Y40527D01*
X172630Y40644D01*
X172447Y40752D01*
X172230Y40835D01*
X172222D01*
X172205Y40844D01*
X172172Y40852D01*
X172130Y40869D01*
X172072Y40885D01*
X172005Y40902D01*
X171930Y40919D01*
X171856Y40935D01*
X171664Y40969D01*
X171456Y41002D01*
X171231Y41027D01*
X170997Y41035D01*
X170989D01*
X170964D01*
X170922D01*
X170864D01*
X170789Y41027D01*
X170706Y41019D01*
X170614D01*
X170514Y41002D01*
X170289Y40977D01*
X170056Y40935D01*
X169806Y40877D01*
X169573Y40802D01*
X169564D01*
X169548Y40794D01*
X169514Y40777D01*
X169473Y40752D01*
X169423Y40727D01*
X169364Y40702D01*
X169231Y40619D01*
X169081Y40510D01*
X168931Y40385D01*
X168790Y40236D01*
X168665Y40061D01*
Y40052D01*
X168648Y40036D01*
X168640Y40011D01*
X168615Y39969D01*
X168598Y39927D01*
X168573Y39869D01*
X168515Y39736D01*
X168456Y39569D01*
X168415Y39386D01*
X168381Y39186D01*
X168365Y38969D01*
Y38902D01*
X168373Y38853D01*
X168381Y38786D01*
X168390Y38719D01*
X168398Y38636D01*
X168415Y38553D01*
X168465Y38361D01*
X168540Y38161D01*
X168581Y38053D01*
X168640Y37953D01*
X168698Y37853D01*
X168773Y37761D01*
X168781Y37753D01*
X168790Y37736D01*
X168815Y37711D01*
X168848Y37678D01*
X168890Y37645D01*
X168948Y37594D01*
X169006Y37545D01*
X169081Y37494D01*
X169156Y37436D01*
X169248Y37378D01*
X169348Y37328D01*
X169456Y37270D01*
X169581Y37220D01*
X169706Y37170D01*
X169839Y37128D01*
X169989Y37086D01*
X169773Y36237D01*
X169764D01*
X169731Y36253D01*
X169673Y36270D01*
X169598Y36286D01*
X169514Y36320D01*
X169414Y36361D01*
X169306Y36403D01*
X169181Y36462D01*
X169056Y36520D01*
X168923Y36595D01*
X168798Y36670D01*
X168665Y36761D01*
X168531Y36853D01*
X168406Y36961D01*
X168290Y37078D01*
X168181Y37203D01*
X168173Y37211D01*
X168156Y37236D01*
X168131Y37270D01*
X168098Y37328D01*
X168056Y37395D01*
X168006Y37478D01*
X167965Y37569D01*
X167915Y37669D01*
X167857Y37794D01*
X167815Y37919D01*
X167765Y38061D01*
X167723Y38211D01*
X167690Y38369D01*
X167665Y38536D01*
X167648Y38711D01*
X167640Y38894D01*
Y38994D01*
X167648Y39069D01*
X167656Y39152D01*
X167665Y39261D01*
X167673Y39369D01*
X167690Y39494D01*
X167740Y39761D01*
X167815Y40044D01*
X167865Y40185D01*
X167923Y40327D01*
X167981Y40460D01*
X168056Y40585D01*
X168065Y40594D01*
X168073Y40610D01*
X168098Y40644D01*
X168140Y40694D01*
X168181Y40744D01*
X168231Y40810D01*
X168298Y40877D01*
X168373Y40952D01*
X168448Y41035D01*
X168540Y41110D01*
X168640Y41194D01*
X168756Y41277D01*
X168873Y41360D01*
X168998Y41435D01*
X169139Y41510D01*
X169281Y41577D01*
X169289D01*
X169314Y41593D01*
X169364Y41610D01*
X169423Y41627D01*
X169498Y41652D01*
X169581Y41685D01*
X169681Y41710D01*
X169798Y41743D01*
X169923Y41777D01*
X170056Y41802D01*
X170198Y41835D01*
X170339Y41860D01*
X170664Y41893D01*
X170997Y41910D01*
X171006D01*
X171039D01*
X171097D01*
X171164Y41902D01*
D02*
G37*
G36*
X167923Y35620D02*
X168006Y35612D01*
X168098Y35595D01*
X168190Y35570D01*
X168290Y35537D01*
X168298D01*
X168306Y35528D01*
X168331Y35520D01*
X168365Y35503D01*
X168448Y35470D01*
X168556Y35412D01*
X168690Y35337D01*
X168831Y35253D01*
X168981Y35145D01*
X169139Y35020D01*
X169148Y35012D01*
X169156Y35003D01*
X169181Y34978D01*
X169214Y34953D01*
X169306Y34870D01*
X169423Y34754D01*
X169564Y34612D01*
X169731Y34437D01*
X169914Y34229D01*
X170114Y33987D01*
X170123Y33979D01*
X170156Y33945D01*
X170198Y33887D01*
X170256Y33821D01*
X170331Y33737D01*
X170414Y33637D01*
X170506Y33529D01*
X170606Y33421D01*
X170822Y33187D01*
X171047Y32954D01*
X171164Y32846D01*
X171272Y32746D01*
X171372Y32654D01*
X171472Y32579D01*
X171481Y32571D01*
X171497Y32562D01*
X171522Y32546D01*
X171556Y32521D01*
X171605Y32496D01*
X171656Y32462D01*
X171780Y32387D01*
X171922Y32321D01*
X172080Y32262D01*
X172255Y32221D01*
X172339Y32204D01*
X172422D01*
X172430D01*
X172447D01*
X172464D01*
X172497Y32213D01*
X172589Y32221D01*
X172697Y32246D01*
X172822Y32287D01*
X172947Y32346D01*
X173080Y32429D01*
X173205Y32546D01*
X173222Y32562D01*
X173255Y32604D01*
X173305Y32679D01*
X173372Y32779D01*
X173430Y32904D01*
X173480Y33054D01*
X173513Y33229D01*
X173530Y33421D01*
Y33479D01*
X173522Y33512D01*
Y33562D01*
X173513Y33621D01*
X173488Y33746D01*
X173447Y33887D01*
X173388Y34045D01*
X173305Y34195D01*
X173188Y34329D01*
X173172Y34345D01*
X173130Y34379D01*
X173047Y34437D01*
X172947Y34495D01*
X172805Y34562D01*
X172647Y34620D01*
X172464Y34654D01*
X172247Y34670D01*
X172330Y35478D01*
X172339D01*
X172372Y35470D01*
X172414D01*
X172480Y35462D01*
X172555Y35445D01*
X172639Y35428D01*
X172739Y35403D01*
X172838Y35370D01*
X173064Y35295D01*
X173180Y35245D01*
X173288Y35187D01*
X173405Y35120D01*
X173513Y35045D01*
X173613Y34962D01*
X173705Y34862D01*
X173713Y34853D01*
X173722Y34837D01*
X173747Y34804D01*
X173780Y34762D01*
X173813Y34704D01*
X173855Y34637D01*
X173897Y34562D01*
X173947Y34470D01*
X173988Y34370D01*
X174030Y34262D01*
X174072Y34145D01*
X174105Y34012D01*
X174138Y33879D01*
X174163Y33729D01*
X174172Y33570D01*
X174180Y33404D01*
Y33312D01*
X174172Y33254D01*
X174163Y33171D01*
X174155Y33079D01*
X174138Y32979D01*
X174113Y32871D01*
X174055Y32638D01*
X174013Y32521D01*
X173963Y32396D01*
X173905Y32271D01*
X173830Y32154D01*
X173755Y32046D01*
X173663Y31938D01*
X173655Y31929D01*
X173638Y31913D01*
X173613Y31888D01*
X173572Y31854D01*
X173522Y31813D01*
X173463Y31763D01*
X173397Y31721D01*
X173313Y31663D01*
X173230Y31613D01*
X173130Y31571D01*
X172913Y31479D01*
X172797Y31446D01*
X172672Y31421D01*
X172539Y31404D01*
X172397Y31396D01*
X172380D01*
X172330D01*
X172255Y31404D01*
X172155Y31413D01*
X172047Y31438D01*
X171914Y31463D01*
X171780Y31504D01*
X171639Y31554D01*
X171622Y31563D01*
X171572Y31588D01*
X171497Y31621D01*
X171406Y31679D01*
X171289Y31754D01*
X171156Y31846D01*
X171006Y31954D01*
X170856Y32079D01*
X170847D01*
X170839Y32096D01*
X170814Y32121D01*
X170781Y32146D01*
X170739Y32188D01*
X170689Y32238D01*
X170631Y32296D01*
X170564Y32371D01*
X170489Y32446D01*
X170406Y32538D01*
X170306Y32638D01*
X170206Y32746D01*
X170098Y32871D01*
X169989Y32996D01*
X169864Y33146D01*
X169731Y33296D01*
X169723Y33304D01*
X169706Y33329D01*
X169673Y33362D01*
X169639Y33412D01*
X169589Y33462D01*
X169531Y33529D01*
X169406Y33670D01*
X169273Y33829D01*
X169139Y33979D01*
X169081Y34045D01*
X169023Y34104D01*
X168965Y34162D01*
X168923Y34204D01*
X168915Y34212D01*
X168890Y34237D01*
X168848Y34270D01*
X168790Y34320D01*
X168731Y34370D01*
X168656Y34429D01*
X168506Y34537D01*
Y31388D01*
X167748D01*
Y35628D01*
X167765D01*
X167798D01*
X167848D01*
X167923Y35620D01*
D02*
G37*
G36*
X125174Y95265D02*
X124416D01*
Y97372D01*
X118768D01*
Y98222D01*
X124416D01*
Y100330D01*
X125174D01*
Y95265D01*
D02*
G37*
G36*
X122092Y92565D02*
X125174Y94748D01*
Y93732D01*
X123533Y92565D01*
X123525Y92557D01*
X123508Y92549D01*
X123483Y92532D01*
X123450Y92507D01*
X123358Y92440D01*
X123241Y92365D01*
X123116Y92282D01*
X122983Y92199D01*
X122858Y92124D01*
X122750Y92057D01*
X122767Y92049D01*
X122808Y92015D01*
X122875Y91974D01*
X122966Y91916D01*
X123075Y91840D01*
X123200Y91749D01*
X123325Y91657D01*
X123466Y91549D01*
X125174Y90274D01*
Y89349D01*
X122125Y91566D01*
X118768Y89174D01*
Y90216D01*
X121050Y91832D01*
X121059Y91840D01*
X121084Y91857D01*
X121125Y91882D01*
X121175Y91916D01*
X121234Y91957D01*
X121300Y91999D01*
X121442Y92099D01*
X121425Y92107D01*
X121392Y92132D01*
X121334Y92165D01*
X121267Y92215D01*
X121109Y92315D01*
X121042Y92357D01*
X120984Y92399D01*
X118768Y94023D01*
Y95040D01*
X122092Y92565D01*
D02*
G37*
G36*
X145284Y116159D02*
X142060Y113876D01*
X143068Y112835D01*
X145284D01*
Y111985D01*
X138877D01*
Y112835D01*
X142052D01*
X138877Y116018D01*
Y117167D01*
X141485Y114476D01*
X145284Y117284D01*
Y116159D01*
D02*
G37*
G36*
Y107012D02*
X138877D01*
Y107861D01*
X144526D01*
Y111011D01*
X145284D01*
Y107012D01*
D02*
G37*
G36*
X143301Y105987D02*
X143360Y105970D01*
X143435Y105954D01*
X143518Y105920D01*
X143618Y105879D01*
X143726Y105837D01*
X143851Y105779D01*
X143976Y105720D01*
X144109Y105645D01*
X144234Y105570D01*
X144368Y105479D01*
X144501Y105387D01*
X144626Y105279D01*
X144743Y105162D01*
X144851Y105037D01*
X144859Y105029D01*
X144876Y105004D01*
X144901Y104971D01*
X144934Y104912D01*
X144976Y104846D01*
X145026Y104762D01*
X145068Y104671D01*
X145118Y104571D01*
X145176Y104446D01*
X145218Y104321D01*
X145267Y104179D01*
X145309Y104029D01*
X145343Y103871D01*
X145367Y103704D01*
X145384Y103529D01*
X145392Y103346D01*
Y103246D01*
X145384Y103171D01*
X145376Y103088D01*
X145367Y102979D01*
X145359Y102871D01*
X145343Y102746D01*
X145293Y102479D01*
X145218Y102196D01*
X145168Y102055D01*
X145109Y101913D01*
X145051Y101780D01*
X144976Y101655D01*
X144968Y101646D01*
X144959Y101630D01*
X144934Y101596D01*
X144893Y101546D01*
X144851Y101496D01*
X144801Y101430D01*
X144734Y101363D01*
X144659Y101288D01*
X144584Y101205D01*
X144493Y101130D01*
X144393Y101046D01*
X144276Y100963D01*
X144159Y100880D01*
X144035Y100805D01*
X143893Y100730D01*
X143751Y100663D01*
X143743D01*
X143718Y100647D01*
X143668Y100630D01*
X143610Y100613D01*
X143535Y100588D01*
X143451Y100555D01*
X143351Y100530D01*
X143235Y100497D01*
X143110Y100463D01*
X142976Y100438D01*
X142835Y100405D01*
X142693Y100380D01*
X142368Y100347D01*
X142035Y100330D01*
X142027D01*
X141993D01*
X141935D01*
X141868Y100338D01*
X141777D01*
X141677Y100347D01*
X141568Y100363D01*
X141444Y100380D01*
X141310Y100397D01*
X141168Y100422D01*
X140877Y100488D01*
X140585Y100580D01*
X140435Y100638D01*
X140294Y100705D01*
X140285Y100713D01*
X140260Y100722D01*
X140219Y100747D01*
X140169Y100780D01*
X140111Y100813D01*
X140035Y100863D01*
X139960Y100921D01*
X139869Y100988D01*
X139686Y101138D01*
X139502Y101330D01*
X139319Y101546D01*
X139236Y101671D01*
X139161Y101796D01*
X139152Y101805D01*
X139144Y101830D01*
X139127Y101871D01*
X139102Y101921D01*
X139069Y101988D01*
X139036Y102063D01*
X139002Y102155D01*
X138961Y102254D01*
X138927Y102371D01*
X138894Y102488D01*
X138827Y102754D01*
X138786Y103046D01*
X138769Y103196D01*
Y103446D01*
X138778Y103512D01*
X138786Y103596D01*
X138794Y103696D01*
X138811Y103804D01*
X138827Y103921D01*
X138886Y104171D01*
X138927Y104304D01*
X138977Y104446D01*
X139036Y104579D01*
X139094Y104712D01*
X139177Y104846D01*
X139261Y104971D01*
X139269Y104979D01*
X139286Y104995D01*
X139311Y105037D01*
X139352Y105079D01*
X139402Y105129D01*
X139461Y105195D01*
X139536Y105262D01*
X139619Y105337D01*
X139711Y105412D01*
X139810Y105487D01*
X139927Y105562D01*
X140044Y105637D01*
X140177Y105712D01*
X140319Y105779D01*
X140477Y105845D01*
X140635Y105895D01*
X140835Y105062D01*
X140827D01*
X140802Y105054D01*
X140769Y105037D01*
X140719Y105021D01*
X140660Y104995D01*
X140594Y104971D01*
X140444Y104895D01*
X140277Y104804D01*
X140111Y104696D01*
X139952Y104562D01*
X139886Y104487D01*
X139819Y104412D01*
Y104404D01*
X139802Y104396D01*
X139785Y104371D01*
X139769Y104337D01*
X139744Y104296D01*
X139719Y104246D01*
X139652Y104121D01*
X139594Y103962D01*
X139544Y103779D01*
X139511Y103571D01*
X139494Y103338D01*
Y103263D01*
X139502Y103213D01*
Y103154D01*
X139511Y103079D01*
X139527Y102996D01*
X139536Y102904D01*
X139577Y102713D01*
X139644Y102504D01*
X139736Y102296D01*
X139785Y102196D01*
X139852Y102096D01*
Y102088D01*
X139869Y102071D01*
X139886Y102046D01*
X139919Y102013D01*
X139994Y101930D01*
X140102Y101830D01*
X140235Y101713D01*
X140402Y101596D01*
X140585Y101488D01*
X140802Y101405D01*
X140810D01*
X140827Y101396D01*
X140860Y101388D01*
X140902Y101371D01*
X140960Y101355D01*
X141027Y101338D01*
X141102Y101321D01*
X141177Y101305D01*
X141369Y101271D01*
X141577Y101238D01*
X141802Y101213D01*
X142035Y101205D01*
X142043D01*
X142068D01*
X142110D01*
X142168D01*
X142243Y101213D01*
X142327Y101221D01*
X142418D01*
X142518Y101238D01*
X142743Y101263D01*
X142976Y101305D01*
X143226Y101363D01*
X143460Y101438D01*
X143468D01*
X143485Y101446D01*
X143518Y101463D01*
X143560Y101488D01*
X143610Y101513D01*
X143668Y101538D01*
X143801Y101621D01*
X143951Y101730D01*
X144101Y101855D01*
X144243Y102005D01*
X144368Y102179D01*
Y102188D01*
X144384Y102205D01*
X144393Y102229D01*
X144418Y102271D01*
X144434Y102313D01*
X144459Y102371D01*
X144518Y102504D01*
X144576Y102671D01*
X144618Y102854D01*
X144651Y103054D01*
X144668Y103271D01*
Y103338D01*
X144659Y103388D01*
X144651Y103454D01*
X144643Y103521D01*
X144634Y103604D01*
X144618Y103687D01*
X144568Y103879D01*
X144493Y104079D01*
X144451Y104187D01*
X144393Y104287D01*
X144334Y104387D01*
X144259Y104479D01*
X144251Y104487D01*
X144243Y104504D01*
X144218Y104529D01*
X144184Y104562D01*
X144143Y104596D01*
X144084Y104646D01*
X144026Y104696D01*
X143951Y104746D01*
X143876Y104804D01*
X143785Y104862D01*
X143685Y104912D01*
X143576Y104971D01*
X143451Y105021D01*
X143326Y105070D01*
X143193Y105112D01*
X143043Y105154D01*
X143260Y106004D01*
X143268D01*
X143301Y105987D01*
D02*
G37*
G36*
X173434Y129689D02*
X173426Y129614D01*
Y129456D01*
X173409Y129272D01*
X173393Y129081D01*
X173368Y128897D01*
X173334Y128739D01*
Y128731D01*
X173326Y128714D01*
X173318Y128681D01*
X173309Y128647D01*
X173293Y128598D01*
X173276Y128539D01*
X173234Y128414D01*
X173168Y128264D01*
X173093Y128106D01*
X172993Y127948D01*
X172876Y127798D01*
X172868Y127789D01*
X172859Y127773D01*
X172834Y127748D01*
X172801Y127715D01*
X172759Y127673D01*
X172709Y127623D01*
X172651Y127573D01*
X172584Y127514D01*
X172426Y127389D01*
X172235Y127265D01*
X172026Y127140D01*
X171785Y127040D01*
X171776D01*
X171751Y127031D01*
X171718Y127015D01*
X171668Y126998D01*
X171601Y126981D01*
X171526Y126956D01*
X171443Y126931D01*
X171343Y126906D01*
X171235Y126890D01*
X171118Y126865D01*
X170993Y126840D01*
X170860Y126823D01*
X170568Y126790D01*
X170260Y126781D01*
X170252D01*
X170227D01*
X170193D01*
X170135D01*
X170077Y126790D01*
X170002D01*
X169918Y126798D01*
X169827Y126806D01*
X169627Y126823D01*
X169410Y126856D01*
X169185Y126898D01*
X168969Y126956D01*
X168960D01*
X168944Y126965D01*
X168910Y126973D01*
X168877Y126990D01*
X168827Y127006D01*
X168769Y127023D01*
X168644Y127073D01*
X168494Y127131D01*
X168336Y127206D01*
X168177Y127298D01*
X168036Y127389D01*
X168019Y127398D01*
X167977Y127439D01*
X167911Y127490D01*
X167827Y127564D01*
X167736Y127648D01*
X167636Y127748D01*
X167544Y127864D01*
X167452Y127981D01*
X167444Y127998D01*
X167419Y128039D01*
X167377Y128106D01*
X167336Y128198D01*
X167286Y128306D01*
X167227Y128439D01*
X167178Y128589D01*
X167136Y128748D01*
Y128756D01*
X167127Y128764D01*
Y128789D01*
X167119Y128822D01*
X167111Y128864D01*
X167103Y128914D01*
X167086Y129039D01*
X167061Y129189D01*
X167044Y129364D01*
X167036Y129564D01*
X167028Y129772D01*
Y132080D01*
X173434D01*
Y129689D01*
D02*
G37*
G36*
X171851Y125323D02*
X171868Y125298D01*
X171885Y125265D01*
X171910Y125223D01*
X171935Y125165D01*
X171976Y125098D01*
X172060Y124940D01*
X172168Y124765D01*
X172301Y124565D01*
X172443Y124374D01*
X172601Y124182D01*
X172610Y124174D01*
X172618Y124157D01*
X172643Y124132D01*
X172676Y124099D01*
X172759Y124015D01*
X172876Y123907D01*
X173001Y123799D01*
X173151Y123682D01*
X173301Y123574D01*
X173459Y123482D01*
Y122974D01*
X167028D01*
Y123757D01*
X172035D01*
X172026Y123774D01*
X171993Y123807D01*
X171935Y123874D01*
X171868Y123957D01*
X171785Y124065D01*
X171693Y124199D01*
X171593Y124340D01*
X171493Y124507D01*
Y124515D01*
X171485Y124524D01*
X171468Y124549D01*
X171451Y124582D01*
X171401Y124674D01*
X171343Y124782D01*
X171276Y124907D01*
X171210Y125049D01*
X171143Y125190D01*
X171085Y125332D01*
X171851D01*
Y125323D01*
D02*
G37*
G36*
X114434Y336815D02*
X114501D01*
X114584Y336806D01*
X114676Y336798D01*
X114867Y336765D01*
X115076Y336723D01*
X115292Y336665D01*
X115501Y336590D01*
X115509D01*
X115526Y336582D01*
X115551Y336565D01*
X115592Y336548D01*
X115692Y336490D01*
X115809Y336415D01*
X115950Y336323D01*
X116084Y336207D01*
X116225Y336065D01*
X116342Y335907D01*
Y335898D01*
X116359Y335890D01*
X116367Y335865D01*
X116392Y335832D01*
X116409Y335790D01*
X116434Y335740D01*
X116492Y335615D01*
X116550Y335465D01*
X116600Y335299D01*
X116642Y335107D01*
X116659Y334907D01*
X115842Y334849D01*
Y334857D01*
Y334874D01*
X115834Y334907D01*
X115826Y334949D01*
X115817Y334999D01*
X115801Y335057D01*
X115759Y335190D01*
X115701Y335332D01*
X115625Y335482D01*
X115526Y335632D01*
X115392Y335757D01*
X115376Y335773D01*
X115351Y335782D01*
X115326Y335807D01*
X115284Y335832D01*
X115234Y335857D01*
X115176Y335882D01*
X115117Y335915D01*
X115042Y335940D01*
X114959Y335965D01*
X114867Y335990D01*
X114767Y336015D01*
X114659Y336040D01*
X114543Y336048D01*
X114417Y336065D01*
X114159D01*
X114093Y336057D01*
X114026Y336048D01*
X113859Y336032D01*
X113676Y335998D01*
X113493Y335948D01*
X113318Y335873D01*
X113235Y335832D01*
X113168Y335782D01*
X113151Y335765D01*
X113110Y335732D01*
X113060Y335673D01*
X112993Y335590D01*
X112926Y335490D01*
X112876Y335373D01*
X112835Y335240D01*
X112818Y335099D01*
Y335082D01*
Y335040D01*
X112835Y334982D01*
X112851Y334899D01*
X112876Y334807D01*
X112918Y334715D01*
X112976Y334624D01*
X113060Y334532D01*
X113076Y334524D01*
X113093Y334507D01*
X113118Y334499D01*
X113151Y334474D01*
X113193Y334449D01*
X113251Y334424D01*
X113309Y334399D01*
X113393Y334366D01*
X113484Y334324D01*
X113584Y334291D01*
X113701Y334249D01*
X113834Y334207D01*
X113984Y334165D01*
X114151Y334124D01*
X114334Y334082D01*
X114342D01*
X114376Y334074D01*
X114434Y334057D01*
X114501Y334041D01*
X114584Y334024D01*
X114684Y333999D01*
X114784Y333974D01*
X114901Y333941D01*
X115134Y333882D01*
X115367Y333816D01*
X115476Y333774D01*
X115584Y333741D01*
X115675Y333707D01*
X115751Y333674D01*
X115759D01*
X115775Y333666D01*
X115801Y333649D01*
X115842Y333624D01*
X115942Y333574D01*
X116067Y333499D01*
X116200Y333399D01*
X116334Y333291D01*
X116467Y333157D01*
X116575Y333016D01*
Y333008D01*
X116584Y332999D01*
X116600Y332974D01*
X116617Y332949D01*
X116659Y332866D01*
X116717Y332758D01*
X116767Y332624D01*
X116809Y332466D01*
X116842Y332299D01*
X116850Y332108D01*
Y332099D01*
Y332083D01*
Y332058D01*
X116842Y332024D01*
Y331974D01*
X116834Y331924D01*
X116817Y331800D01*
X116775Y331650D01*
X116725Y331491D01*
X116650Y331316D01*
X116550Y331150D01*
Y331141D01*
X116534Y331133D01*
X116517Y331108D01*
X116500Y331075D01*
X116425Y330991D01*
X116334Y330891D01*
X116217Y330783D01*
X116075Y330666D01*
X115900Y330550D01*
X115709Y330450D01*
X115701D01*
X115684Y330442D01*
X115651Y330425D01*
X115617Y330408D01*
X115559Y330392D01*
X115501Y330375D01*
X115434Y330350D01*
X115351Y330325D01*
X115176Y330283D01*
X114967Y330242D01*
X114734Y330208D01*
X114484Y330200D01*
X114401D01*
X114342Y330208D01*
X114268D01*
X114176Y330216D01*
X114084Y330225D01*
X113976Y330233D01*
X113751Y330258D01*
X113501Y330308D01*
X113259Y330367D01*
X113026Y330450D01*
X113018D01*
X113001Y330458D01*
X112968Y330475D01*
X112926Y330500D01*
X112885Y330525D01*
X112826Y330558D01*
X112693Y330641D01*
X112543Y330750D01*
X112393Y330883D01*
X112243Y331041D01*
X112110Y331216D01*
Y331225D01*
X112093Y331241D01*
X112077Y331266D01*
X112060Y331308D01*
X112035Y331358D01*
X112001Y331408D01*
X111976Y331474D01*
X111943Y331549D01*
X111876Y331725D01*
X111818Y331916D01*
X111777Y332141D01*
X111760Y332374D01*
X112560Y332441D01*
Y332433D01*
Y332416D01*
X112568Y332391D01*
Y332358D01*
X112585Y332274D01*
X112610Y332158D01*
X112643Y332033D01*
X112693Y331899D01*
X112751Y331766D01*
X112818Y331641D01*
X112826Y331624D01*
X112860Y331591D01*
X112910Y331533D01*
X112976Y331466D01*
X113068Y331383D01*
X113176Y331300D01*
X113309Y331216D01*
X113459Y331141D01*
X113468D01*
X113476Y331133D01*
X113501Y331125D01*
X113534Y331116D01*
X113576Y331100D01*
X113626Y331083D01*
X113751Y331050D01*
X113893Y331016D01*
X114059Y330983D01*
X114243Y330966D01*
X114443Y330958D01*
X114526D01*
X114618Y330966D01*
X114734Y330975D01*
X114859Y330991D01*
X115009Y331016D01*
X115151Y331050D01*
X115292Y331100D01*
X115301D01*
X115309Y331108D01*
X115351Y331125D01*
X115417Y331158D01*
X115501Y331200D01*
X115592Y331258D01*
X115684Y331325D01*
X115775Y331400D01*
X115850Y331491D01*
X115859Y331499D01*
X115876Y331533D01*
X115909Y331591D01*
X115942Y331658D01*
X115976Y331741D01*
X116009Y331833D01*
X116025Y331933D01*
X116034Y332041D01*
Y332058D01*
Y332091D01*
X116025Y332149D01*
X116009Y332216D01*
X115992Y332299D01*
X115959Y332391D01*
X115909Y332483D01*
X115850Y332566D01*
X115842Y332574D01*
X115817Y332608D01*
X115775Y332649D01*
X115717Y332699D01*
X115634Y332758D01*
X115534Y332816D01*
X115417Y332882D01*
X115276Y332941D01*
X115259Y332949D01*
X115226Y332957D01*
X115192Y332974D01*
X115151Y332982D01*
X115101Y332999D01*
X115034Y333016D01*
X114967Y333041D01*
X114884Y333058D01*
X114792Y333083D01*
X114684Y333116D01*
X114567Y333141D01*
X114434Y333174D01*
X114293Y333207D01*
X114134Y333249D01*
X114126D01*
X114093Y333257D01*
X114051Y333274D01*
X113993Y333282D01*
X113918Y333307D01*
X113843Y333324D01*
X113651Y333382D01*
X113451Y333441D01*
X113243Y333516D01*
X113060Y333582D01*
X112976Y333624D01*
X112901Y333657D01*
X112893D01*
X112885Y333666D01*
X112860Y333682D01*
X112826Y333699D01*
X112743Y333749D01*
X112643Y333824D01*
X112535Y333907D01*
X112418Y334007D01*
X112310Y334124D01*
X112218Y334249D01*
Y334257D01*
X112210Y334266D01*
X112185Y334315D01*
X112151Y334382D01*
X112110Y334482D01*
X112068Y334599D01*
X112035Y334740D01*
X112010Y334890D01*
X112001Y335049D01*
Y335057D01*
Y335074D01*
Y335099D01*
X112010Y335132D01*
X112018Y335224D01*
X112035Y335349D01*
X112068Y335490D01*
X112118Y335640D01*
X112185Y335798D01*
X112276Y335957D01*
Y335965D01*
X112293Y335973D01*
X112326Y336023D01*
X112393Y336107D01*
X112476Y336198D01*
X112593Y336298D01*
X112726Y336407D01*
X112893Y336507D01*
X113076Y336598D01*
X113084D01*
X113101Y336607D01*
X113126Y336623D01*
X113168Y336632D01*
X113218Y336648D01*
X113276Y336673D01*
X113343Y336690D01*
X113418Y336715D01*
X113593Y336748D01*
X113793Y336790D01*
X114018Y336815D01*
X114251Y336823D01*
X114368D01*
X114434Y336815D01*
D02*
G37*
G36*
X123907Y330308D02*
X123082D01*
X121741Y335182D01*
Y335190D01*
X121732Y335207D01*
X121724Y335240D01*
X121716Y335282D01*
X121682Y335382D01*
X121649Y335507D01*
X121616Y335640D01*
X121582Y335765D01*
X121549Y335865D01*
X121541Y335907D01*
X121532Y335940D01*
Y335932D01*
X121524Y335923D01*
Y335898D01*
X121516Y335865D01*
X121499Y335782D01*
X121474Y335682D01*
X121441Y335565D01*
X121407Y335432D01*
X121374Y335307D01*
X121341Y335182D01*
X119991Y330308D01*
X119100D01*
X117425Y336715D01*
X118300D01*
X119266Y332508D01*
Y332499D01*
X119275Y332474D01*
X119283Y332441D01*
X119291Y332391D01*
X119308Y332333D01*
X119325Y332266D01*
X119341Y332183D01*
X119358Y332099D01*
X119400Y331899D01*
X119450Y331674D01*
X119491Y331441D01*
X119533Y331200D01*
Y331208D01*
X119541Y331241D01*
X119558Y331300D01*
X119574Y331366D01*
X119591Y331441D01*
X119616Y331533D01*
X119666Y331733D01*
X119716Y331941D01*
X119741Y332041D01*
X119758Y332133D01*
X119783Y332216D01*
X119799Y332283D01*
X119816Y332341D01*
X119824Y332383D01*
X121041Y336715D01*
X122066D01*
X122974Y333466D01*
X122982Y333449D01*
X122990Y333416D01*
X123007Y333349D01*
X123032Y333257D01*
X123057Y333157D01*
X123090Y333024D01*
X123132Y332882D01*
X123165Y332733D01*
X123207Y332558D01*
X123249Y332383D01*
X123290Y332191D01*
X123332Y331999D01*
X123415Y331600D01*
X123482Y331200D01*
Y331208D01*
X123490Y331225D01*
X123498Y331258D01*
X123507Y331308D01*
X123515Y331366D01*
X123532Y331433D01*
X123548Y331516D01*
X123565Y331600D01*
X123590Y331699D01*
X123615Y331808D01*
X123665Y332041D01*
X123732Y332308D01*
X123799Y332591D01*
X124806Y336715D01*
X125665D01*
X123907Y330308D01*
D02*
G37*
G36*
X129097D02*
X128314D01*
Y335315D01*
X128297Y335307D01*
X128264Y335274D01*
X128197Y335215D01*
X128114Y335149D01*
X128006Y335065D01*
X127872Y334974D01*
X127731Y334874D01*
X127564Y334774D01*
X127556D01*
X127548Y334765D01*
X127522Y334749D01*
X127489Y334732D01*
X127397Y334682D01*
X127289Y334624D01*
X127164Y334557D01*
X127023Y334490D01*
X126881Y334424D01*
X126739Y334366D01*
Y335132D01*
X126748D01*
X126773Y335149D01*
X126806Y335165D01*
X126848Y335190D01*
X126906Y335215D01*
X126973Y335257D01*
X127131Y335340D01*
X127306Y335448D01*
X127506Y335582D01*
X127697Y335723D01*
X127889Y335882D01*
X127897Y335890D01*
X127914Y335898D01*
X127939Y335923D01*
X127972Y335957D01*
X128056Y336040D01*
X128164Y336157D01*
X128272Y336282D01*
X128389Y336432D01*
X128497Y336582D01*
X128589Y336740D01*
X129097D01*
Y330308D01*
D02*
G37*
%LPC*%
G36*
X101606Y99480D02*
X99482D01*
Y97522D01*
X99490Y97464D01*
X99498Y97331D01*
X99507Y97189D01*
X99532Y97031D01*
X99557Y96889D01*
X99598Y96756D01*
X99607Y96739D01*
X99623Y96698D01*
X99648Y96639D01*
X99690Y96564D01*
X99740Y96489D01*
X99807Y96406D01*
X99890Y96323D01*
X99981Y96256D01*
X99990Y96248D01*
X100031Y96231D01*
X100082Y96198D01*
X100156Y96164D01*
X100240Y96139D01*
X100340Y96106D01*
X100440Y96089D01*
X100556Y96081D01*
X100565D01*
X100573D01*
X100598D01*
X100631Y96089D01*
X100715Y96098D01*
X100823Y96123D01*
X100940Y96164D01*
X101065Y96223D01*
X101189Y96306D01*
X101306Y96414D01*
X101323Y96431D01*
X101356Y96481D01*
X101398Y96556D01*
X101456Y96673D01*
X101481Y96739D01*
X101515Y96814D01*
X101539Y96897D01*
X101556Y96997D01*
X101581Y97098D01*
X101589Y97206D01*
X101606Y97331D01*
Y99480D01*
D02*
G37*
G36*
X70894Y119000D02*
X70885D01*
X70877D01*
X70852D01*
X70819Y118992D01*
X70735Y118984D01*
X70627Y118959D01*
X70510Y118917D01*
X70385Y118859D01*
X70261Y118775D01*
X70144Y118667D01*
X70127Y118650D01*
X70094Y118600D01*
X70052Y118525D01*
X69994Y118409D01*
X69969Y118342D01*
X69935Y118267D01*
X69911Y118184D01*
X69894Y118084D01*
X69869Y117984D01*
X69861Y117875D01*
X69844Y117751D01*
Y115601D01*
X71968D01*
Y117559D01*
X71960Y117617D01*
X71952Y117751D01*
X71943Y117892D01*
X71918Y118050D01*
X71893Y118192D01*
X71852Y118325D01*
X71843Y118342D01*
X71827Y118384D01*
X71802Y118442D01*
X71760Y118517D01*
X71710Y118592D01*
X71643Y118675D01*
X71560Y118759D01*
X71469Y118825D01*
X71460Y118834D01*
X71418Y118850D01*
X71368Y118884D01*
X71294Y118917D01*
X71210Y118942D01*
X71110Y118975D01*
X71010Y118992D01*
X70894Y119000D01*
D02*
G37*
G36*
X71019Y104337D02*
X71010D01*
X71002D01*
X70952D01*
X70877Y104329D01*
X70785Y104312D01*
X70677Y104287D01*
X70560Y104246D01*
X70444Y104196D01*
X70335Y104129D01*
X70319Y104121D01*
X70286Y104096D01*
X70236Y104046D01*
X70177Y103987D01*
X70111Y103912D01*
X70052Y103821D01*
X69994Y103713D01*
X69952Y103596D01*
Y103588D01*
X69944Y103554D01*
X69935Y103496D01*
X69919Y103421D01*
X69911Y103313D01*
X69902Y103179D01*
X69894Y103013D01*
Y101180D01*
X72185D01*
Y102904D01*
X72177Y102963D01*
Y103029D01*
X72168Y103104D01*
X72143Y103279D01*
X72110Y103471D01*
X72060Y103663D01*
X71985Y103837D01*
X71935Y103921D01*
X71885Y103987D01*
X71868Y104004D01*
X71827Y104046D01*
X71760Y104096D01*
X71660Y104162D01*
X71535Y104229D01*
X71385Y104279D01*
X71219Y104321D01*
X71019Y104337D01*
D02*
G37*
G36*
X172676Y131230D02*
X167786D01*
Y129706D01*
X167794Y129647D01*
X167802Y129506D01*
X167811Y129347D01*
X167836Y129181D01*
X167861Y129014D01*
X167902Y128872D01*
Y128864D01*
X167911Y128856D01*
X167927Y128814D01*
X167952Y128748D01*
X167986Y128664D01*
X168036Y128573D01*
X168086Y128481D01*
X168152Y128381D01*
X168227Y128298D01*
X168244Y128281D01*
X168286Y128248D01*
X168352Y128198D01*
X168444Y128123D01*
X168561Y128048D01*
X168702Y127973D01*
X168860Y127898D01*
X169044Y127831D01*
X169052D01*
X169069Y127823D01*
X169094Y127814D01*
X169135Y127806D01*
X169185Y127789D01*
X169244Y127773D01*
X169310Y127756D01*
X169385Y127739D01*
X169477Y127731D01*
X169569Y127715D01*
X169777Y127681D01*
X170019Y127664D01*
X170277Y127656D01*
X170285D01*
X170318D01*
X170377D01*
X170443Y127664D01*
X170527D01*
X170618Y127673D01*
X170727Y127681D01*
X170843Y127698D01*
X171093Y127739D01*
X171351Y127798D01*
X171593Y127881D01*
X171710Y127931D01*
X171818Y127989D01*
X171826D01*
X171843Y128006D01*
X171868Y128023D01*
X171910Y128048D01*
X172001Y128123D01*
X172110Y128214D01*
X172235Y128331D01*
X172351Y128464D01*
X172460Y128623D01*
X172501Y128706D01*
X172543Y128789D01*
X172551Y128806D01*
X172560Y128822D01*
X172568Y128856D01*
X172576Y128889D01*
X172584Y128939D01*
X172601Y128989D01*
X172610Y129056D01*
X172626Y129122D01*
X172635Y129206D01*
X172643Y129297D01*
X172659Y129397D01*
X172668Y129506D01*
Y129622D01*
X172676Y129747D01*
Y131230D01*
D02*
G37*
%LPD*%
D12*
X66220Y63710D02*
X152220D01*
Y4410D02*
Y63710D01*
X66220Y4410D02*
X152220D01*
X66220D02*
Y63710D01*
X62130Y33990D02*
Y59990D01*
X49630Y33990D02*
X62130D01*
X49630D02*
Y59990D01*
X62130D01*
X103540Y87080D02*
Y113580D01*
X92040Y87080D02*
X103540D01*
X92040D02*
Y113580D01*
X103540D01*
X68088Y87830D02*
Y112830D01*
X79232D01*
Y87830D02*
Y112830D01*
X68088Y87830D02*
X79232D01*
X180181Y20619D02*
Y63201D01*
X155099Y20619D02*
X180181D01*
X155099D02*
Y63201D01*
X180181D01*
X126400Y87080D02*
Y113580D01*
X114900Y87080D02*
X126400D01*
X114900D02*
Y113580D01*
X126400D01*
X137938Y87830D02*
Y112830D01*
X149082D01*
Y87830D02*
Y112830D01*
X137938Y87830D02*
X149082D01*
X176910Y114580D02*
Y149580D01*
X160910Y114580D02*
X176910D01*
X160910D02*
Y149580D01*
X176910D01*
X84760Y347200D02*
X138760D01*
Y313200D02*
Y347200D01*
X84760Y313200D02*
X138760D01*
X84760D02*
Y347200D01*
D58*
X114220Y276800D02*
G03*
X114220Y276800I-5000J0D01*
G01*
X147950Y365760D02*
Y416560D01*
X67950Y365760D02*
X147950D01*
X67950D02*
Y416560D01*
X147950D01*
X66910Y131240D02*
Y153240D01*
X80410Y131240D02*
Y153240D01*
X66910Y131240D02*
X80410D01*
X66910Y153240D02*
X80410D01*
X104540Y131240D02*
Y153240D01*
X91040Y131240D02*
Y153240D01*
X104540D01*
X91040Y131240D02*
X104540D01*
X59723Y240030D02*
X109220Y289527D01*
Y190532D02*
X158717Y240030D01*
X109220Y289527D02*
X158717Y240030D01*
X59723D02*
X109220Y190532D01*
X127400Y131240D02*
Y153240D01*
X113900Y131240D02*
Y153240D01*
X127400D01*
X113900Y131240D02*
X127400D01*
X136760Y131240D02*
Y153240D01*
X150260Y131240D02*
Y153240D01*
X136760Y131240D02*
X150260D01*
X136760Y153240D02*
X150260D01*
X169720Y102020D02*
X175720D01*
X169720Y91020D02*
X175720D01*
Y102020D01*
X169720Y91020D02*
Y102020D01*
X157015Y308461D02*
X172571Y292905D01*
X147469Y298915D02*
X163025Y283359D01*
X147469Y298915D02*
X157015Y308461D01*
X163025Y283359D02*
X172571Y292905D01*
X51130Y370980D02*
X60630D01*
X51130Y388480D02*
X60630D01*
X51130Y370980D02*
Y388480D01*
X60630Y370980D02*
Y388480D01*
X161788Y202860D02*
X166030Y198618D01*
X154010Y195082D02*
X158252Y190840D01*
X166030Y198618D01*
X154010Y195082D02*
X161788Y202860D01*
M02*
