G04*
G04 #@! TF.GenerationSoftware,Altium Limited,Altium Designer,26.9.1 (10)*
G04*
G04 Layer_Physical_Order=1*
G04 Layer_Color=255*
G04 Board_Origin=34100000|22900000*
%FSLAX44Y44*%
%MOMM*%
G71*
G04*
G04 #@! TF.SameCoordinates,422ACB3C-2A18-4883-AF2F-CBEBC1C0E268*
G04*
G04*
G04 #@! TF.FilePolarity,Positive*
G04*
G01*
G75*
%ADD17R,1.6500X1.3000*%
%ADD18R,1.8000X1.9000*%
%ADD19R,1.0000X1.9000*%
%ADD20R,1.4250X1.5500*%
%ADD21R,0.4500X1.3800*%
%ADD22R,1.0000X0.7000*%
%ADD23R,0.8000X0.8000*%
G04:AMPARAMS|DCode=24|XSize=1.025mm|YSize=1.35mm|CornerRadius=0.1281mm|HoleSize=0mm|Usage=FLASHONLY|Rotation=270.000|XOffset=0mm|YOffset=0mm|HoleType=Round|Shape=RoundedRectangle|*
%AMROUNDEDRECTD24*
21,1,1.0250,1.0938,0,0,270.0*
21,1,0.7688,1.3500,0,0,270.0*
1,1,0.2563,-0.5469,-0.3844*
1,1,0.2563,-0.5469,0.3844*
1,1,0.2563,0.5469,0.3844*
1,1,0.2563,0.5469,-0.3844*
%
%ADD24ROUNDEDRECTD24*%
G04:AMPARAMS|DCode=25|XSize=0.6mm|YSize=1.95mm|CornerRadius=0mm|HoleSize=0mm|Usage=FLASHONLY|Rotation=45.000|XOffset=0mm|YOffset=0mm|HoleType=Round|Shape=Round|*
%AMOVALD25*
21,1,1.3500,0.6000,0.0000,0.0000,135.0*
1,1,0.6000,0.4773,-0.4773*
1,1,0.6000,-0.4773,0.4773*
%
%ADD25OVALD25*%

G04:AMPARAMS|DCode=26|XSize=0.6mm|YSize=1.95mm|CornerRadius=0mm|HoleSize=0mm|Usage=FLASHONLY|Rotation=315.000|XOffset=0mm|YOffset=0mm|HoleType=Round|Shape=Round|*
%AMOVALD26*
21,1,1.3500,0.6000,0.0000,0.0000,45.0*
1,1,0.6000,-0.4773,-0.4773*
1,1,0.6000,0.4773,0.4773*
%
%ADD26OVALD26*%

%ADD27R,1.5082X1.4057*%
%ADD28R,1.1000X2.0000*%
G04:AMPARAMS|DCode=29|XSize=0.55mm|YSize=0.5mm|CornerRadius=0.0625mm|HoleSize=0mm|Usage=FLASHONLY|Rotation=0.000|XOffset=0mm|YOffset=0mm|HoleType=Round|Shape=RoundedRectangle|*
%AMROUNDEDRECTD29*
21,1,0.5500,0.3750,0,0,0.0*
21,1,0.4250,0.5000,0,0,0.0*
1,1,0.1250,0.2125,-0.1875*
1,1,0.1250,-0.2125,-0.1875*
1,1,0.1250,-0.2125,0.1875*
1,1,0.1250,0.2125,0.1875*
%
%ADD29ROUNDEDRECTD29*%
G04:AMPARAMS|DCode=30|XSize=1.025mm|YSize=1.35mm|CornerRadius=0.1281mm|HoleSize=0mm|Usage=FLASHONLY|Rotation=135.000|XOffset=0mm|YOffset=0mm|HoleType=Round|Shape=RoundedRectangle|*
%AMROUNDEDRECTD30*
21,1,1.0250,1.0938,0,0,135.0*
21,1,0.7688,1.3500,0,0,135.0*
1,1,0.2563,0.1149,0.6585*
1,1,0.2563,0.6585,0.1149*
1,1,0.2563,-0.1149,-0.6585*
1,1,0.2563,-0.6585,-0.1149*
%
%ADD30ROUNDEDRECTD30*%
%ADD31R,1.0500X0.6500*%
%ADD32R,1.1000X1.0000*%
G04:AMPARAMS|DCode=33|XSize=0.55mm|YSize=0.5mm|CornerRadius=0.0625mm|HoleSize=0mm|Usage=FLASHONLY|Rotation=315.000|XOffset=0mm|YOffset=0mm|HoleType=Round|Shape=RoundedRectangle|*
%AMROUNDEDRECTD33*
21,1,0.5500,0.3750,0,0,315.0*
21,1,0.4250,0.5000,0,0,315.0*
1,1,0.1250,0.0177,-0.2828*
1,1,0.1250,-0.2828,0.0177*
1,1,0.1250,-0.0177,0.2828*
1,1,0.1250,0.2828,-0.0177*
%
%ADD33ROUNDEDRECTD33*%
%ADD34R,1.5500X1.5500*%
%ADD35C,1.5500*%
%ADD36C,1.5700*%
%ADD37R,1.5700X1.5700*%
%ADD38C,0.8000*%
%ADD39C,0.6000*%
%ADD40C,0.2540*%
%ADD41C,0.3810*%
%ADD42C,0.3000*%
G36*
X44205Y410598D02*
X42298Y408590D01*
X41986D01*
X39781Y407677D01*
X38093Y405989D01*
X37180Y403783D01*
Y401396D01*
X38093Y399191D01*
X39781Y397503D01*
X40000Y397413D01*
Y392898D01*
X39613Y392299D01*
X37771Y390722D01*
X37477Y390615D01*
X37132Y390684D01*
X30170D01*
Y397200D01*
X10470D01*
Y377500D01*
X30170D01*
Y384016D01*
X35751D01*
X37306Y382461D01*
Y355600D01*
X37560Y354324D01*
X38282Y353242D01*
X51924Y339601D01*
X51472Y336167D01*
X51172Y335867D01*
X48631Y335235D01*
X47280Y335895D01*
X44268Y338908D01*
X43186Y339630D01*
X41910Y339884D01*
X29624D01*
X29499Y340352D01*
X28202Y342598D01*
X26368Y344432D01*
X24122Y345729D01*
X21617Y346400D01*
X19023D01*
X16518Y345729D01*
X14272Y344432D01*
X12438Y342598D01*
X11141Y340352D01*
X10470Y337847D01*
Y335253D01*
X11141Y332748D01*
X12438Y330502D01*
X14272Y328668D01*
X16518Y327371D01*
X19023Y326700D01*
X21617D01*
X24122Y327371D01*
X26368Y328668D01*
X28202Y330502D01*
X28894Y331701D01*
X30657Y331871D01*
X32414Y329265D01*
X32449Y329076D01*
X32170Y328401D01*
Y326014D01*
X33083Y323809D01*
X34188Y322704D01*
Y315409D01*
X33911Y315131D01*
X29395D01*
X28202Y317198D01*
X26368Y319032D01*
X24122Y320329D01*
X21617Y321000D01*
X19023D01*
X16518Y320329D01*
X14272Y319032D01*
X12438Y317198D01*
X11141Y314952D01*
X10470Y312447D01*
Y309853D01*
X11141Y307348D01*
X12438Y305102D01*
X14272Y303268D01*
X16518Y301971D01*
X19023Y301300D01*
X21617D01*
X24122Y301971D01*
X26368Y303268D01*
X28202Y305102D01*
X29395Y307169D01*
X35560D01*
X37084Y307472D01*
X38375Y308335D01*
X39471Y309430D01*
X42578Y308620D01*
X42739Y308456D01*
X42823Y308329D01*
X42894Y307727D01*
X42546Y305655D01*
X42092Y304618D01*
X39553Y302078D01*
X38830Y300996D01*
X38576Y299720D01*
Y262414D01*
X29964D01*
X29499Y264152D01*
X28202Y266398D01*
X26368Y268232D01*
X24122Y269529D01*
X21617Y270200D01*
X19023D01*
X16518Y269529D01*
X14272Y268232D01*
X12438Y266398D01*
X11141Y264152D01*
X10470Y261647D01*
Y259053D01*
X11141Y256548D01*
X12438Y254302D01*
X14272Y252468D01*
X16518Y251171D01*
X19023Y250500D01*
X21617D01*
X24122Y251171D01*
X26368Y252468D01*
X28202Y254302D01*
X29036Y255746D01*
X40422D01*
X40656Y255793D01*
X43173Y254267D01*
X43656Y253700D01*
Y237601D01*
X43069Y237014D01*
X29964D01*
X29499Y238752D01*
X28202Y240998D01*
X26368Y242832D01*
X24122Y244129D01*
X21617Y244800D01*
X19023D01*
X16518Y244129D01*
X14272Y242832D01*
X12438Y240998D01*
X11141Y238752D01*
X10470Y236247D01*
Y233653D01*
X11141Y231148D01*
X12438Y228902D01*
X14272Y227068D01*
X16518Y225771D01*
X19023Y225100D01*
X21617D01*
X24122Y225771D01*
X26368Y227068D01*
X28202Y228902D01*
X29036Y230346D01*
X44450D01*
X45726Y230600D01*
X46807Y231322D01*
X49348Y233862D01*
X50070Y234944D01*
X50324Y236220D01*
Y247876D01*
X53324Y249118D01*
X60537Y241905D01*
X60708Y241791D01*
Y238269D01*
X60537Y238155D01*
X50991Y228609D01*
X49886Y226955D01*
X49498Y225004D01*
X49562Y224685D01*
X37761Y212884D01*
X29624D01*
X29499Y213352D01*
X28202Y215598D01*
X26368Y217432D01*
X24122Y218729D01*
X21617Y219400D01*
X19023D01*
X16518Y218729D01*
X14272Y217432D01*
X12438Y215598D01*
X11141Y213352D01*
X10470Y210847D01*
Y208253D01*
X11141Y205748D01*
X12438Y203502D01*
X14272Y201668D01*
X16518Y200371D01*
X19023Y199700D01*
X21617D01*
X24122Y200371D01*
X26368Y201668D01*
X28202Y203502D01*
X29499Y205748D01*
X29624Y206216D01*
X38164D01*
X39465Y203656D01*
X39508Y203317D01*
X27295Y191105D01*
X26368Y192032D01*
X24122Y193329D01*
X21617Y194000D01*
X19023D01*
X16518Y193329D01*
X14272Y192032D01*
X12438Y190198D01*
X11141Y187952D01*
X10470Y185447D01*
Y182853D01*
X11141Y180348D01*
X12438Y178102D01*
X14272Y176268D01*
X16518Y174971D01*
X17991Y174577D01*
X19363Y172031D01*
X19436Y171542D01*
X19023Y168600D01*
X16518Y167929D01*
X14272Y166632D01*
X12438Y164798D01*
X11141Y162552D01*
X10470Y160047D01*
Y157453D01*
X11141Y154948D01*
X12438Y152702D01*
X14272Y150868D01*
X16518Y149571D01*
X17727Y149247D01*
X17776Y149206D01*
X19124Y146490D01*
X19149Y145900D01*
X18972Y145010D01*
Y143186D01*
X16518Y142529D01*
X14272Y141232D01*
X12438Y139398D01*
X11141Y137152D01*
X10470Y134647D01*
Y132053D01*
X11141Y129548D01*
X12438Y127302D01*
X14272Y125468D01*
X16518Y124171D01*
X19023Y123500D01*
X21617D01*
X24122Y124171D01*
X26368Y125468D01*
X28202Y127302D01*
X29499Y129548D01*
X30170Y132053D01*
Y134647D01*
X29499Y137152D01*
X28202Y139398D01*
X26368Y141232D01*
X26364Y144353D01*
X30724Y148713D01*
X33496Y147565D01*
Y125841D01*
X24541Y116887D01*
X24122Y117129D01*
X21617Y117800D01*
X19023D01*
X16518Y117129D01*
X14272Y115832D01*
X12438Y113998D01*
X11141Y111752D01*
X10470Y109247D01*
Y106653D01*
X11141Y104148D01*
X12438Y101902D01*
X14272Y100068D01*
X16518Y98771D01*
X19023Y98100D01*
X21617D01*
X24122Y98771D01*
X26368Y100068D01*
X28202Y101902D01*
X29499Y104148D01*
X30170Y106653D01*
Y109247D01*
X29499Y111752D01*
X29256Y112171D01*
X35804Y118719D01*
X38576Y117571D01*
Y105521D01*
X24541Y91487D01*
X24122Y91729D01*
X21617Y92400D01*
X19023D01*
X16518Y91729D01*
X14272Y90432D01*
X12438Y88598D01*
X11141Y86352D01*
X10470Y83847D01*
Y81253D01*
X11141Y78748D01*
X12438Y76502D01*
X14272Y74668D01*
X16518Y73371D01*
X19023Y72700D01*
X21617D01*
X24122Y73371D01*
X26368Y74668D01*
X28202Y76502D01*
X29499Y78748D01*
X30170Y81253D01*
Y83847D01*
X29499Y86352D01*
X29256Y86771D01*
X40344Y97859D01*
X43116Y96711D01*
Y84661D01*
X24541Y66087D01*
X24122Y66329D01*
X21617Y67000D01*
X19023D01*
X16518Y66329D01*
X14272Y65032D01*
X12438Y63198D01*
X12382Y63100D01*
X9378Y62641D01*
X7144Y64649D01*
Y283188D01*
X10144Y283583D01*
X10638Y281740D01*
X12006Y279370D01*
X13940Y277436D01*
X16310Y276068D01*
X18952Y275360D01*
X19050D01*
Y285750D01*
Y296140D01*
X18952D01*
X16310Y295432D01*
X13940Y294064D01*
X12006Y292130D01*
X10638Y289760D01*
X10144Y287917D01*
X7144Y288312D01*
Y410099D01*
X10366Y413321D01*
X43125D01*
X44205Y410598D01*
D02*
G37*
G36*
X73651Y390264D02*
X72800Y388210D01*
X72800D01*
Y368710D01*
X81043D01*
X81743Y367839D01*
X82665Y365710D01*
X82160Y364490D01*
X93100D01*
X92552Y365814D01*
X92300Y368710D01*
X92300D01*
Y384939D01*
X92450Y385207D01*
X95250Y387178D01*
X98637D01*
X99684Y385286D01*
X99993Y384179D01*
X98864Y382223D01*
X98200Y379744D01*
Y377176D01*
X98864Y374697D01*
X100148Y372473D01*
X101963Y370658D01*
X104187Y369375D01*
X106666Y368710D01*
X109234D01*
X111713Y369375D01*
X113937Y370658D01*
X115752Y372473D01*
X117036Y374697D01*
X117700Y377176D01*
Y379744D01*
X117036Y382223D01*
X115907Y384179D01*
X116216Y385286D01*
X117263Y387178D01*
X124037D01*
X125084Y385286D01*
X125393Y384179D01*
X124264Y382223D01*
X123600Y379744D01*
Y377176D01*
X124264Y374697D01*
X125548Y372473D01*
X127363Y370658D01*
X129587Y369375D01*
X130016Y369259D01*
Y346200D01*
X125260D01*
Y335818D01*
X123055Y333780D01*
X123008Y333828D01*
X121926Y334550D01*
X120650Y334804D01*
X100889D01*
X98260Y335700D01*
X98260Y337804D01*
Y346200D01*
X83760D01*
X83760Y335700D01*
X81131Y334804D01*
X66151D01*
X43974Y356981D01*
Y382142D01*
X46717Y384083D01*
X48380Y383211D01*
Y380020D01*
X47840D01*
Y373750D01*
X55880D01*
X63920D01*
Y380020D01*
X63380D01*
Y393980D01*
X65773Y395446D01*
X68469D01*
X73651Y390264D01*
D02*
G37*
G36*
X150558Y382291D02*
Y342179D01*
X149574Y341445D01*
X147558Y340603D01*
X145924Y341280D01*
X143537D01*
X142760Y340958D01*
X139760Y342715D01*
Y346200D01*
X136684D01*
Y369259D01*
X137113Y369375D01*
X139337Y370658D01*
X141152Y372473D01*
X142436Y374697D01*
X143100Y377176D01*
Y379744D01*
X142436Y382223D01*
X141307Y384179D01*
X141616Y385286D01*
X142663Y387178D01*
X145671D01*
X150558Y382291D01*
D02*
G37*
G36*
X52087Y318794D02*
X53954Y316927D01*
X55112Y316153D01*
X56477Y315881D01*
X81313D01*
X82710Y313674D01*
X81532Y310674D01*
X49641D01*
X49054Y311261D01*
Y317933D01*
X52054Y318843D01*
X52087Y318794D01*
D02*
G37*
G36*
X130270Y335492D02*
X130992Y334410D01*
X132480Y332923D01*
X133562Y332200D01*
X134838Y331946D01*
X139617D01*
X139643Y331881D01*
X141331Y330193D01*
X143537Y329280D01*
X145924D01*
X147558Y329957D01*
X149574Y329115D01*
X150558Y328381D01*
Y309874D01*
X144440Y303756D01*
X144279Y303514D01*
X141470Y302809D01*
X140693Y302857D01*
X132122Y311428D01*
X133270Y314200D01*
X139760D01*
Y324700D01*
X127324D01*
Y328130D01*
X127070Y329406D01*
X126348Y330488D01*
X123340Y333495D01*
X125378Y335700D01*
X130228D01*
X130270Y335492D01*
D02*
G37*
G36*
X120656Y326749D02*
Y314846D01*
X120910Y313570D01*
X121632Y312488D01*
X121793Y312327D01*
X121090Y308788D01*
X121061Y308776D01*
X119373Y307089D01*
X118460Y304883D01*
Y302496D01*
X119373Y300291D01*
X117676Y297343D01*
X116726D01*
X104372Y309697D01*
X103290Y310420D01*
X102014Y310674D01*
X98834D01*
X98800Y313660D01*
X98800D01*
Y318180D01*
X91010D01*
Y320720D01*
X98800D01*
Y325240D01*
X98800D01*
X99051Y328136D01*
X119269D01*
X120656Y326749D01*
D02*
G37*
G36*
X190802Y303268D02*
X193048Y301971D01*
X195553Y301300D01*
X198147D01*
X200652Y301971D01*
X202898Y303268D01*
X203216Y303586D01*
X206216Y302343D01*
Y294557D01*
X203216Y293314D01*
X202898Y293632D01*
X200652Y294929D01*
X198147Y295600D01*
X195553D01*
X193048Y294929D01*
X190802Y293632D01*
X188968Y291798D01*
X188956Y291777D01*
X186110Y292848D01*
X186214Y293370D01*
Y303872D01*
X188137Y304731D01*
X189214Y304856D01*
X190802Y303268D01*
D02*
G37*
G36*
X81122Y291698D02*
X80930Y290202D01*
X80299Y288278D01*
X79963Y288054D01*
X88551Y279465D01*
X86755Y277669D01*
X78167Y286258D01*
X77662Y285502D01*
X76576Y283352D01*
X74914Y283382D01*
X69175D01*
X67651Y283078D01*
X66360Y282215D01*
X60685Y276541D01*
X59822Y275249D01*
X59518Y273725D01*
Y269372D01*
X59643Y268748D01*
X58959Y266472D01*
X58822Y266253D01*
X57979Y265207D01*
X56648Y264318D01*
X55543Y262664D01*
X55237Y261854D01*
X52992Y261021D01*
X50324Y262893D01*
Y293259D01*
X50911Y293846D01*
X78973D01*
X81122Y291698D01*
D02*
G37*
G36*
X187671Y289552D02*
X187000Y287047D01*
Y284453D01*
X187671Y281948D01*
X188968Y279702D01*
X190802Y277868D01*
X193048Y276571D01*
X195553Y275900D01*
X198147D01*
X200652Y276571D01*
X202898Y277868D01*
X203216Y278186D01*
X206216Y276943D01*
Y269157D01*
X203216Y267914D01*
X202898Y268232D01*
X200652Y269529D01*
X198147Y270200D01*
X195553D01*
X193048Y269529D01*
X192628Y269286D01*
X186507Y275408D01*
X185426Y276130D01*
X184150Y276384D01*
X174529D01*
X173381Y279156D01*
X185238Y291012D01*
X187671Y289552D01*
D02*
G37*
G36*
X111095Y281503D02*
X112749Y280398D01*
X114853Y279604D01*
X115647Y277500D01*
X116752Y275846D01*
X118406Y274741D01*
X120510Y273948D01*
X121304Y271843D01*
X122409Y270190D01*
X124063Y269084D01*
X126167Y268291D01*
X126961Y266187D01*
X128066Y264533D01*
X129720Y263428D01*
X131824Y262634D01*
X132618Y260530D01*
X133723Y258876D01*
X135377Y257771D01*
X136728Y257261D01*
X137132Y255749D01*
X134604Y253744D01*
X133350Y254080D01*
Y248920D01*
X138510D01*
X138174Y250174D01*
X137947Y250568D01*
X140195Y252674D01*
X141033Y252114D01*
X143138Y251320D01*
X143931Y249216D01*
X145036Y247562D01*
X146690Y246457D01*
X148794Y245663D01*
X149588Y243559D01*
X150693Y241905D01*
X150865Y241791D01*
Y238269D01*
X150693Y238155D01*
X149588Y236501D01*
X148794Y234397D01*
X146690Y233603D01*
X145036Y232498D01*
X143931Y230844D01*
X143138Y228740D01*
X141033Y227946D01*
X139380Y226841D01*
X138649Y225747D01*
X135858Y226161D01*
X135649Y226246D01*
Y242159D01*
X136096Y242417D01*
X137313Y243634D01*
X138174Y245126D01*
X138510Y246380D01*
X132080D01*
Y247650D01*
X130810D01*
Y254080D01*
X130367Y253962D01*
X130346Y253983D01*
X129188Y254757D01*
X127823Y255029D01*
X123399D01*
X121276Y257175D01*
X115570D01*
Y259715D01*
X121040D01*
X120267Y261583D01*
X119139Y262711D01*
Y265430D01*
X118867Y266796D01*
X118093Y267953D01*
X115553Y270493D01*
X114396Y271267D01*
X113030Y271539D01*
X102622D01*
X102095Y271800D01*
X100319Y274539D01*
X100474Y275036D01*
X101688Y275846D01*
X102793Y277500D01*
X103587Y279604D01*
X105691Y280398D01*
X107345Y281503D01*
X107459Y281675D01*
X110981D01*
X111095Y281503D01*
D02*
G37*
G36*
X190802Y252468D02*
X193048Y251171D01*
X195553Y250500D01*
X198147D01*
X200652Y251171D01*
X202898Y252468D01*
X203216Y252786D01*
X206216Y251543D01*
Y243757D01*
X203216Y242514D01*
X202898Y242832D01*
X200652Y244129D01*
X198147Y244800D01*
X195553D01*
X193048Y244129D01*
X190802Y242832D01*
X189214Y241244D01*
X188137Y241369D01*
X186214Y242228D01*
Y253072D01*
X188137Y253931D01*
X189214Y254056D01*
X190802Y252468D01*
D02*
G37*
G36*
X104657Y240356D02*
X104490Y239953D01*
Y237567D01*
X105403Y235361D01*
X106509Y234256D01*
Y210476D01*
X106812Y208952D01*
X107675Y207660D01*
X112637Y202698D01*
X112667Y201872D01*
X111959Y199134D01*
X111095Y198557D01*
X110981Y198385D01*
X107459D01*
X107345Y198557D01*
X105691Y199662D01*
X103587Y200456D01*
X102793Y202560D01*
X101688Y204214D01*
X100034Y205319D01*
X97930Y206113D01*
X97136Y208217D01*
X96031Y209870D01*
X94377Y210975D01*
X92273Y211769D01*
X91479Y213873D01*
X90374Y215527D01*
X88720Y216632D01*
X86616Y217426D01*
X85822Y219530D01*
X84717Y221184D01*
X83063Y222289D01*
X80959Y223083D01*
X80166Y225187D01*
X79060Y226841D01*
X77632Y227795D01*
X77575Y228147D01*
X78664Y231147D01*
X80869Y232060D01*
X82557Y233748D01*
X83470Y235953D01*
Y238340D01*
X82557Y240545D01*
X83989Y243356D01*
X102681D01*
X104657Y240356D01*
D02*
G37*
G36*
X174466Y256429D02*
Y228600D01*
X174720Y227324D01*
X175443Y226242D01*
X187913Y213771D01*
X187671Y213352D01*
X187000Y210847D01*
Y208253D01*
X187671Y205748D01*
X188968Y203502D01*
X190802Y201668D01*
X193048Y200371D01*
X195553Y199700D01*
X198147D01*
X200652Y200371D01*
X202898Y201668D01*
X203216Y201986D01*
X206216Y200743D01*
Y192957D01*
X203216Y191714D01*
X202898Y192032D01*
X200652Y193329D01*
X198147Y194000D01*
X195553D01*
X193048Y193329D01*
X190802Y192032D01*
X189214Y190444D01*
X188137Y190569D01*
X186214Y191428D01*
Y195542D01*
X185960Y196818D01*
X185238Y197899D01*
X173174Y209963D01*
X173620Y213395D01*
X175308Y215083D01*
X176222Y217288D01*
Y219675D01*
X175308Y221880D01*
X173620Y223568D01*
X171415Y224482D01*
X168942Y225004D01*
X168554Y226955D01*
X167449Y228609D01*
X157903Y238155D01*
X157732Y238269D01*
Y241791D01*
X157903Y241905D01*
X167449Y251451D01*
X168554Y253105D01*
X168942Y255056D01*
X171116Y257016D01*
X173879D01*
X174466Y256429D01*
D02*
G37*
G36*
X122102Y172903D02*
X122116Y172889D01*
X135810Y159194D01*
X135676Y157824D01*
X134950Y156739D01*
X134696Y155459D01*
Y150390D01*
X132464Y148579D01*
X129464Y149290D01*
Y155459D01*
X129210Y156739D01*
X129064Y156957D01*
Y160020D01*
X128810Y161296D01*
X128088Y162378D01*
X125548Y164918D01*
X124466Y165640D01*
X123226Y165887D01*
X123197Y165959D01*
X121509Y167647D01*
X119304Y168560D01*
X116917D01*
X114711Y167647D01*
X114284Y167219D01*
X111584Y168338D01*
X111478Y171234D01*
X114284Y173108D01*
X114376Y173070D01*
X116763D01*
X118370Y173736D01*
X119433Y173823D01*
X122102Y172903D01*
D02*
G37*
G36*
X131992Y183343D02*
X135739Y179596D01*
X137030Y178733D01*
X138554Y178430D01*
X139603D01*
X139693Y178211D01*
X141381Y176523D01*
X143587Y175610D01*
X145974D01*
X148179Y176523D01*
X149867Y178211D01*
X150780Y180417D01*
Y181369D01*
X153421Y182689D01*
X155416Y181114D01*
Y153471D01*
X152416Y151868D01*
X152324Y151929D01*
Y155459D01*
X152070Y156739D01*
X151344Y157824D01*
X150259Y158550D01*
X148979Y158804D01*
X143992D01*
Y159062D01*
X143738Y160338D01*
X143015Y161420D01*
X127794Y176641D01*
Y181763D01*
X127851Y181801D01*
X128428Y182665D01*
X131166Y183373D01*
X131992Y183343D01*
D02*
G37*
G36*
X187913Y162971D02*
X187671Y162552D01*
X187000Y160047D01*
Y157453D01*
X187671Y154948D01*
X188968Y152702D01*
X190802Y150868D01*
X193048Y149571D01*
X195553Y148900D01*
X198147D01*
X200652Y149571D01*
X202898Y150868D01*
X203216Y151186D01*
X206216Y149943D01*
Y142157D01*
X203216Y140914D01*
X202898Y141232D01*
X200652Y142529D01*
X198147Y143200D01*
X195553D01*
X193048Y142529D01*
X190802Y141232D01*
X188968Y139398D01*
X187671Y137152D01*
X187000Y134647D01*
Y132053D01*
X187671Y129548D01*
X188968Y127302D01*
X190802Y125468D01*
X193048Y124171D01*
X195553Y123500D01*
X198147D01*
X200652Y124171D01*
X202898Y125468D01*
X203216Y125786D01*
X206216Y124543D01*
Y116757D01*
X203216Y115514D01*
X202898Y115832D01*
X200652Y117129D01*
X198147Y117800D01*
X195553D01*
X193048Y117129D01*
X190802Y115832D01*
X188968Y113998D01*
X185711Y113862D01*
X181134Y118439D01*
Y165831D01*
X183906Y166979D01*
X187913Y162971D01*
D02*
G37*
G36*
X65826Y126656D02*
X66911Y125930D01*
X68191Y125676D01*
X70326D01*
Y113830D01*
X67660D01*
Y101830D01*
X67660Y101830D01*
X67120Y99370D01*
X67120Y99370D01*
X67120Y99052D01*
Y94100D01*
X73660D01*
X80200D01*
Y94580D01*
X83200Y95491D01*
X83545Y94975D01*
X87884Y90636D01*
X89175Y89773D01*
X90699Y89470D01*
X91790D01*
Y86080D01*
X91790D01*
X93347Y83080D01*
X93121Y82534D01*
Y80147D01*
X94034Y77942D01*
X95722Y76254D01*
X95726Y76252D01*
Y71938D01*
X95482Y71542D01*
X93377Y70019D01*
X90219Y70606D01*
X90177Y70709D01*
X88489Y72397D01*
X86284Y73310D01*
X83897D01*
X81691Y72397D01*
X80003Y70709D01*
X79090Y68503D01*
Y66116D01*
X79656Y64750D01*
X78553Y62406D01*
X77922Y61750D01*
X74680D01*
X72149Y62881D01*
Y69439D01*
X72596Y69697D01*
X73813Y70914D01*
X74674Y72406D01*
X75010Y73660D01*
X68580D01*
Y76200D01*
X75010D01*
X74674Y77454D01*
X73813Y78946D01*
X72596Y80163D01*
X72149Y80421D01*
Y86290D01*
X72390D01*
Y91560D01*
X66521D01*
X66057Y91096D01*
X65283Y89938D01*
X65011Y88573D01*
Y80421D01*
X64564Y80163D01*
X63347Y78946D01*
X62486Y77454D01*
X62040Y75791D01*
X62040Y74069D01*
X59767Y73310D01*
X57561Y72397D01*
X57324Y72159D01*
X54324Y73402D01*
Y113755D01*
X57324Y115692D01*
X57425Y115650D01*
X59415D01*
X61252Y116411D01*
X62659Y117818D01*
X63420Y119655D01*
Y121645D01*
X62659Y123482D01*
X62401Y123740D01*
Y126791D01*
X63477Y127170D01*
X65402Y127290D01*
X65826Y126656D01*
D02*
G37*
G36*
X217170Y0D02*
X0D01*
Y57082D01*
X3000Y58325D01*
X6302Y55023D01*
X7384Y54300D01*
X8660Y54046D01*
X10954D01*
X11141Y53348D01*
X12438Y51102D01*
X14272Y49268D01*
X16518Y47971D01*
X17727Y47647D01*
X17776Y47606D01*
X19124Y44890D01*
X19149Y44300D01*
X18972Y43410D01*
Y41586D01*
X16518Y40929D01*
X14272Y39632D01*
X12438Y37798D01*
X11141Y35552D01*
X10470Y33047D01*
Y30453D01*
X11141Y27948D01*
X12438Y25702D01*
X14272Y23868D01*
X16518Y22571D01*
X19023Y21900D01*
X21617D01*
X24122Y22571D01*
X26368Y23868D01*
X28202Y25702D01*
X29499Y27948D01*
X30170Y30453D01*
Y33047D01*
X29499Y35552D01*
X28202Y37798D01*
X26368Y39632D01*
X26364Y42752D01*
X50021Y66410D01*
X53319Y65465D01*
X53518Y64607D01*
X53453Y64483D01*
X52800Y63506D01*
X52546Y62230D01*
Y60990D01*
X48880D01*
Y49990D01*
X62880D01*
Y52711D01*
X65880Y53621D01*
X66057Y53357D01*
X69867Y49547D01*
X71024Y48773D01*
X72390Y48501D01*
X74680D01*
Y42279D01*
X62880D01*
Y43990D01*
X48880D01*
Y32990D01*
X47011Y30764D01*
X46784Y30633D01*
X45567Y29416D01*
X44706Y27924D01*
X44488Y27111D01*
X42730Y25778D01*
X41260Y25314D01*
X40640Y25480D01*
Y19050D01*
Y12620D01*
X41894Y12956D01*
X43386Y13817D01*
X44603Y15034D01*
X45464Y16526D01*
X45682Y17339D01*
X47440Y18672D01*
X48910Y19136D01*
X49530Y18970D01*
Y25400D01*
X52070D01*
Y18970D01*
X53324Y19306D01*
X54816Y20167D01*
X56033Y21384D01*
X56291Y21831D01*
X64680D01*
Y16670D01*
X74200D01*
Y25710D01*
X76740D01*
Y16670D01*
X86180D01*
Y13670D01*
X96450D01*
Y25710D01*
X98990D01*
Y13670D01*
X109260D01*
Y22141D01*
X117180D01*
Y13670D01*
X123450D01*
Y25710D01*
X125990D01*
Y13670D01*
X132260D01*
Y16670D01*
X141700D01*
Y25710D01*
X144240D01*
Y16670D01*
X153760D01*
Y20561D01*
X159841D01*
X161207Y20833D01*
X162365Y21607D01*
X163837Y23079D01*
X166370D01*
Y32648D01*
X167640D01*
Y33918D01*
X177721D01*
Y42216D01*
X177181D01*
Y55667D01*
X181493Y59979D01*
X182267Y61137D01*
X182539Y62502D01*
Y95604D01*
X182267Y96969D01*
X181493Y98127D01*
X179077Y100543D01*
X179077Y100543D01*
X177521Y102099D01*
Y102895D01*
X177318Y103919D01*
X176737Y104788D01*
X176702Y104812D01*
Y109522D01*
X179473Y110670D01*
X182833Y107310D01*
X183914Y106588D01*
X185190Y106334D01*
X187085D01*
X187671Y104148D01*
X188968Y101902D01*
X190802Y100068D01*
X193048Y98771D01*
X195553Y98100D01*
X198147D01*
X200652Y98771D01*
X202898Y100068D01*
X203216Y100386D01*
X206216Y99143D01*
Y91357D01*
X203216Y90114D01*
X202898Y90432D01*
X200652Y91729D01*
X198147Y92400D01*
X195553D01*
X193048Y91729D01*
X190802Y90432D01*
X188968Y88598D01*
X187671Y86352D01*
X187000Y83847D01*
Y81253D01*
X187671Y78748D01*
X188968Y76502D01*
X190802Y74668D01*
X193048Y73371D01*
X195553Y72700D01*
X198147D01*
X200652Y73371D01*
X202898Y74668D01*
X203216Y74986D01*
X206216Y73743D01*
Y65957D01*
X203216Y64714D01*
X202898Y65032D01*
X200652Y66329D01*
X198147Y67000D01*
X195553D01*
X193048Y66329D01*
X190802Y65032D01*
X188968Y63198D01*
X187671Y60952D01*
X187000Y58447D01*
Y55853D01*
X187671Y53348D01*
X188968Y51102D01*
X190802Y49268D01*
X193048Y47971D01*
X195553Y47300D01*
X198147D01*
X200652Y47971D01*
X202898Y49268D01*
X203216Y49586D01*
X206216Y48343D01*
Y40557D01*
X203216Y39314D01*
X202898Y39632D01*
X200652Y40929D01*
X198147Y41600D01*
X195553D01*
X193048Y40929D01*
X190802Y39632D01*
X188968Y37798D01*
X187671Y35552D01*
X187000Y33047D01*
Y30453D01*
X187671Y27948D01*
X188968Y25702D01*
X190802Y23868D01*
X193048Y22571D01*
X195553Y21900D01*
X198147D01*
X200652Y22571D01*
X202898Y23868D01*
X204732Y25702D01*
X206029Y27948D01*
X206157Y28428D01*
X207022D01*
X208298Y28682D01*
X209380Y29404D01*
X211908Y31932D01*
X212630Y33014D01*
X212884Y34290D01*
Y406400D01*
X212630Y407676D01*
X211908Y408758D01*
X208097Y412567D01*
X207016Y413290D01*
X205740Y413544D01*
X189263D01*
X189237Y413609D01*
X187549Y415297D01*
X185343Y416210D01*
X182957D01*
X180751Y415297D01*
X179063Y413609D01*
X178723Y412786D01*
X175475D01*
X175041Y413834D01*
X173353Y415522D01*
X171148Y416435D01*
X168761D01*
X166556Y415522D01*
X164868Y413834D01*
X163955Y411629D01*
Y409242D01*
X164868Y407037D01*
X165309Y406596D01*
X165178Y404950D01*
X165057Y404717D01*
X162560Y403026D01*
Y396240D01*
Y389810D01*
X163814Y390146D01*
X163846Y390164D01*
X166846Y388461D01*
Y369185D01*
X164180Y367421D01*
Y360680D01*
Y353679D01*
X165634Y352038D01*
X165808Y349553D01*
X165093Y348839D01*
X164180Y346633D01*
Y344246D01*
X165093Y342041D01*
X166781Y340353D01*
X168986Y339440D01*
X171374D01*
X173579Y340353D01*
X175267Y342041D01*
X176180Y344246D01*
Y346633D01*
X175267Y348839D01*
X173579Y350527D01*
X173514Y350553D01*
Y405509D01*
X175041Y407037D01*
X175382Y407859D01*
X178629D01*
X179063Y406811D01*
X180751Y405123D01*
X182957Y404210D01*
X185343D01*
X187549Y405123D01*
X189237Y406811D01*
X189263Y406876D01*
X204359D01*
X206216Y405019D01*
Y397200D01*
X187000D01*
Y377500D01*
X206216D01*
Y371520D01*
X203230Y370264D01*
X200860Y371632D01*
X198218Y372340D01*
X198120D01*
Y361950D01*
Y351560D01*
X198218D01*
X200860Y352268D01*
X203230Y353636D01*
X206216Y352380D01*
Y345357D01*
X203216Y344114D01*
X202898Y344432D01*
X200652Y345729D01*
X198147Y346400D01*
X195553D01*
X193048Y345729D01*
X190802Y344432D01*
X188968Y342598D01*
X187671Y340352D01*
X187000Y337847D01*
Y335253D01*
X187671Y332748D01*
X188968Y330502D01*
X190802Y328668D01*
X193048Y327371D01*
X195553Y326700D01*
X198147D01*
X200652Y327371D01*
X202898Y328668D01*
X203216Y328986D01*
X206216Y327743D01*
Y319957D01*
X203216Y318714D01*
X202898Y319032D01*
X200652Y320329D01*
X198147Y321000D01*
X195553D01*
X193048Y320329D01*
X190802Y319032D01*
X188968Y317198D01*
X188134Y315754D01*
X185420D01*
X184144Y315500D01*
X183062Y314778D01*
X180522Y312237D01*
X179800Y311156D01*
X179546Y309880D01*
Y305155D01*
X176546Y303329D01*
X176255Y303450D01*
X174265D01*
X172428Y302689D01*
X171021Y301282D01*
X171016Y301270D01*
X169421Y299365D01*
X167798Y299211D01*
X166518Y298957D01*
X165432Y298232D01*
X160648Y293447D01*
X158940Y293679D01*
X157870Y296851D01*
X162341Y301323D01*
X163067Y302408D01*
X163321Y303688D01*
X163067Y304968D01*
X162341Y306054D01*
X158521Y309874D01*
Y352198D01*
X158989Y352797D01*
X161521Y354281D01*
X161640Y354250D01*
Y360680D01*
Y367110D01*
X161521Y367079D01*
X158989Y368563D01*
X158521Y369162D01*
Y383940D01*
X158218Y385464D01*
X157355Y386755D01*
X155276Y388834D01*
X157274Y391007D01*
X158766Y390146D01*
X160020Y389810D01*
Y396240D01*
Y402670D01*
X159930Y402646D01*
X156193Y406383D01*
X155036Y407157D01*
X153670Y407429D01*
X143047D01*
X142939Y407832D01*
X141584Y410178D01*
X139668Y412094D01*
X137322Y413449D01*
X134705Y414150D01*
X134620D01*
Y403860D01*
X133350D01*
Y402590D01*
X123060D01*
Y402505D01*
X123761Y399888D01*
X124770Y398142D01*
X124059Y396165D01*
X123274Y395141D01*
X117263D01*
X116216Y397034D01*
X115907Y398142D01*
X117036Y400097D01*
X117700Y402576D01*
Y405144D01*
X117036Y407623D01*
X115752Y409847D01*
X113937Y411662D01*
X111713Y412946D01*
X111284Y413061D01*
Y414020D01*
X111030Y415296D01*
X110308Y416377D01*
X108045Y418640D01*
X108311Y420156D01*
X109140Y421640D01*
X217170D01*
Y0D01*
D02*
G37*
G36*
X104870Y144774D02*
X105592Y143693D01*
X109403Y139882D01*
X110484Y139160D01*
X111784Y138212D01*
X111836Y136709D01*
Y129021D01*
X112090Y127741D01*
X112816Y126656D01*
X113901Y125930D01*
X115181Y125676D01*
X117316D01*
Y114580D01*
X114650D01*
Y102580D01*
X126650D01*
Y114580D01*
X123984D01*
Y125676D01*
X126119D01*
X127399Y125930D01*
X128484Y126656D01*
X129210Y127741D01*
X129464Y129021D01*
Y133321D01*
X131557Y135686D01*
X132464Y135901D01*
X134696Y134090D01*
Y129021D01*
X134950Y127741D01*
X135676Y126656D01*
X136761Y125930D01*
X138041Y125676D01*
X140176D01*
Y113830D01*
X137510D01*
Y101830D01*
X137510Y101830D01*
X136970Y99370D01*
X136970Y99370D01*
X136970Y99052D01*
Y94100D01*
X143510D01*
Y91560D01*
X136970D01*
Y86290D01*
X139941D01*
Y79196D01*
X138813Y78068D01*
X138040Y76200D01*
X143510D01*
Y74930D01*
X144780D01*
Y69460D01*
X146648Y70233D01*
X148207Y71792D01*
X148858Y73364D01*
X150281Y74191D01*
X152050Y74713D01*
X153747Y74010D01*
X156133D01*
X158339Y74923D01*
X160027Y76611D01*
X160940Y78816D01*
Y81203D01*
X160027Y83409D01*
X158339Y85097D01*
X157544Y85426D01*
Y99358D01*
X160544Y101362D01*
X160657Y101316D01*
X163044D01*
X164919Y102092D01*
X166439Y101528D01*
X167919Y100656D01*
Y99145D01*
X168122Y98121D01*
X168703Y97253D01*
X167614Y95130D01*
X167368Y93895D01*
Y93290D01*
X172720D01*
Y92020D01*
X173990D01*
Y86918D01*
X174845D01*
X175401Y86461D01*
Y63981D01*
X171622Y60201D01*
X158099D01*
Y47673D01*
X152705Y42279D01*
X143760D01*
Y50190D01*
X134095D01*
Y52730D01*
X143760D01*
Y61750D01*
X139385D01*
X138377Y64750D01*
X142240Y68613D01*
Y73660D01*
X137193D01*
X131572Y68038D01*
X130798Y66881D01*
X130526Y65515D01*
Y61750D01*
X125639D01*
Y67004D01*
X126617Y67982D01*
X127390Y69850D01*
X121920D01*
Y71120D01*
X120650D01*
Y76590D01*
X118782Y75817D01*
X117533Y74568D01*
X114572Y74495D01*
X114306Y74519D01*
X112619Y76207D01*
X110414Y77120D01*
X108027D01*
X106795Y76610D01*
X104610Y78915D01*
X105121Y80147D01*
Y82534D01*
X104733Y83470D01*
X104007Y85481D01*
X105091Y88098D01*
X114650D01*
Y86080D01*
X126650D01*
Y98080D01*
X114650D01*
Y96061D01*
X103790D01*
Y98080D01*
X92350D01*
X91043Y100330D01*
X92350Y102580D01*
X103790D01*
Y114580D01*
X101124D01*
Y125676D01*
X103259D01*
X104539Y125930D01*
X105624Y126656D01*
X106350Y127741D01*
X106604Y129021D01*
Y136709D01*
X106350Y137989D01*
X105624Y139074D01*
X104539Y139800D01*
X103259Y140054D01*
X92653D01*
X91293Y142240D01*
X92653Y144426D01*
X103259D01*
X104539Y144680D01*
X104752Y144823D01*
X104870Y144774D01*
D02*
G37*
%LPC*%
G36*
X21617Y371800D02*
X19023D01*
X16518Y371129D01*
X14272Y369832D01*
X12438Y367998D01*
X11141Y365752D01*
X10470Y363247D01*
Y360653D01*
X11141Y358148D01*
X12438Y355902D01*
X14272Y354068D01*
X16518Y352771D01*
X19023Y352100D01*
X21617D01*
X24122Y352771D01*
X26368Y354068D01*
X28202Y355902D01*
X29499Y358148D01*
X30170Y360653D01*
Y363247D01*
X29499Y365752D01*
X28202Y367998D01*
X26368Y369832D01*
X24122Y371129D01*
X21617Y371800D01*
D02*
G37*
G36*
X21688Y296140D02*
X21590D01*
Y287020D01*
X30710D01*
Y287118D01*
X30002Y289760D01*
X28634Y292130D01*
X26700Y294064D01*
X24330Y295432D01*
X21688Y296140D01*
D02*
G37*
G36*
X30710Y284480D02*
X21590D01*
Y275360D01*
X21688D01*
X24330Y276068D01*
X26700Y277436D01*
X28634Y279370D01*
X30002Y281740D01*
X30710Y284382D01*
Y284480D01*
D02*
G37*
G36*
X63920Y371210D02*
X55880D01*
X47840D01*
Y364940D01*
X49333D01*
X50050Y364013D01*
X50932Y361940D01*
X50410Y360680D01*
X61350D01*
X60828Y361940D01*
X61710Y364013D01*
X62427Y364940D01*
X63920D01*
Y371210D01*
D02*
G37*
G36*
X93100Y361950D02*
X88900D01*
Y357750D01*
X90768Y358523D01*
X92327Y360082D01*
X93100Y361950D01*
D02*
G37*
G36*
X86360D02*
X82160D01*
X82933Y360082D01*
X84492Y358523D01*
X86360Y357750D01*
Y361950D01*
D02*
G37*
G36*
X61350Y358140D02*
X57150D01*
Y353940D01*
X59018Y354713D01*
X60577Y356272D01*
X61350Y358140D01*
D02*
G37*
G36*
X54610D02*
X50410D01*
X51183Y356272D01*
X52742Y354713D01*
X54610Y353940D01*
Y358140D01*
D02*
G37*
G36*
X80200Y91560D02*
X74930D01*
Y86290D01*
X80200D01*
Y91560D01*
D02*
G37*
G36*
X132080Y414150D02*
X131995D01*
X129378Y413449D01*
X127032Y412094D01*
X125116Y410178D01*
X123761Y407832D01*
X123060Y405215D01*
Y405130D01*
X132080D01*
Y414150D01*
D02*
G37*
G36*
X195580Y372340D02*
X195482D01*
X192840Y371632D01*
X190470Y370264D01*
X188536Y368330D01*
X187168Y365960D01*
X186460Y363318D01*
Y363220D01*
X195580D01*
Y372340D01*
D02*
G37*
G36*
Y360680D02*
X186460D01*
Y360582D01*
X187168Y357940D01*
X188536Y355570D01*
X190470Y353636D01*
X192840Y352268D01*
X195482Y351560D01*
X195580D01*
Y360680D01*
D02*
G37*
G36*
X177721Y31377D02*
X168910D01*
Y23079D01*
X177721D01*
Y31377D01*
D02*
G37*
G36*
X38100Y25480D02*
X36846Y25144D01*
X35354Y24283D01*
X34137Y23066D01*
X33276Y21574D01*
X32940Y20320D01*
X38100D01*
Y25480D01*
D02*
G37*
G36*
Y17780D02*
X32940D01*
X33276Y16526D01*
X34137Y15034D01*
X35354Y13817D01*
X36846Y12956D01*
X38100Y12620D01*
Y17780D01*
D02*
G37*
G36*
X171450Y90750D02*
X167368D01*
Y90145D01*
X167614Y88910D01*
X168313Y87863D01*
X169360Y87164D01*
X170595Y86918D01*
X171450D01*
Y90750D01*
D02*
G37*
G36*
X123190Y76590D02*
Y72390D01*
X127390D01*
X126617Y74258D01*
X125058Y75817D01*
X123190Y76590D01*
D02*
G37*
%LPD*%
D17*
X75470Y25710D02*
D03*
X142970D02*
D03*
D18*
X97720D02*
D03*
D19*
X124720D02*
D03*
D20*
X84345Y51460D02*
D03*
X134095D02*
D03*
D21*
X96220Y52310D02*
D03*
X109220D02*
D03*
X115720D02*
D03*
X122220D02*
D03*
X102720D02*
D03*
D22*
X55880Y55490D02*
D03*
Y38490D02*
D03*
D23*
X97790Y108580D02*
D03*
Y92080D02*
D03*
X73660Y92830D02*
D03*
Y107830D02*
D03*
X120650Y108580D02*
D03*
Y92080D02*
D03*
X143510Y92830D02*
D03*
Y107830D02*
D03*
X168910Y119580D02*
D03*
D24*
X73660Y132865D02*
D03*
Y151615D02*
D03*
X97790Y132865D02*
D03*
Y151615D02*
D03*
X120650D02*
D03*
Y132865D02*
D03*
X143510Y132865D02*
D03*
Y151615D02*
D03*
D25*
X98967Y289881D02*
D03*
X93310Y284224D02*
D03*
X87653Y278567D02*
D03*
X76340Y267254D02*
D03*
X65026Y255940D02*
D03*
X59369Y250283D02*
D03*
X119473Y190179D02*
D03*
X130787Y201493D02*
D03*
X136444Y207150D02*
D03*
X142100Y212806D02*
D03*
X147757Y218463D02*
D03*
X153414Y224120D02*
D03*
X159071Y229777D02*
D03*
X70683Y261597D02*
D03*
X81996Y272910D02*
D03*
X125130Y195836D02*
D03*
D26*
X59369Y229777D02*
D03*
X65026Y224120D02*
D03*
X70683Y218463D02*
D03*
X76340Y212806D02*
D03*
X81996Y207150D02*
D03*
X87653Y201493D02*
D03*
X93310Y195836D02*
D03*
X98967Y190179D02*
D03*
X159071Y250283D02*
D03*
X153414Y255940D02*
D03*
X147757Y261597D02*
D03*
X142100Y267254D02*
D03*
X136444Y272910D02*
D03*
X130787Y278567D02*
D03*
X125130Y284224D02*
D03*
X119473Y289881D02*
D03*
D27*
X167640Y51172D02*
D03*
Y32648D02*
D03*
D28*
X168910Y138580D02*
D03*
D29*
X172720Y101020D02*
D03*
Y92020D02*
D03*
D30*
X166649Y289281D02*
D03*
X153391Y302539D02*
D03*
D31*
X91010Y340950D02*
D03*
X132510D02*
D03*
X91010Y319450D02*
D03*
X132510D02*
D03*
D32*
X55880Y372480D02*
D03*
Y386980D02*
D03*
D33*
X163202Y200032D02*
D03*
X156838Y193668D02*
D03*
D34*
X82550Y378460D02*
D03*
D35*
X107950D02*
D03*
X133350D02*
D03*
X107950Y403860D02*
D03*
X133350D02*
D03*
X82550D02*
D03*
D36*
X20320Y311150D02*
D03*
X196850Y361950D02*
D03*
Y336550D02*
D03*
Y311150D02*
D03*
Y285750D02*
D03*
Y260350D02*
D03*
Y234950D02*
D03*
Y209550D02*
D03*
Y184150D02*
D03*
Y158750D02*
D03*
Y133350D02*
D03*
Y107950D02*
D03*
Y82550D02*
D03*
Y57150D02*
D03*
Y31750D02*
D03*
X20320Y361950D02*
D03*
Y336550D02*
D03*
Y285750D02*
D03*
Y260350D02*
D03*
Y234950D02*
D03*
Y209550D02*
D03*
Y184150D02*
D03*
Y158750D02*
D03*
Y133350D02*
D03*
Y107950D02*
D03*
Y82550D02*
D03*
Y57150D02*
D03*
Y31750D02*
D03*
D37*
X196850Y387350D02*
D03*
X20320D02*
D03*
D38*
X154940Y80010D02*
D03*
X168910Y179206D02*
D03*
X50800Y25400D02*
D03*
X77470Y237147D02*
D03*
X124460Y303690D02*
D03*
X85090Y67310D02*
D03*
X60960D02*
D03*
X99121Y81341D02*
D03*
X158750Y208121D02*
D03*
X170222Y218482D02*
D03*
X57150Y398780D02*
D03*
X38170Y327208D02*
D03*
X169955Y410435D02*
D03*
X162910Y360680D02*
D03*
X95250Y175260D02*
D03*
X144780Y181610D02*
D03*
X102870Y259080D02*
D03*
X110490Y238760D02*
D03*
X43180Y402590D02*
D03*
X39370Y19050D02*
D03*
X68580Y74930D02*
D03*
X109220Y71120D02*
D03*
X161850Y107316D02*
D03*
X130854Y142240D02*
D03*
X97790Y162560D02*
D03*
X118110D02*
D03*
X115570Y179070D02*
D03*
X120650Y219630D02*
D03*
X132080Y247650D02*
D03*
X144730Y335280D02*
D03*
X170180Y345440D02*
D03*
X161290Y396240D02*
D03*
X184150Y410210D02*
D03*
D39*
X143510Y290830D02*
D03*
X54610Y331470D02*
D03*
X55880Y359410D02*
D03*
X58420Y120650D02*
D03*
X86360Y123190D02*
D03*
X121920Y71120D02*
D03*
X143510Y74930D02*
D03*
X115570Y258445D02*
D03*
X87630Y363220D02*
D03*
X175260Y298450D02*
D03*
D40*
X145453Y196106D02*
X158750Y182810D01*
Y111714D02*
Y182810D01*
X161850Y107316D02*
Y108613D01*
X158750Y111714D02*
X161850Y108613D01*
X159573Y189230D02*
X173990D01*
X156838Y191965D02*
Y193668D01*
Y191965D02*
X159573Y189230D01*
X136173Y196106D02*
X145453D01*
X173990Y189230D02*
X177800Y185420D01*
X175260Y260350D02*
X177800Y257810D01*
X169138Y260350D02*
X175260D01*
X177800Y228600D02*
Y257810D01*
X164174Y266700D02*
X179070D01*
X182880Y237490D02*
Y262890D01*
X179070Y266700D02*
X182880Y262890D01*
X177800Y228600D02*
X196850Y209550D01*
X182880Y237490D02*
X185190Y235180D01*
X159071Y250283D02*
X169138Y260350D01*
X177800Y117058D02*
Y185420D01*
X182880Y172720D02*
Y195542D01*
X185190Y235180D02*
X196620D01*
X76425Y238191D02*
X77470Y237147D01*
X59369Y250283D02*
X71461Y238191D01*
X76425D01*
X127885Y302645D02*
X134620Y295910D01*
X125505Y302645D02*
X127885D01*
X124460Y303690D02*
X125505Y302645D01*
X143482Y290858D02*
Y295353D01*
X123990Y314846D02*
X143482Y295353D01*
X152814Y289281D02*
X166649D01*
X136444Y272910D02*
X152814Y289281D01*
X174797Y298913D02*
X175260Y298450D01*
X125130Y284224D02*
X134620Y293714D01*
Y295910D01*
X123990Y314846D02*
Y328130D01*
X143482Y290858D02*
X143510Y290830D01*
X46990Y236220D02*
Y294640D01*
X49530Y297180D02*
X80354D01*
X46990Y294640D02*
X49530Y297180D01*
X80354D02*
X93310Y284224D01*
X41910Y260568D02*
Y299720D01*
X44450Y302260D02*
X86588D01*
X41910Y299720D02*
X44450Y302260D01*
X86588D02*
X98967Y289881D01*
X86060Y66340D02*
X92900D01*
X85090Y67310D02*
X86060Y66340D01*
X92900D02*
X96220Y63020D01*
X68798Y160010D02*
X98967Y190179D01*
X52070Y145774D02*
X66306Y160010D01*
X68798D01*
X55880Y62230D02*
X60960Y67310D01*
X99060Y81280D02*
X99121Y81341D01*
X99060Y68459D02*
Y81280D01*
X147757Y218463D02*
X148083D01*
X158425Y208121D02*
X158750D01*
X148083Y218463D02*
X158425Y208121D01*
X159071Y229705D02*
Y229777D01*
X170222Y218482D02*
Y218554D01*
X159071Y229705D02*
X170222Y218554D01*
X184150Y273050D02*
X196850Y260350D01*
X159558Y273050D02*
X184150D01*
X196620Y235180D02*
X196850Y234950D01*
X153414Y255940D02*
X164174Y266700D01*
X148105Y261597D02*
X159558Y273050D01*
X147757Y261597D02*
X148105D01*
X182880Y293370D02*
Y309880D01*
X152977Y278130D02*
X167640D01*
X182880Y293370D01*
X142100Y267254D02*
X152977Y278130D01*
X57150Y398780D02*
X69850D01*
X80098Y388532D01*
X155099Y193668D02*
X156838D01*
X147052Y201714D02*
X155099Y193668D01*
X141879Y201714D02*
X147052D01*
X99060Y68459D02*
X102795Y64724D01*
X96220Y52310D02*
Y63020D01*
X177800Y117058D02*
X185190Y109668D01*
X209550Y34290D02*
Y406400D01*
X196850Y31750D02*
X196862Y31762D01*
X207022D01*
X209550Y34290D01*
X21590Y259080D02*
X40422D01*
X41910Y260568D01*
X21590Y233680D02*
X44450D01*
X46990Y236220D01*
X64770Y331470D02*
X120650D01*
X40640Y355600D02*
Y383842D01*
Y355600D02*
X64770Y331470D01*
X45720Y309880D02*
Y332740D01*
X48260Y307340D02*
X102014D01*
X45720Y309880D02*
X48260Y307340D01*
X41910Y336550D02*
X45720Y332740D01*
X20320Y336550D02*
X41910D01*
X169955Y407487D02*
Y410435D01*
Y407487D02*
X170180Y407262D01*
Y345440D02*
Y407262D01*
X20320Y234950D02*
X21590Y233680D01*
X3810Y62230D02*
X8660Y57380D01*
X20090D01*
X20320Y57150D01*
Y31750D02*
X22306Y33736D01*
X20320Y133350D02*
X22306Y135336D01*
X20320Y158750D02*
X22629Y161059D01*
X22306Y33736D02*
Y43410D01*
Y135336D02*
Y145010D01*
X22629Y161059D02*
Y170410D01*
X20320Y57150D02*
X46450Y83280D01*
X22306Y145010D02*
X31440Y154144D01*
X20320Y107950D02*
X36830Y124460D01*
X20320Y82550D02*
X41910Y104140D01*
X31440Y154144D02*
Y167907D01*
X22306Y43410D02*
X50990Y72094D01*
X55880Y55490D02*
Y62230D01*
X36830Y124460D02*
Y161983D01*
X41910Y104140D02*
Y155749D01*
X46450Y83280D02*
Y148976D01*
X50990Y72094D02*
Y144669D01*
X52070Y145749D01*
Y145774D01*
X46450Y148976D02*
X93310Y195836D01*
X73660Y107830D02*
Y132865D01*
X3810Y62230D02*
Y411480D01*
X20320Y260350D02*
X21590Y259080D01*
X20320Y184150D02*
X22838Y186668D01*
X27574D01*
X20320Y209550D02*
X39142D01*
X27574Y186668D02*
X65026Y224120D01*
X22629Y170410D02*
X70683Y218463D01*
X39142Y209550D02*
X59369Y229777D01*
X31440Y167907D02*
X76340Y212806D01*
X3810Y411480D02*
X8985Y416655D01*
X20320Y387350D02*
X37132D01*
X40640Y383842D01*
X36830Y161983D02*
X81996Y207150D01*
X41910Y155749D02*
X87653Y201493D01*
X65026Y255940D02*
X65026D01*
X74276Y246690D01*
X115260D01*
X8985Y416655D02*
X105315D01*
X80098Y380912D02*
Y388532D01*
Y380912D02*
X82550Y378460D01*
X166649Y289281D02*
Y289839D01*
X120650Y219630D02*
Y241300D01*
X115260Y246690D02*
X120650Y241300D01*
X102014Y307340D02*
X119473Y289881D01*
X120650Y331470D02*
X123990Y328130D01*
X105315Y416655D02*
X107950Y414020D01*
Y403860D02*
Y414020D01*
X166649Y289839D02*
X175260Y298450D01*
Y298450D01*
X182880Y309880D02*
X185420Y312420D01*
X195580D02*
X196850Y311150D01*
X185420Y312420D02*
X195580D01*
X205740Y410210D02*
X209550Y406400D01*
X184150Y410210D02*
X205740D01*
X134838Y335280D02*
X144730D01*
X133350Y336768D02*
X134838Y335280D01*
X133350Y336768D02*
Y340110D01*
X132510Y340950D02*
X133350Y340110D01*
X132510Y340950D02*
X133350Y341790D01*
Y378460D01*
X102720Y52310D02*
X102795Y52385D01*
Y64724D01*
X109220Y52310D02*
Y71120D01*
X97790Y108580D02*
Y132865D01*
X120650Y108580D02*
Y132865D01*
X107950Y146050D02*
X111760Y142240D01*
X97790Y151615D02*
Y162560D01*
X143510Y107830D02*
Y132865D01*
X111760Y142240D02*
X130854D01*
X143510Y151615D02*
X145129D01*
X120650Y151615D02*
X121876D01*
X140658Y154467D02*
X143510Y151615D01*
X121876Y151615D02*
X125730Y155469D01*
X140658Y154467D02*
Y159062D01*
X125730Y155469D02*
Y160020D01*
X123190Y162560D02*
X125730Y160020D01*
X107950Y146050D02*
Y177582D01*
X118110Y162560D02*
X123190D01*
X107950Y177582D02*
X109438Y179070D01*
X115570D01*
X124460Y175260D02*
Y185192D01*
X119473Y190179D02*
X124460Y185192D01*
X119473Y289881D02*
X119473D01*
X124460Y175260D02*
X140658Y159062D01*
X130787Y201493D02*
X136173Y196106D01*
X136444Y207150D02*
X141879Y201714D01*
X130787Y278567D02*
X131017D01*
X143280Y290830D01*
X143510D01*
X154210Y80740D02*
X154940Y80010D01*
X154210Y80740D02*
Y142534D01*
X145129Y151615D02*
X154210Y142534D01*
X195132Y109668D02*
X196850Y107950D01*
X185190Y109668D02*
X195132D01*
X182880Y172720D02*
X196850Y158750D01*
X154302Y224120D02*
X182880Y195542D01*
X153414Y224120D02*
X154302D01*
D41*
X168910Y138580D02*
Y179206D01*
X58420Y120650D02*
Y138430D01*
X68385Y148395D02*
X70440D01*
X58420Y138430D02*
X68385Y148395D01*
X70440D02*
X73660Y151615D01*
X43180Y402590D02*
Y403343D01*
X82550Y403860D02*
X95250Y391160D01*
X43180Y403343D02*
X47507Y407670D01*
X75577D01*
X79387Y403860D02*
X82550D01*
X75577Y407670D02*
X79387Y403860D01*
X38170Y313760D02*
Y327208D01*
X63500Y269372D02*
Y273725D01*
X69175Y279400D01*
X70683Y261597D02*
Y262189D01*
X63500Y269372D02*
X70683Y262189D01*
X74914Y279400D02*
X81404Y272910D01*
X20320Y311150D02*
X35560D01*
X69175Y279400D02*
X74914D01*
X86360Y97790D02*
Y123190D01*
X96419Y93451D02*
X97790Y92080D01*
X86360Y97790D02*
X90699Y93451D01*
X96419D01*
X86360Y123190D02*
Y165100D01*
X95250Y173990D01*
Y175260D01*
X97790Y92080D02*
X120650D01*
X143978Y182412D02*
X144780Y181610D01*
X95827Y259080D02*
X102870D01*
X81404Y272910D02*
X81996D01*
X95827Y259080D01*
X110490Y210476D02*
X125130Y195836D01*
X110490Y210476D02*
Y238760D01*
X125130Y195836D02*
X138554Y182412D01*
X143978D01*
X95250Y391160D02*
X147320D01*
X153391Y302539D02*
X154540Y303688D01*
X147320Y391160D02*
X154540Y383940D01*
Y303688D02*
Y383940D01*
X43180Y402590D02*
X43982Y401788D01*
Y392898D02*
X47409Y389471D01*
X53389D01*
X43982Y392898D02*
Y401788D01*
X53389Y389471D02*
X55880Y386980D01*
X35560Y311150D02*
X38170Y313760D01*
X168910Y119580D02*
X172720Y115770D01*
Y101020D02*
Y115770D01*
D42*
X50800Y25400D02*
X75160D01*
X75470Y25710D01*
X97720D01*
X70337Y90330D02*
X71160D01*
X68580Y88573D02*
X70337Y90330D01*
X68580Y55880D02*
Y88573D01*
X71160Y90330D02*
X73660Y92830D01*
X68580Y55880D02*
X72390Y52070D01*
X154891Y200621D02*
X161198D01*
X142706Y212806D02*
X154891Y200621D01*
X161788Y200032D02*
X163202D01*
X142100Y212806D02*
X142706D01*
X161198Y200621D02*
X161788Y200032D01*
X83735Y52070D02*
X84345Y51460D01*
X72390Y52070D02*
X83735D01*
X144550Y24130D02*
X159841D01*
X161599Y25887D01*
Y27119D01*
X167128Y32648D02*
X167640D01*
X161599Y27119D02*
X167128Y32648D01*
X142970Y25710D02*
X144550Y24130D01*
X54610Y321317D02*
Y331470D01*
Y321317D02*
X56477Y319450D01*
X91010D01*
X55880Y359410D02*
Y372480D01*
Y38490D02*
X56100Y38710D01*
X76340Y267254D02*
X92133Y251460D01*
X87653Y278567D02*
X98251Y267970D01*
X113030D01*
X92133Y251460D02*
X127823D01*
X115570Y258445D02*
Y265430D01*
X113030Y267970D02*
X115570Y265430D01*
X133350Y403860D02*
X153670D01*
X161290Y396240D01*
X97720Y25710D02*
X124720D01*
X56100Y38710D02*
X154183D01*
X124720Y25710D02*
X142970D01*
X122070Y52460D02*
X122220Y52310D01*
X134095Y51460D02*
Y65515D01*
X122070Y52460D02*
Y70970D01*
X134095Y65515D02*
X143510Y74930D01*
X121920Y71120D02*
X122070Y70970D01*
X143510Y74930D02*
Y92830D01*
X142100Y212806D02*
Y212918D01*
X132080Y222938D02*
X142100Y212918D01*
X132080Y222938D02*
Y247650D01*
X131633D02*
X132080D01*
X127823Y251460D02*
X131633Y247650D01*
X154183Y38710D02*
X161117Y45644D01*
X162111D01*
X167640Y51172D01*
X168152D01*
X173681Y56701D01*
X172315Y92425D02*
X172720Y92020D01*
X173681Y56701D02*
Y57214D01*
X178970Y62502D01*
Y95604D01*
X176554Y98020D02*
X178970Y95604D01*
X176553Y98020D02*
X176554D01*
X174554Y100020D02*
X176553Y98020D01*
X173720Y100020D02*
X174554D01*
X172720Y101020D02*
X173720Y100020D01*
M02*
