G04*
G04 #@! TF.GenerationSoftware,Altium Limited,Altium Designer,26.9.1 (10)*
G04*
G04 Layer_Color=32768*
G04 Board_Origin=34100000|22900000*
%FSLAX44Y44*%
%MOMM*%
G71*
G04*
G04 #@! TF.SameCoordinates,422ACB3C-2A18-4883-AF2F-CBEBC1C0E268*
G04*
G04*
G04 #@! TF.FilePolarity,Positive*
G04*
G01*
G75*
%ADD12C,0.2000*%
%ADD58C,0.1000*%
%ADD59C,0.0500*%
D12*
X66220Y63710D02*
X152220D01*
Y4410D02*
Y63710D01*
X66220Y4410D02*
X152220D01*
X66220D02*
Y63710D01*
X62130Y33990D02*
Y59990D01*
X49630Y33990D02*
X62130D01*
X49630D02*
Y59990D01*
X62130D01*
X103540Y87080D02*
Y113580D01*
X92040Y87080D02*
X103540D01*
X92040D02*
Y113580D01*
X103540D01*
X68088Y87830D02*
Y112830D01*
X79232D01*
Y87830D02*
Y112830D01*
X68088Y87830D02*
X79232D01*
X180181Y20619D02*
Y63201D01*
X155099Y20619D02*
X180181D01*
X155099D02*
Y63201D01*
X180181D01*
X126400Y87080D02*
Y113580D01*
X114900Y87080D02*
X126400D01*
X114900D02*
Y113580D01*
X126400D01*
X137938Y87830D02*
Y112830D01*
X149082D01*
Y87830D02*
Y112830D01*
X137938Y87830D02*
X149082D01*
X176910Y114580D02*
Y149580D01*
X160910Y114580D02*
X176910D01*
X160910D02*
Y149580D01*
X176910D01*
X84760Y347200D02*
X138760D01*
Y313200D02*
Y347200D01*
X84760Y313200D02*
X138760D01*
X84760D02*
Y347200D01*
D58*
X105684Y243566D02*
X112756Y236495D01*
X105684D02*
X112756Y243566D01*
X55880Y374980D02*
Y384480D01*
X51130Y379730D02*
X60630D01*
D59*
X150200Y363510D02*
Y418810D01*
X65700Y363510D02*
X150200D01*
X65700D02*
Y418810D01*
X150200D01*
X64410Y125240D02*
Y159240D01*
X82910Y125240D02*
Y159240D01*
X64410Y125240D02*
X82910D01*
X64410Y159240D02*
X82910D01*
X107040Y125240D02*
Y159240D01*
X88540Y125240D02*
Y159240D01*
X107040D01*
X88540Y125240D02*
X107040D01*
X28610Y240030D02*
X109220Y320640D01*
Y159420D02*
X189830Y240030D01*
X109220Y320640D02*
X189830Y240030D01*
X28610D02*
X109220Y159420D01*
X129900Y125240D02*
Y159240D01*
X111400Y125240D02*
Y159240D01*
X129900D01*
X111400Y125240D02*
X129900D01*
X134260Y125240D02*
Y159240D01*
X152760Y125240D02*
Y159240D01*
X134260Y125240D02*
X152760D01*
X134260Y159240D02*
X152760D01*
X168220Y87520D02*
Y105520D01*
X177220Y87520D02*
Y105520D01*
X168220Y87520D02*
X177220D01*
X168220Y105520D02*
X177220D01*
X172720Y93770D02*
Y99270D01*
X169970Y96520D02*
X175470D01*
X154540Y314472D02*
X178582Y290430D01*
X141458Y301390D02*
X165500Y277348D01*
X141458Y301390D02*
X154540Y314472D01*
X165500Y277348D02*
X178582Y290430D01*
X45380Y362730D02*
X66380D01*
X45380Y396730D02*
X66380D01*
X45380Y362730D02*
Y396730D01*
X66380Y362730D02*
Y396730D01*
X150474Y193668D02*
X163202Y206396D01*
X156838Y187304D02*
X169566Y200032D01*
X150474Y193668D02*
X156838Y187304D01*
X163202Y206396D02*
X169566Y200032D01*
X158076Y194905D02*
X161964Y198794D01*
X158076D02*
X161964Y194905D01*
M02*
