G04*
G04 #@! TF.GenerationSoftware,Altium Limited,Altium Designer,26.9.1 (10)*
G04*
G04 Layer_Color=65535*
G04 Board_Origin=34100000|22900000*
%FSLAX44Y44*%
%MOMM*%
G71*
G04*
G04 #@! TF.SameCoordinates,422ACB3C-2A18-4883-AF2F-CBEBC1C0E268*
G04*
G04*
G04 #@! TF.FilePolarity,Positive*
G04*
G01*
G75*
%ADD10C,0.2500*%
%ADD11C,0.6000*%
%ADD12C,0.2000*%
%ADD13C,0.1270*%
%ADD14C,0.1500*%
%ADD15C,0.0700*%
%ADD16C,0.0762*%
D10*
X97220Y67710D02*
G03*
X97220Y67710I-1250J0D01*
G01*
X74910Y83330D02*
G03*
X74910Y83330I-1250J0D01*
G01*
X106227Y295891D02*
G03*
X106227Y295891I-1250J0D01*
G01*
X144760Y83330D02*
G03*
X144760Y83330I-1250J0D01*
G01*
X170160Y154580D02*
G03*
X170160Y154580I-1250J0D01*
G01*
X81510Y340950D02*
G03*
X81510Y340950I-1250J0D01*
G01*
D11*
X112220Y266193D02*
G03*
X106421Y265112I-3000J0D01*
G01*
X108462Y263290D02*
G03*
X112220Y266193I758J2903D01*
G01*
D12*
X67950Y365760D02*
X84540D01*
X90720D02*
X147950D01*
Y416560D01*
X67950D02*
X147950D01*
X67950Y365760D02*
Y416560D01*
X149670Y35960D02*
Y62710D01*
X144970D02*
X149670D01*
X68770Y35960D02*
Y62710D01*
X73470D01*
X61130Y45740D02*
Y48240D01*
X50630Y45740D02*
Y48240D01*
X89540Y92080D02*
Y108580D01*
X106040Y92080D02*
Y108580D01*
X81210Y108839D02*
X81410Y91821D01*
X65910D02*
Y108839D01*
X109220Y199725D02*
X149525Y240030D01*
X68915D02*
X109220Y280335D01*
X149525Y240030D01*
X68915D02*
X72533Y236412D01*
X76677Y232268D02*
X109220Y199725D01*
X156099Y25619D02*
Y58201D01*
X179181Y25619D02*
Y58201D01*
X118150Y81580D02*
X123150D01*
X128900Y92080D02*
Y108580D01*
X120650Y79080D02*
Y84080D01*
X112400Y92080D02*
Y108580D01*
X151060Y108839D02*
X151260Y91821D01*
X135760D02*
Y108839D01*
X178910Y120580D02*
Y143580D01*
X158910Y120580D02*
Y143580D01*
X90760Y326450D02*
Y333950D01*
X100010Y346200D02*
X123510D01*
X100010Y314200D02*
X123510D01*
X132760Y326450D02*
Y333950D01*
D13*
X81045Y140625D02*
Y143855D01*
X66275Y140625D02*
Y143855D01*
X90405Y140625D02*
Y143855D01*
X105175Y140625D02*
Y143855D01*
X113265Y140625D02*
Y143855D01*
X150895Y140625D02*
Y143855D01*
X136125Y140625D02*
Y143855D01*
X153656Y291830D02*
X155940Y289546D01*
X164100Y302274D02*
X166384Y299990D01*
D14*
X170720Y96520D02*
X174720D01*
X158606Y198264D02*
X161434Y195436D01*
D15*
X188119Y142940D02*
X186120D01*
X188119Y144939D01*
Y145439D01*
X187619Y145939D01*
X186620D01*
X186120Y145439D01*
X189119Y142940D02*
X190119D01*
X189619D01*
Y145939D01*
X189119Y145439D01*
X188119Y168340D02*
X186120D01*
X188119Y170339D01*
Y170839D01*
X187619Y171339D01*
X186620D01*
X186120Y170839D01*
X189119D02*
X189619Y171339D01*
X190618D01*
X191118Y170839D01*
Y170339D01*
X190618Y169839D01*
X190119D01*
X190618D01*
X191118Y169340D01*
Y168840D01*
X190618Y168340D01*
X189619D01*
X189119Y168840D01*
X192470Y402479D02*
Y400480D01*
X193470Y399480D01*
X194469Y400480D01*
Y402479D01*
X195469D02*
X196469D01*
X195969D01*
Y399480D01*
X195469D01*
X196469D01*
X197968D02*
Y402479D01*
X199967Y399480D01*
Y402479D01*
X186849Y375309D02*
X186350Y375809D01*
X185350D01*
X184850Y375309D01*
Y373310D01*
X185350Y372810D01*
X186350D01*
X186849Y373310D01*
Y374310D01*
X185850D01*
X187849Y372810D02*
Y375809D01*
X189848Y372810D01*
Y375809D01*
X190848D02*
Y372810D01*
X192348D01*
X192847Y373310D01*
Y375309D01*
X192348Y375809D01*
X190848D01*
X182310Y347410D02*
Y350409D01*
X183810D01*
X184309Y349909D01*
Y348909D01*
X183810Y348410D01*
X182310D01*
X183310D02*
X184309Y347410D01*
X187308Y350409D02*
X185309D01*
Y347410D01*
X187308D01*
X185309Y348909D02*
X186309D01*
X190307Y349909D02*
X189807Y350409D01*
X188808D01*
X188308Y349909D01*
Y349409D01*
X188808Y348909D01*
X189807D01*
X190307Y348410D01*
Y347910D01*
X189807Y347410D01*
X188808D01*
X188308Y347910D01*
X193306Y350409D02*
X191307D01*
Y347410D01*
X193306D01*
X191307Y348909D02*
X192307D01*
X194306Y350409D02*
X196305D01*
X195306D01*
Y347410D01*
X188119Y320740D02*
X186120D01*
X188119Y322739D01*
Y323239D01*
X187619Y323739D01*
X186620D01*
X186120Y323239D01*
X189119D02*
X189619Y323739D01*
X190618D01*
X191118Y323239D01*
Y322739D01*
X190618Y322239D01*
X191118Y321740D01*
Y321240D01*
X190618Y320740D01*
X189619D01*
X189119Y321240D01*
Y321740D01*
X189619Y322239D01*
X189119Y322739D01*
Y323239D01*
X189619Y322239D02*
X190618D01*
X182310Y296610D02*
Y299609D01*
X183810D01*
X184309Y299109D01*
Y298109D01*
X183810Y297610D01*
X182310D01*
X183310D02*
X184309Y296610D01*
X187308Y299609D02*
X185309D01*
Y296610D01*
X187308D01*
X185309Y298109D02*
X186309D01*
X190307Y299109D02*
X189807Y299609D01*
X188808D01*
X188308Y299109D01*
Y298609D01*
X188808Y298109D01*
X189807D01*
X190307Y297610D01*
Y297110D01*
X189807Y296610D01*
X188808D01*
X188308Y297110D01*
X193306Y299609D02*
X191307D01*
Y296610D01*
X193306D01*
X191307Y298109D02*
X192307D01*
X194306Y299609D02*
X196305D01*
X195306D01*
Y296610D01*
X188119Y268670D02*
X186120D01*
X188119Y270669D01*
Y271169D01*
X187619Y271669D01*
X186620D01*
X186120Y271169D01*
X189119Y271669D02*
X191118D01*
Y271169D01*
X189119Y269170D01*
Y268670D01*
X188119Y244540D02*
X186120D01*
X188119Y246539D01*
Y247039D01*
X187619Y247539D01*
X186620D01*
X186120Y247039D01*
X191118Y247539D02*
X190119Y247039D01*
X189119Y246040D01*
Y245040D01*
X189619Y244540D01*
X190618D01*
X191118Y245040D01*
Y245540D01*
X190618Y246040D01*
X189119D01*
X188119Y219140D02*
X186120D01*
X188119Y221139D01*
Y221639D01*
X187619Y222139D01*
X186620D01*
X186120Y221639D01*
X191118Y222139D02*
X189119D01*
Y220639D01*
X190119Y221139D01*
X190618D01*
X191118Y220639D01*
Y219640D01*
X190618Y219140D01*
X189619D01*
X189119Y219640D01*
X188119Y193740D02*
X186120D01*
X188119Y195739D01*
Y196239D01*
X187619Y196739D01*
X186620D01*
X186120Y196239D01*
X190618Y193740D02*
Y196739D01*
X189119Y195240D01*
X191118D01*
X188119Y117540D02*
X186120D01*
X188119Y119539D01*
Y120039D01*
X187619Y120539D01*
X186620D01*
X186120Y120039D01*
X189119D02*
X189619Y120539D01*
X190618D01*
X191118Y120039D01*
Y118040D01*
X190618Y117540D01*
X189619D01*
X189119Y118040D01*
Y120039D01*
X186120Y92140D02*
X187120D01*
X186620D01*
Y95139D01*
X186120Y94639D01*
X188619Y92640D02*
X189119Y92140D01*
X190119D01*
X190618Y92640D01*
Y94639D01*
X190119Y95139D01*
X189119D01*
X188619Y94639D01*
Y94139D01*
X189119Y93639D01*
X190618D01*
X183580Y70509D02*
X184080Y71009D01*
X185079D01*
X185579Y70509D01*
Y70009D01*
X185079Y69510D01*
X184580D01*
X185079D01*
X185579Y69010D01*
Y68510D01*
X185079Y68010D01*
X184080D01*
X183580Y68510D01*
X186579Y71009D02*
Y69010D01*
X187579Y68010D01*
X188578Y69010D01*
Y71009D01*
X189578Y70509D02*
X190078Y71009D01*
X191077D01*
X191577Y70509D01*
Y70009D01*
X191077Y69510D01*
X190578D01*
X191077D01*
X191577Y69010D01*
Y68510D01*
X191077Y68010D01*
X190078D01*
X189578Y68510D01*
X185579Y45109D02*
X185079Y45609D01*
X184080D01*
X183580Y45109D01*
Y44609D01*
X184080Y44110D01*
X185079D01*
X185579Y43610D01*
Y43110D01*
X185079Y42610D01*
X184080D01*
X183580Y43110D01*
X188578Y45109D02*
X188078Y45609D01*
X187079D01*
X186579Y45109D01*
Y43110D01*
X187079Y42610D01*
X188078D01*
X188578Y43110D01*
X189578Y45609D02*
Y42610D01*
Y43610D01*
X191577Y45609D01*
X190078Y44110D01*
X191577Y42610D01*
X26100Y41340D02*
Y44339D01*
X27100Y43339D01*
X28099Y44339D01*
Y41340D01*
X29099Y44339D02*
X30099D01*
X29599D01*
Y41340D01*
X29099D01*
X30099D01*
X33598Y43839D02*
X33098Y44339D01*
X32098D01*
X31598Y43839D01*
Y43339D01*
X32098Y42839D01*
X33098D01*
X33598Y42340D01*
Y41840D01*
X33098Y41340D01*
X32098D01*
X31598Y41840D01*
X36097Y44339D02*
X35097D01*
X34597Y43839D01*
Y41840D01*
X35097Y41340D01*
X36097D01*
X36597Y41840D01*
Y43839D01*
X36097Y44339D01*
X26100Y66740D02*
Y69739D01*
X27100Y68739D01*
X28099Y69739D01*
Y66740D01*
X30598Y69739D02*
X29599D01*
X29099Y69239D01*
Y67240D01*
X29599Y66740D01*
X30598D01*
X31098Y67240D01*
Y69239D01*
X30598Y69739D01*
X34097Y69239D02*
X33598Y69739D01*
X32598D01*
X32098Y69239D01*
Y68739D01*
X32598Y68239D01*
X33598D01*
X34097Y67740D01*
Y67240D01*
X33598Y66740D01*
X32598D01*
X32098Y67240D01*
X35097Y69739D02*
X36097D01*
X35597D01*
Y66740D01*
X35097D01*
X36097D01*
X26100Y92140D02*
X27100D01*
X26600D01*
Y95139D01*
X26100Y94639D01*
X30099Y92140D02*
Y95139D01*
X28599Y93639D01*
X30598D01*
X26100Y117540D02*
X27100D01*
X26600D01*
Y120539D01*
X26100Y120039D01*
X28599D02*
X29099Y120539D01*
X30099D01*
X30598Y120039D01*
Y119539D01*
X30099Y119039D01*
X29599D01*
X30099D01*
X30598Y118540D01*
Y118040D01*
X30099Y117540D01*
X29099D01*
X28599Y118040D01*
X26100Y142940D02*
X27100D01*
X26600D01*
Y145939D01*
X26100Y145439D01*
X30598Y142940D02*
X28599D01*
X30598Y144939D01*
Y145439D01*
X30099Y145939D01*
X29099D01*
X28599Y145439D01*
X26100Y168340D02*
X27100D01*
X26600D01*
Y171339D01*
X26100Y170839D01*
X28599Y168340D02*
X29599D01*
X29099D01*
Y171339D01*
X28599Y170839D01*
X26100Y193740D02*
X27100D01*
X26600D01*
Y196739D01*
X26100Y196239D01*
X28599D02*
X29099Y196739D01*
X30099D01*
X30598Y196239D01*
Y194240D01*
X30099Y193740D01*
X29099D01*
X28599Y194240D01*
Y196239D01*
X27370Y218370D02*
X27870Y217870D01*
X28870D01*
X29369Y218370D01*
Y220369D01*
X28870Y220869D01*
X27870D01*
X27370Y220369D01*
Y219869D01*
X27870Y219370D01*
X29369D01*
Y243270D02*
X27370D01*
X29369Y245269D01*
Y245769D01*
X28870Y246269D01*
X27870D01*
X27370Y245769D01*
Y268670D02*
X28370D01*
X27870D01*
Y271669D01*
X27370Y271169D01*
X26829Y299109D02*
X26330Y299609D01*
X25330D01*
X24830Y299109D01*
Y297110D01*
X25330Y296610D01*
X26330D01*
X26829Y297110D01*
Y298109D01*
X25830D01*
X27829Y296610D02*
Y299609D01*
X29828Y296610D01*
Y299609D01*
X30828D02*
Y296610D01*
X32327D01*
X32827Y297110D01*
Y299109D01*
X32327Y299609D01*
X30828D01*
X28099Y323739D02*
X26100D01*
Y322239D01*
X27100Y322739D01*
X27599D01*
X28099Y322239D01*
Y321240D01*
X27599Y320740D01*
X26600D01*
X26100Y321240D01*
X29099Y323739D02*
Y321740D01*
X30099Y320740D01*
X31098Y321740D01*
Y323739D01*
X26100Y348639D02*
X26600Y349139D01*
X27599D01*
X28099Y348639D01*
Y348139D01*
X27599Y347640D01*
X27100D01*
X27599D01*
X28099Y347140D01*
Y346640D01*
X27599Y346140D01*
X26600D01*
X26100Y346640D01*
X31098Y346140D02*
X29099D01*
X31098Y348139D01*
Y348639D01*
X30598Y349139D01*
X29599D01*
X29099Y348639D01*
X24830Y374539D02*
X26829D01*
X25830D01*
Y371540D01*
X27829Y374539D02*
X29828Y371540D01*
Y374539D02*
X27829Y371540D01*
X17210Y399480D02*
Y402479D01*
X18709D01*
X19209Y401979D01*
Y400979D01*
X18709Y400480D01*
X17210D01*
X18210D02*
X19209Y399480D01*
X20209Y402479D02*
X22208Y399480D01*
Y402479D02*
X20209Y399480D01*
D16*
X117476Y122554D02*
X120015D01*
X118746D01*
Y118746D01*
X121285Y122554D02*
X123824Y118746D01*
Y122554D02*
X121285Y118746D01*
X94616D02*
Y122554D01*
X96520D01*
X97155Y121920D01*
Y120650D01*
X96520Y120015D01*
X94616D01*
X95886D02*
X97155Y118746D01*
X98425Y122554D02*
X100964Y118746D01*
Y122554D02*
X98425Y118746D01*
X68582D02*
Y122554D01*
X70486D01*
X71121Y121920D01*
Y120650D01*
X70486Y120015D01*
X68582D01*
X72390Y122554D02*
Y118746D01*
X73660Y120015D01*
X74930Y118746D01*
Y122554D01*
X76199Y118746D02*
Y122554D01*
X78104D01*
X78738Y121920D01*
Y120650D01*
X78104Y120015D01*
X76199D01*
X77469D02*
X78738Y118746D01*
X140971Y121920D02*
X140336Y122554D01*
X139066D01*
X138432Y121920D01*
Y119380D01*
X139066Y118746D01*
X140336D01*
X140971Y119380D01*
X142240Y122554D02*
Y118746D01*
X144780D01*
X146049Y122554D02*
Y118746D01*
Y120015D01*
X148588Y122554D01*
X146684Y120650D01*
X148588Y118746D01*
M02*
