G04*
G04 #@! TF.GenerationSoftware,Altium Limited,Altium Designer,26.9.1 (10)*
G04*
G04 Layer_Physical_Order=4*
G04 Layer_Color=16711680*
G04 Board_Origin=34100000|22900000*
%FSLAX44Y44*%
%MOMM*%
G71*
G04*
G04 #@! TF.SameCoordinates,422ACB3C-2A18-4883-AF2F-CBEBC1C0E268*
G04*
G04*
G04 #@! TF.FilePolarity,Positive*
G04*
G01*
G75*
G04:AMPARAMS|DCode=24|XSize=1.025mm|YSize=1.35mm|CornerRadius=0.1281mm|HoleSize=0mm|Usage=FLASHONLY|Rotation=270.000|XOffset=0mm|YOffset=0mm|HoleType=Round|Shape=RoundedRectangle|*
%AMROUNDEDRECTD24*
21,1,1.0250,1.0938,0,0,270.0*
21,1,0.7688,1.3500,0,0,270.0*
1,1,0.2563,-0.5469,-0.3844*
1,1,0.2563,-0.5469,0.3844*
1,1,0.2563,0.5469,0.3844*
1,1,0.2563,0.5469,-0.3844*
%
%ADD24ROUNDEDRECTD24*%
G04:AMPARAMS|DCode=29|XSize=0.55mm|YSize=0.5mm|CornerRadius=0.0625mm|HoleSize=0mm|Usage=FLASHONLY|Rotation=0.000|XOffset=0mm|YOffset=0mm|HoleType=Round|Shape=RoundedRectangle|*
%AMROUNDEDRECTD29*
21,1,0.5500,0.3750,0,0,0.0*
21,1,0.4250,0.5000,0,0,0.0*
1,1,0.1250,0.2125,-0.1875*
1,1,0.1250,-0.2125,-0.1875*
1,1,0.1250,-0.2125,0.1875*
1,1,0.1250,0.2125,0.1875*
%
%ADD29ROUNDEDRECTD29*%
%ADD34R,1.5500X1.5500*%
%ADD35C,1.5500*%
%ADD36C,1.5700*%
%ADD37R,1.5700X1.5700*%
%ADD38C,0.8000*%
%ADD39C,0.6000*%
%ADD40C,0.2540*%
%ADD41C,0.3810*%
%ADD42C,0.3000*%
%ADD50R,1.0000X1.1000*%
%ADD51R,1.4057X1.5082*%
%ADD52R,3.3000X2.7000*%
%ADD53R,1.0000X2.7000*%
%ADD54O,1.8500X0.4500*%
%ADD55R,1.8000X1.2000*%
G04:AMPARAMS|DCode=56|XSize=1.025mm|YSize=1.35mm|CornerRadius=0.1281mm|HoleSize=0mm|Usage=FLASHONLY|Rotation=180.000|XOffset=0mm|YOffset=0mm|HoleType=Round|Shape=RoundedRectangle|*
%AMROUNDEDRECTD56*
21,1,1.0250,1.0938,0,0,180.0*
21,1,0.7688,1.3500,0,0,180.0*
1,1,0.2563,-0.3844,0.5469*
1,1,0.2563,0.3844,0.5469*
1,1,0.2563,0.3844,-0.5469*
1,1,0.2563,-0.3844,-0.5469*
%
%ADD56ROUNDEDRECTD56*%
G04:AMPARAMS|DCode=57|XSize=0.55mm|YSize=0.5mm|CornerRadius=0.0625mm|HoleSize=0mm|Usage=FLASHONLY|Rotation=270.000|XOffset=0mm|YOffset=0mm|HoleType=Round|Shape=RoundedRectangle|*
%AMROUNDEDRECTD57*
21,1,0.5500,0.3750,0,0,270.0*
21,1,0.4250,0.5000,0,0,270.0*
1,1,0.1250,-0.1875,-0.2125*
1,1,0.1250,-0.1875,0.2125*
1,1,0.1250,0.1875,0.2125*
1,1,0.1250,0.1875,-0.2125*
%
%ADD57ROUNDEDRECTD57*%
G36*
X217170Y336423D02*
X215329Y335527D01*
X214170Y335375D01*
X210637Y338908D01*
X209556Y339630D01*
X208280Y339884D01*
X206154D01*
X206029Y340352D01*
X204732Y342598D01*
X202898Y344432D01*
X200652Y345729D01*
X198147Y346400D01*
X195553D01*
X193200Y345770D01*
X186651Y352319D01*
X187739Y355473D01*
X188536Y355570D01*
X190470Y353636D01*
X192840Y352268D01*
X195482Y351560D01*
X195580D01*
Y361950D01*
Y372340D01*
X195482D01*
X192840Y371632D01*
X190470Y370264D01*
X188536Y368330D01*
X187168Y365960D01*
X186709Y364249D01*
X181122D01*
X180196Y367093D01*
X180194Y367249D01*
X183967Y371022D01*
X184690Y372104D01*
X184944Y373380D01*
Y375352D01*
X187000Y377500D01*
X206700D01*
Y397200D01*
X187000D01*
Y393224D01*
X185420D01*
X184144Y392970D01*
X183062Y392248D01*
X181512Y390697D01*
X180775Y390814D01*
X178594Y392022D01*
Y401209D01*
X181994Y404609D01*
X182957Y404210D01*
X185343D01*
X187549Y405123D01*
X189237Y406811D01*
X190150Y409016D01*
Y411404D01*
X189237Y413609D01*
X187549Y415297D01*
X185343Y416210D01*
X182957D01*
X180751Y415297D01*
X179063Y413609D01*
X178723Y412786D01*
X175475D01*
X175041Y413834D01*
X173353Y415522D01*
X171148Y416435D01*
X168761D01*
X166556Y415522D01*
X164868Y413834D01*
X164841Y413769D01*
X143740D01*
X138870Y418640D01*
X139136Y420156D01*
X139965Y421640D01*
X217170D01*
Y336423D01*
D02*
G37*
G36*
X19959Y420156D02*
X20225Y418640D01*
X6842Y405257D01*
X6120Y404176D01*
X5866Y402900D01*
Y367136D01*
X6120Y365860D01*
X6842Y364778D01*
X9510Y362110D01*
X10470Y361469D01*
Y360653D01*
X11141Y358148D01*
X12438Y355902D01*
X14272Y354068D01*
X16518Y352771D01*
X19023Y352100D01*
X21617D01*
X24122Y352771D01*
X26368Y354068D01*
X28202Y355902D01*
X29499Y358148D01*
X30170Y360653D01*
Y363247D01*
X29499Y365752D01*
X28202Y367998D01*
X26368Y369832D01*
X24122Y371129D01*
X21617Y371800D01*
X19023D01*
X16518Y371129D01*
X15534Y370561D01*
X12534Y372120D01*
Y377500D01*
X30170D01*
Y397200D01*
X12534D01*
Y401519D01*
X24336Y413321D01*
X63303D01*
X64683Y410321D01*
X64532Y410094D01*
X64229Y408570D01*
Y404429D01*
X61228Y403187D01*
X60549Y403867D01*
X58344Y404780D01*
X55957D01*
X53751Y403867D01*
X52180Y402295D01*
X51571Y402329D01*
X50481Y402660D01*
X49207Y403760D01*
X49093Y403993D01*
X48267Y405989D01*
X46579Y407677D01*
X44373Y408590D01*
X41986D01*
X39781Y407677D01*
X38093Y405989D01*
X37180Y403783D01*
Y401396D01*
X37271Y401178D01*
X35355Y399262D01*
X34492Y397970D01*
X34188Y396446D01*
Y331712D01*
X33083Y330607D01*
X32170Y328401D01*
Y326014D01*
X33083Y323809D01*
X34771Y322121D01*
X36976Y321208D01*
X39363D01*
X42106Y319097D01*
Y309711D01*
X38282Y305888D01*
X37560Y304806D01*
X37306Y303530D01*
Y157591D01*
X31932Y152218D01*
X31210Y151136D01*
X30956Y149860D01*
Y140628D01*
X29032Y139769D01*
X27956Y139644D01*
X26368Y141232D01*
X24122Y142529D01*
X21617Y143200D01*
X19023D01*
X16518Y142529D01*
X14272Y141232D01*
X12438Y139398D01*
X11141Y137152D01*
X10470Y134647D01*
Y132053D01*
X11141Y129548D01*
X12438Y127302D01*
X14272Y125468D01*
X16518Y124171D01*
X19023Y123500D01*
X21617D01*
X24122Y124171D01*
X26368Y125468D01*
X27956Y127056D01*
X29032Y126931D01*
X30956Y126072D01*
Y115228D01*
X29032Y114369D01*
X27956Y114244D01*
X26368Y115832D01*
X24122Y117129D01*
X21617Y117800D01*
X19023D01*
X16518Y117129D01*
X14272Y115832D01*
X12438Y113998D01*
X11141Y111752D01*
X10470Y109247D01*
Y106653D01*
X11141Y104148D01*
X12438Y101902D01*
X14272Y100068D01*
X16518Y98771D01*
X19023Y98100D01*
X21617D01*
X24122Y98771D01*
X26368Y100068D01*
X27956Y101656D01*
X29032Y101531D01*
X30956Y100672D01*
Y89828D01*
X29032Y88969D01*
X27956Y88844D01*
X26368Y90432D01*
X24122Y91729D01*
X21617Y92400D01*
X19023D01*
X16518Y91729D01*
X14272Y90432D01*
X12438Y88598D01*
X11141Y86352D01*
X10470Y83847D01*
Y81253D01*
X11141Y78748D01*
X12438Y76502D01*
X14272Y74668D01*
X16518Y73371D01*
X19023Y72700D01*
X21617D01*
X24122Y73371D01*
X26368Y74668D01*
X27956Y76256D01*
X29032Y76131D01*
X30956Y75272D01*
Y64428D01*
X29032Y63569D01*
X27956Y63444D01*
X26368Y65032D01*
X24122Y66329D01*
X21617Y67000D01*
X19023D01*
X16518Y66329D01*
X14272Y65032D01*
X12438Y63198D01*
X11141Y60952D01*
X10470Y58447D01*
Y55853D01*
X11141Y53348D01*
X12438Y51102D01*
X14272Y49268D01*
X16518Y47971D01*
X19023Y47300D01*
X21617D01*
X24122Y47971D01*
X26368Y49268D01*
X27956Y50856D01*
X29032Y50731D01*
X30956Y49872D01*
Y39028D01*
X29032Y38169D01*
X27956Y38044D01*
X26368Y39632D01*
X24122Y40929D01*
X21617Y41600D01*
X19023D01*
X16518Y40929D01*
X14272Y39632D01*
X12438Y37798D01*
X11141Y35552D01*
X10470Y33047D01*
Y30453D01*
X11141Y27948D01*
X12438Y25702D01*
X14272Y23868D01*
X16518Y22571D01*
X19023Y21900D01*
X21617D01*
X24122Y22571D01*
X26368Y23868D01*
X28202Y25702D01*
X29499Y27948D01*
X29624Y28416D01*
X31750D01*
X32801Y28625D01*
X33135Y28602D01*
X35274Y27268D01*
X35290Y26678D01*
X35286Y24215D01*
X34137Y23066D01*
X33276Y21574D01*
X32940Y20320D01*
X39370D01*
Y19050D01*
X40640D01*
Y12620D01*
X41894Y12956D01*
X43386Y13817D01*
X44603Y15034D01*
X45464Y16526D01*
X45682Y17339D01*
X47440Y18672D01*
X48910Y19136D01*
X49530Y18970D01*
Y25400D01*
X50800D01*
Y26670D01*
X57230D01*
X56894Y27924D01*
X56033Y29416D01*
X54816Y30633D01*
X54369Y30891D01*
Y61174D01*
X57369Y62416D01*
X57561Y62223D01*
X59767Y61310D01*
X62154D01*
X64359Y62223D01*
X66047Y63911D01*
X66073Y63976D01*
X79977D01*
X80003Y63911D01*
X81691Y62223D01*
X83897Y61310D01*
X86284D01*
X88489Y62223D01*
X90177Y63911D01*
X91090Y66116D01*
Y67592D01*
X93834Y69058D01*
X93862Y69063D01*
X94163Y68762D01*
X95244Y68040D01*
X96520Y67786D01*
X104107D01*
X104133Y67721D01*
X105821Y66033D01*
X108027Y65120D01*
X110414D01*
X112619Y66033D01*
X114306Y67721D01*
X114572Y67745D01*
X117533Y67672D01*
X118782Y66423D01*
X120650Y65650D01*
Y71120D01*
X123190D01*
Y65650D01*
X125058Y66423D01*
X126617Y67982D01*
X127159Y69292D01*
X129440Y70160D01*
X130460Y70233D01*
X147917Y52777D01*
X149074Y52003D01*
X150440Y51731D01*
X154822D01*
X156499Y49188D01*
X155361Y46749D01*
X126335D01*
Y48649D01*
X126038Y50140D01*
X125194Y51404D01*
X123930Y52248D01*
X122439Y52545D01*
X119865D01*
Y43180D01*
Y33815D01*
X122439D01*
X123930Y34112D01*
X125194Y34956D01*
X126038Y36220D01*
X126335Y37711D01*
Y39611D01*
X159190D01*
X160556Y39883D01*
X161290Y40374D01*
Y46300D01*
X162560D01*
Y47570D01*
X167912D01*
Y48175D01*
X167666Y49410D01*
X167518Y49699D01*
X168523Y52294D01*
X168831Y52656D01*
X188071D01*
X188968Y51102D01*
X190802Y49268D01*
X193048Y47971D01*
X195553Y47300D01*
X198147D01*
X200652Y47971D01*
X202898Y49268D01*
X203216Y49586D01*
X206216Y48343D01*
Y40557D01*
X203270Y39336D01*
X203146Y39384D01*
X202898Y39632D01*
X200652Y40929D01*
X198147Y41600D01*
X195553D01*
X193048Y40929D01*
X190802Y39632D01*
X188968Y37798D01*
X187671Y35552D01*
X187000Y33047D01*
Y30453D01*
X187671Y27948D01*
X188968Y25702D01*
X190802Y23868D01*
X193048Y22571D01*
X195553Y21900D01*
X198147D01*
X200652Y22571D01*
X202898Y23868D01*
X204732Y25702D01*
X206029Y27948D01*
X206679Y30373D01*
X207641Y30565D01*
X208722Y31287D01*
X211908Y34472D01*
X212630Y35554D01*
X212884Y36830D01*
Y67310D01*
X212630Y68586D01*
X211908Y69668D01*
X207787Y73787D01*
X206863Y74405D01*
X206646Y74619D01*
X205451Y77345D01*
X205455Y77754D01*
X206029Y78748D01*
X206700Y81253D01*
Y83847D01*
X206029Y86352D01*
X204732Y88598D01*
X202898Y90432D01*
X200652Y91729D01*
X198147Y92400D01*
X195553D01*
X193048Y91729D01*
X190802Y90432D01*
X188968Y88598D01*
X187671Y86352D01*
X187206Y84614D01*
X166481D01*
X165185Y85911D01*
Y102202D01*
X165249Y102229D01*
X166937Y103917D01*
X167850Y106122D01*
Y108509D01*
X166937Y110714D01*
X165249Y112402D01*
X163044Y113316D01*
X160657D01*
X160611Y113296D01*
X159705Y113704D01*
X157652Y115318D01*
X157473Y116218D01*
X156632Y117810D01*
X157473Y119402D01*
X157803Y121060D01*
X157473Y122718D01*
X156534Y124124D01*
Y124496D01*
X157473Y125902D01*
X157803Y127560D01*
X157473Y129218D01*
X156662Y130432D01*
X156923Y130607D01*
X157982Y132191D01*
X158101Y132790D01*
X146470D01*
Y135330D01*
X158101D01*
X157982Y135929D01*
X156923Y137513D01*
X156662Y137688D01*
X157473Y138902D01*
X157803Y140560D01*
X157473Y142218D01*
X156632Y143810D01*
X157473Y145402D01*
X157803Y147060D01*
X157473Y148718D01*
X156534Y150124D01*
Y150496D01*
X157473Y151902D01*
X157803Y153560D01*
X157473Y155218D01*
X157242Y155656D01*
X158033Y157053D01*
X160924Y157252D01*
X161492Y157092D01*
X162091Y156692D01*
X163115Y156489D01*
X166865D01*
X167656Y156646D01*
X168026Y156615D01*
X170656Y155125D01*
Y138430D01*
X170910Y137154D01*
X171632Y136073D01*
X176712Y130992D01*
X177794Y130270D01*
X179070Y130016D01*
X187546D01*
X187671Y129548D01*
X188968Y127302D01*
X190802Y125468D01*
X193048Y124171D01*
X195553Y123500D01*
X198147D01*
X200652Y124171D01*
X202898Y125468D01*
X204732Y127302D01*
X206029Y129548D01*
X206700Y132053D01*
Y134647D01*
X206029Y137152D01*
X204732Y139398D01*
X202898Y141232D01*
X200652Y142529D01*
X198147Y143200D01*
X195553D01*
X193048Y142529D01*
X190802Y141232D01*
X188968Y139398D01*
X187671Y137152D01*
X187546Y136684D01*
X180451D01*
X177324Y139811D01*
Y156983D01*
X177757Y157273D01*
X178338Y158141D01*
X178541Y159165D01*
Y161126D01*
X180278Y162863D01*
X181001Y163945D01*
X181255Y165221D01*
Y180951D01*
X184026Y182099D01*
X184320Y181805D01*
X185402Y181082D01*
X186678Y180828D01*
X187543D01*
X187671Y180348D01*
X188968Y178102D01*
X190802Y176268D01*
X193048Y174971D01*
X195553Y174300D01*
X198147D01*
X200652Y174971D01*
X202898Y176268D01*
X204732Y178102D01*
X206029Y180348D01*
X206700Y182853D01*
Y185447D01*
X206029Y187952D01*
X204732Y190198D01*
X202898Y192032D01*
X200652Y193329D01*
X198147Y194000D01*
X195553D01*
X193048Y193329D01*
X190802Y192032D01*
X189214Y190444D01*
X188137Y190569D01*
X186214Y191428D01*
Y202272D01*
X188137Y203131D01*
X189214Y203256D01*
X190802Y201668D01*
X193048Y200371D01*
X195553Y199700D01*
X198147D01*
X200652Y200371D01*
X202898Y201668D01*
X204732Y203502D01*
X206029Y205748D01*
X206700Y208253D01*
Y210847D01*
X206029Y213352D01*
X204732Y215598D01*
X202898Y217432D01*
X200652Y218729D01*
X198147Y219400D01*
X195553D01*
X193048Y218729D01*
X190802Y217432D01*
X189214Y215844D01*
X188196Y215863D01*
X186077Y216590D01*
X185960Y217176D01*
X185238Y218258D01*
X182656Y220839D01*
X181574Y221562D01*
X180298Y221816D01*
X175335D01*
X175308Y221880D01*
X173620Y223568D01*
X171415Y224482D01*
X169028D01*
X166823Y223568D01*
X165135Y221880D01*
X164222Y219675D01*
Y217288D01*
X164254Y217210D01*
X162821Y213486D01*
X162802Y213473D01*
X162149Y213208D01*
X159944Y214121D01*
X157556D01*
X156174Y213549D01*
X153845Y214637D01*
X153174Y215273D01*
Y272454D01*
X153716Y272996D01*
X162949D01*
X164229Y273250D01*
X165314Y273976D01*
X166040Y275061D01*
X166294Y276341D01*
Y284029D01*
X166040Y285309D01*
X165314Y286394D01*
X164229Y287120D01*
X162949Y287374D01*
X152137D01*
X151731Y287717D01*
X150089Y289724D01*
X152011Y291746D01*
X162949D01*
X164229Y292000D01*
X165314Y292726D01*
X166040Y293811D01*
X166294Y295091D01*
Y302779D01*
X166040Y304059D01*
X165412Y304998D01*
X165314Y305208D01*
Y308202D01*
X165412Y308412D01*
X166040Y309351D01*
X166294Y310631D01*
Y318319D01*
X166040Y319599D01*
X165314Y320684D01*
X164229Y321410D01*
X162949Y321664D01*
X157324D01*
X155736Y324664D01*
X156668Y326036D01*
X162949D01*
X164229Y326290D01*
X165314Y327016D01*
X166040Y328101D01*
X166294Y329381D01*
Y335705D01*
X170029Y339440D01*
X171374D01*
X173579Y340353D01*
X175267Y342041D01*
X176180Y344246D01*
Y346633D01*
X178224Y348564D01*
X180780Y348759D01*
X188226Y341313D01*
X187671Y340352D01*
X187000Y337847D01*
Y335253D01*
X187671Y332748D01*
X188968Y330502D01*
X190802Y328668D01*
X193048Y327371D01*
X195553Y326700D01*
X198147D01*
X200652Y327371D01*
X202898Y328668D01*
X204732Y330502D01*
X207571Y329462D01*
X208756Y328442D01*
Y315951D01*
X207387Y315450D01*
X205756Y315424D01*
X204732Y317198D01*
X202898Y319032D01*
X200652Y320329D01*
X198147Y321000D01*
X195553D01*
X193048Y320329D01*
X190802Y319032D01*
X188968Y317198D01*
X187671Y314952D01*
X187000Y312447D01*
Y309853D01*
X187671Y307348D01*
X188968Y305102D01*
X190802Y303268D01*
X193048Y301971D01*
X195553Y301300D01*
X198147D01*
X200652Y301971D01*
X202898Y303268D01*
X204732Y305102D01*
X205756Y306876D01*
X207387Y306850D01*
X208756Y306349D01*
Y292004D01*
X208245Y291676D01*
X204732Y291798D01*
X202898Y293632D01*
X200652Y294929D01*
X198147Y295600D01*
X195553D01*
X193048Y294929D01*
X192628Y294687D01*
X186507Y300807D01*
X185426Y301530D01*
X184150Y301784D01*
X178997D01*
X178092Y302689D01*
X176255Y303450D01*
X174265D01*
X172428Y302689D01*
X171021Y301282D01*
X170260Y299445D01*
Y297455D01*
X171021Y295618D01*
X172428Y294211D01*
X174265Y293450D01*
X176255D01*
X178092Y294211D01*
X178997Y295116D01*
X182769D01*
X187913Y289972D01*
X187671Y289552D01*
X187000Y287047D01*
Y284453D01*
X187671Y281948D01*
X188968Y279702D01*
X190802Y277868D01*
X193048Y276571D01*
X195553Y275900D01*
X198147D01*
X200652Y276571D01*
X202898Y277868D01*
X204732Y279702D01*
X206029Y281948D01*
X206154Y282416D01*
X209550D01*
X210826Y282670D01*
X211908Y283393D01*
X214170Y285655D01*
X215329Y285503D01*
X217170Y284607D01*
Y0D01*
X0D01*
Y421640D01*
X19130D01*
X19959Y420156D01*
D02*
G37*
G36*
X125259Y410321D02*
X125116Y410178D01*
X123761Y407832D01*
X123060Y405215D01*
Y405130D01*
X143640D01*
Y405215D01*
X145088Y407101D01*
X164841D01*
X164868Y407037D01*
X166556Y405349D01*
X168761Y404435D01*
X169234D01*
X171604Y402811D01*
X171926Y401664D01*
Y393446D01*
X169471Y391224D01*
X169415Y391232D01*
X168602Y392226D01*
X167598Y394512D01*
X167720Y394970D01*
X154860D01*
X155196Y393716D01*
X156057Y392224D01*
X155347Y389429D01*
X155039Y389000D01*
X154197Y388438D01*
X145955Y380196D01*
X142711Y381194D01*
X142436Y382223D01*
X141152Y384447D01*
X139337Y386262D01*
X137113Y387546D01*
X134634Y388210D01*
X132066D01*
X129587Y387546D01*
X127363Y386262D01*
X125548Y384447D01*
X124264Y382223D01*
X123600Y379744D01*
Y377176D01*
X124264Y374697D01*
X124797Y373774D01*
X123210Y370774D01*
X120351D01*
X116813Y374312D01*
X117036Y374697D01*
X117700Y377176D01*
Y379744D01*
X117036Y382223D01*
X115752Y384447D01*
X113937Y386262D01*
X111713Y387546D01*
X109234Y388210D01*
X106666D01*
X104187Y387546D01*
X103072Y386902D01*
X100258Y388261D01*
X100072Y388479D01*
Y390319D01*
X99769Y391843D01*
X98906Y393134D01*
X91701Y400340D01*
X92300Y402576D01*
Y405144D01*
X91636Y407623D01*
X90352Y409847D01*
X89878Y410321D01*
X91120Y413321D01*
X99380D01*
X100622Y410321D01*
X100148Y409847D01*
X98864Y407623D01*
X98200Y405144D01*
Y402576D01*
X98864Y400097D01*
X100148Y397873D01*
X101963Y396058D01*
X104187Y394775D01*
X106666Y394110D01*
X109234D01*
X111713Y394775D01*
X113937Y396058D01*
X115752Y397873D01*
X117036Y400097D01*
X117700Y402576D01*
Y405144D01*
X117036Y407623D01*
X115752Y409847D01*
X115278Y410321D01*
X116520Y413321D01*
X124016D01*
X125259Y410321D01*
D02*
G37*
G36*
X176095Y386426D02*
X178276Y385218D01*
Y374761D01*
X176419Y372904D01*
X152013D01*
X150865Y375676D01*
X157936Y382746D01*
X170180D01*
X171456Y383000D01*
X172537Y383722D01*
X175358Y386543D01*
X176095Y386426D01*
D02*
G37*
G36*
X116613Y365083D02*
X117694Y364360D01*
X118970Y364106D01*
X132416D01*
X132984Y362736D01*
X133307Y361386D01*
X131702Y358690D01*
X126490D01*
Y327690D01*
X140490D01*
Y327690D01*
X143490Y329299D01*
X143537Y329280D01*
X145062D01*
X146491Y326701D01*
X146533Y326508D01*
X143399Y323374D01*
X127000D01*
X125724Y323120D01*
X124642Y322397D01*
X122102Y319858D01*
X121380Y318776D01*
X121126Y317500D01*
Y308803D01*
X121061Y308776D01*
X119373Y307089D01*
X118460Y304883D01*
Y303974D01*
X115779Y301725D01*
X114472Y302158D01*
Y327690D01*
X117490D01*
Y358690D01*
X109121D01*
X101758Y366052D01*
X101953Y367200D01*
X102582Y367812D01*
X105313Y369073D01*
X106666Y368710D01*
X109234D01*
X111713Y369375D01*
X112098Y369597D01*
X116613Y365083D01*
D02*
G37*
G36*
X53751Y393693D02*
X55957Y392780D01*
X58344D01*
X60549Y393693D01*
X61228Y394373D01*
X64229Y393131D01*
Y360974D01*
X61420Y360512D01*
X60577Y362548D01*
X59018Y364107D01*
X57150Y364880D01*
Y359410D01*
X54610D01*
Y364880D01*
X52742Y364107D01*
X51774Y363139D01*
X49016Y363907D01*
X48774Y364058D01*
Y390769D01*
X52725Y394720D01*
X53751Y393693D01*
D02*
G37*
G36*
X64229Y357846D02*
Y324322D01*
X61250Y324270D01*
X58668Y324445D01*
X58386Y327411D01*
X59307Y328332D01*
X60080Y330200D01*
X54610D01*
Y332740D01*
X60080D01*
X59307Y334608D01*
X58179Y335736D01*
Y354366D01*
X59018Y354713D01*
X60577Y356272D01*
X61420Y358308D01*
X64229Y357846D01*
D02*
G37*
G36*
X70051Y288941D02*
X65076D01*
Y289481D01*
X59076D01*
Y308190D01*
X61250D01*
Y308730D01*
X70051D01*
Y288941D01*
D02*
G37*
G36*
X147648Y285949D02*
X148825Y284832D01*
X148666Y284029D01*
Y277376D01*
X147483Y276192D01*
X146760Y275111D01*
X146506Y273835D01*
Y258369D01*
X143734Y257221D01*
X140574Y260381D01*
Y283387D01*
X142515Y285830D01*
X144505D01*
X146342Y286591D01*
X146351Y286600D01*
X147648Y285949D01*
D02*
G37*
G36*
X81743Y367839D02*
X82665Y365710D01*
X82160Y364490D01*
X87630D01*
Y361950D01*
X81971D01*
X80039Y359230D01*
X79950D01*
Y344460D01*
X87490D01*
X95030D01*
Y357277D01*
X98030Y358519D01*
X103490Y353059D01*
Y327690D01*
X106509D01*
Y299690D01*
X91990D01*
Y268690D01*
X99875D01*
X100766Y267887D01*
X101631Y265690D01*
X100975Y264790D01*
X99471Y264167D01*
X97783Y262479D01*
X96870Y260273D01*
Y257887D01*
X97783Y255681D01*
X99471Y253993D01*
X101677Y253080D01*
X104064D01*
X106269Y253993D01*
X107613Y255338D01*
X110273Y255384D01*
X110873Y255307D01*
X112432Y253748D01*
X114300Y252975D01*
Y258445D01*
X115570D01*
Y259715D01*
X121040D01*
X120267Y261583D01*
X118708Y263142D01*
X117240Y263750D01*
X115714Y266724D01*
X116581Y268690D01*
X128990D01*
Y299690D01*
X128990Y299690D01*
X128990D01*
X129355Y300084D01*
X129547Y300291D01*
X130460Y302496D01*
Y304883D01*
X129547Y307089D01*
X127859Y308776D01*
X127794Y308803D01*
Y316119D01*
X128381Y316706D01*
X144780D01*
X145666Y316882D01*
X146608Y316565D01*
X148666Y315096D01*
Y312001D01*
X134882Y298218D01*
X134160Y297136D01*
X133906Y295860D01*
Y259000D01*
X134160Y257724D01*
X134774Y256805D01*
X134629Y256277D01*
X133350Y254427D01*
Y247650D01*
X132080D01*
Y246380D01*
X125650D01*
X125808Y245790D01*
X124813Y243831D01*
X123870Y242790D01*
X121490D01*
Y235520D01*
X133030D01*
Y232980D01*
X121490D01*
Y228402D01*
X121490Y225710D01*
X119459Y225630D01*
X119457Y225630D01*
X118660Y225300D01*
X117251Y224717D01*
X114376Y226084D01*
Y234161D01*
X115577Y235361D01*
X116490Y237567D01*
Y239953D01*
X115577Y242159D01*
X113889Y243847D01*
X111684Y244760D01*
X110121D01*
X107014Y247867D01*
X105722Y248730D01*
X104198Y249033D01*
X71958D01*
X71400Y249591D01*
Y258960D01*
X70423D01*
Y269647D01*
X70634Y269859D01*
X83061D01*
Y288941D01*
X78014D01*
Y310403D01*
X77711Y311927D01*
X76848Y313218D01*
X75210Y314856D01*
Y323730D01*
X72192D01*
Y365962D01*
X72800Y368710D01*
X81043D01*
X81743Y367839D01*
D02*
G37*
G36*
X174586Y204239D02*
Y186258D01*
X173808Y185586D01*
X171586Y184592D01*
X170103Y185206D01*
X168541D01*
X165511Y188235D01*
X164220Y189098D01*
X162696Y189401D01*
X149107D01*
X147583Y189098D01*
X146292Y188235D01*
X145666Y187610D01*
X143587D01*
X141381Y186697D01*
X139693Y185009D01*
X139684Y184986D01*
X136684Y185583D01*
Y192929D01*
X136861Y193106D01*
X145265D01*
X146541Y193360D01*
X147622Y194083D01*
X152198Y198657D01*
X152920Y199739D01*
X153174Y201015D01*
X153777Y201574D01*
X156174Y202694D01*
X157556Y202122D01*
X159944D01*
X162149Y203035D01*
X163837Y204723D01*
X164035Y205201D01*
X173624D01*
X174586Y204239D01*
D02*
G37*
G36*
X51170Y243420D02*
X57440D01*
Y243960D01*
X65769D01*
X67493Y242236D01*
X68785Y241373D01*
X69426Y241246D01*
X71251Y238854D01*
X71470Y238340D01*
Y235953D01*
X72383Y233748D01*
X74071Y232060D01*
X76276Y231147D01*
X78664D01*
X79030Y231299D01*
X82030Y229302D01*
Y226250D01*
X104030D01*
X106413Y224762D01*
Y221026D01*
X104570Y218790D01*
X94300D01*
Y210250D01*
Y201710D01*
X104570D01*
X106413Y199474D01*
Y192054D01*
X95619Y181260D01*
X94057D01*
X91851Y180347D01*
X90163Y178659D01*
X89250Y176453D01*
Y174067D01*
X90163Y171861D01*
X91851Y170173D01*
X92418Y169939D01*
X91821Y166939D01*
X89118D01*
X87842Y166685D01*
X86760Y165962D01*
X86115Y165317D01*
X83920Y166287D01*
X83272Y166717D01*
X82973Y168218D01*
X82132Y169810D01*
X82973Y171402D01*
X83303Y173060D01*
X82973Y174718D01*
X82034Y176124D01*
X80628Y177063D01*
X78970Y177393D01*
X64970D01*
X63312Y177063D01*
X61906Y176124D01*
X60967Y174718D01*
X60637Y173060D01*
X60967Y171402D01*
X61808Y169810D01*
X60967Y168218D01*
X60637Y166560D01*
X58292Y163916D01*
X50559D01*
Y205532D01*
X51708Y206681D01*
X81490D01*
Y201710D01*
X91760D01*
Y210250D01*
Y218790D01*
X81490D01*
Y213819D01*
X50230D01*
X48864Y213547D01*
X47707Y212773D01*
X46974Y212041D01*
X43974Y213283D01*
Y243420D01*
X48630D01*
Y251460D01*
X51170D01*
Y243420D01*
D02*
G37*
G36*
X128641Y197089D02*
X130083Y194646D01*
X130016Y194310D01*
Y176358D01*
X130270Y175082D01*
X130992Y174001D01*
X133957Y171037D01*
X135467Y168218D01*
X135318Y167473D01*
X135137Y166560D01*
X135467Y164902D01*
X136406Y163496D01*
Y163124D01*
X135467Y161718D01*
X135137Y160060D01*
X132708Y157542D01*
X129430D01*
X127906Y157238D01*
X126615Y156375D01*
X125321Y155082D01*
X123109Y155489D01*
X122120Y156123D01*
X121931Y157896D01*
X123197Y159161D01*
X124110Y161367D01*
Y163754D01*
X123197Y165959D01*
X121509Y167647D01*
X119304Y168560D01*
X116917D01*
X114711Y167647D01*
X113023Y165959D01*
X112110Y163754D01*
Y161367D01*
X113023Y159161D01*
X114711Y157473D01*
X114776Y157447D01*
Y152511D01*
X99894Y137629D01*
X91977D01*
X91332Y138360D01*
X90486Y140629D01*
X90710Y140964D01*
X90964Y142240D01*
Y156658D01*
X93964Y157901D01*
X94391Y157473D01*
X96596Y156560D01*
X98983D01*
X101189Y157473D01*
X102877Y159161D01*
X103790Y161367D01*
Y163754D01*
X102877Y165959D01*
X101189Y167647D01*
X100490Y167936D01*
X99807Y171332D01*
X100337Y171861D01*
X101250Y174067D01*
Y175629D01*
X106798Y181178D01*
X108011Y180778D01*
X109570Y179707D01*
Y177876D01*
X110483Y175671D01*
X112171Y173983D01*
X114376Y173070D01*
X116763D01*
X118969Y173983D01*
X120657Y175671D01*
X121570Y177876D01*
Y180264D01*
X120657Y182469D01*
X118969Y184157D01*
X118904Y184183D01*
Y196739D01*
X119811Y197646D01*
X128038D01*
X128641Y197089D01*
D02*
G37*
G36*
X162910Y179576D02*
Y178013D01*
X163823Y175807D01*
X165511Y174120D01*
X167717Y173206D01*
X170103D01*
X171586Y173820D01*
X173808Y172826D01*
X174586Y172155D01*
Y166602D01*
X174076Y166091D01*
X172115D01*
X171091Y165888D01*
X170222Y165308D01*
X168757D01*
X167889Y165888D01*
X166865Y166091D01*
X165154D01*
X162328Y168918D01*
X161246Y169640D01*
X159970Y169894D01*
X159682Y170068D01*
X157770Y172894D01*
X157803Y173060D01*
X157473Y174718D01*
X156534Y176124D01*
X155128Y177063D01*
X154780Y177133D01*
X153195Y179757D01*
X153121Y180393D01*
X153680Y181439D01*
X161047D01*
X162910Y179576D01*
D02*
G37*
G36*
X125421Y139678D02*
X125767Y138841D01*
X127455Y137153D01*
X129661Y136240D01*
X130729D01*
X131972Y133240D01*
X131197Y132465D01*
X130423Y131307D01*
X130151Y129942D01*
Y112338D01*
X129442Y111629D01*
X85546D01*
X85405Y111699D01*
X83303Y114560D01*
X83493Y115641D01*
X85293Y117514D01*
X86305Y118190D01*
X87355D01*
X89192Y118951D01*
X89450Y119208D01*
X110798D01*
X112322Y119512D01*
X113614Y120375D01*
X115845Y122606D01*
X116708Y123898D01*
X117011Y125422D01*
Y135511D01*
X122082Y140582D01*
X125421Y139678D01*
D02*
G37*
G36*
X135638Y103542D02*
X135467Y103218D01*
X135137Y101560D01*
X135467Y99902D01*
X136406Y98496D01*
Y98124D01*
X135467Y96718D01*
X135137Y95060D01*
X135467Y93402D01*
X136308Y91810D01*
X135467Y90218D01*
X135137Y88560D01*
X135467Y86902D01*
X136406Y85496D01*
X137812Y84557D01*
X139470Y84227D01*
X144289D01*
X146053Y81854D01*
X144780Y80631D01*
Y74930D01*
X142240D01*
Y80400D01*
X140372Y79627D01*
X138813Y78068D01*
X138271Y76758D01*
X135990Y75890D01*
X134970Y75817D01*
X131184Y79603D01*
Y98445D01*
X130912Y99811D01*
X130138Y100968D01*
X129615Y101491D01*
X130858Y104491D01*
X130920D01*
X132286Y104763D01*
X132937Y105198D01*
X133514Y105473D01*
X135638Y103542D01*
D02*
G37*
G36*
X124046Y96967D02*
Y79432D01*
X123446Y77807D01*
X121279Y76660D01*
X120818D01*
X118782Y75817D01*
X117533Y74568D01*
X114572Y74495D01*
X114306Y74519D01*
X112619Y76207D01*
X110414Y77120D01*
X108027D01*
X106795Y76610D01*
X104610Y78915D01*
X105121Y80147D01*
Y82534D01*
X104207Y84739D01*
X102519Y86427D01*
X102394Y86479D01*
Y91440D01*
X102140Y92716D01*
X101418Y93798D01*
X100224Y94991D01*
X101466Y97991D01*
X123022D01*
X124046Y96967D01*
D02*
G37*
G36*
X153747Y74010D02*
X156133D01*
X156198Y74037D01*
X161162Y69072D01*
X162244Y68350D01*
X163520Y68096D01*
X190109D01*
X190913Y65096D01*
X190802Y65032D01*
X188968Y63198D01*
X187671Y60952D01*
X187361Y59794D01*
X164976D01*
X164685Y59851D01*
X160435D01*
X159411Y59648D01*
X158542Y59068D01*
X158410Y58869D01*
X151918D01*
X144397Y66390D01*
X144470Y67410D01*
X145338Y69691D01*
X146648Y70233D01*
X148207Y71792D01*
X148858Y73364D01*
X150281Y74191D01*
X152050Y74713D01*
X153747Y74010D01*
D02*
G37*
G36*
X60637Y147060D02*
X60967Y145402D01*
X61808Y143810D01*
X60967Y142218D01*
X60637Y140560D01*
X60967Y138902D01*
X61906Y137496D01*
Y137124D01*
X60967Y135718D01*
X60637Y134060D01*
X60680Y133842D01*
X58835Y131080D01*
X58451Y130842D01*
X55851D01*
X54485Y130570D01*
X53327Y129796D01*
X48277Y124746D01*
X47503Y123588D01*
X47231Y122222D01*
Y32250D01*
X45939Y31160D01*
X42939Y32555D01*
Y146716D01*
X45927Y149704D01*
X58292D01*
X60637Y147060D01*
D02*
G37*
%LPC*%
G36*
X198218Y372340D02*
X198120D01*
Y363220D01*
X207240D01*
Y363318D01*
X206532Y365960D01*
X205164Y368330D01*
X203230Y370264D01*
X200860Y371632D01*
X198218Y372340D01*
D02*
G37*
G36*
X207240Y360680D02*
X198120D01*
Y351560D01*
X198218D01*
X200860Y352268D01*
X203230Y353636D01*
X205164Y355570D01*
X206532Y357940D01*
X207240Y360582D01*
Y360680D01*
D02*
G37*
G36*
X21617Y346400D02*
X19023D01*
X16518Y345729D01*
X14272Y344432D01*
X12438Y342598D01*
X11141Y340352D01*
X10470Y337847D01*
Y335253D01*
X11141Y332748D01*
X12438Y330502D01*
X14272Y328668D01*
X16518Y327371D01*
X19023Y326700D01*
X21617D01*
X24122Y327371D01*
X26368Y328668D01*
X28202Y330502D01*
X29499Y332748D01*
X30170Y335253D01*
Y337847D01*
X29499Y340352D01*
X28202Y342598D01*
X26368Y344432D01*
X24122Y345729D01*
X21617Y346400D01*
D02*
G37*
G36*
Y321000D02*
X19023D01*
X16518Y320329D01*
X14272Y319032D01*
X12438Y317198D01*
X11141Y314952D01*
X10470Y312447D01*
Y309853D01*
X11141Y307348D01*
X12438Y305102D01*
X14272Y303268D01*
X16518Y301971D01*
X19023Y301300D01*
X21617D01*
X24122Y301971D01*
X26368Y303268D01*
X28202Y305102D01*
X29499Y307348D01*
X30170Y309853D01*
Y312447D01*
X29499Y314952D01*
X28202Y317198D01*
X26368Y319032D01*
X24122Y320329D01*
X21617Y321000D01*
D02*
G37*
G36*
X21688Y296140D02*
X21590D01*
Y287020D01*
X30710D01*
Y287118D01*
X30002Y289760D01*
X28634Y292130D01*
X26700Y294064D01*
X24330Y295432D01*
X21688Y296140D01*
D02*
G37*
G36*
X19050D02*
X18952D01*
X16310Y295432D01*
X13940Y294064D01*
X12006Y292130D01*
X10638Y289760D01*
X9930Y287118D01*
Y287020D01*
X19050D01*
Y296140D01*
D02*
G37*
G36*
X30710Y284480D02*
X21590D01*
Y275360D01*
X21688D01*
X24330Y276068D01*
X26700Y277436D01*
X28634Y279370D01*
X30002Y281740D01*
X30710Y284382D01*
Y284480D01*
D02*
G37*
G36*
X19050D02*
X9930D01*
Y284382D01*
X10638Y281740D01*
X12006Y279370D01*
X13940Y277436D01*
X16310Y276068D01*
X18952Y275360D01*
X19050D01*
Y284480D01*
D02*
G37*
G36*
X198147Y270200D02*
X195553D01*
X193048Y269529D01*
X190802Y268232D01*
X188968Y266398D01*
X187671Y264152D01*
X187000Y261647D01*
Y259053D01*
X187671Y256548D01*
X188968Y254302D01*
X190802Y252468D01*
X193048Y251171D01*
X195553Y250500D01*
X198147D01*
X200652Y251171D01*
X202898Y252468D01*
X204732Y254302D01*
X206029Y256548D01*
X206700Y259053D01*
Y261647D01*
X206029Y264152D01*
X204732Y266398D01*
X202898Y268232D01*
X200652Y269529D01*
X198147Y270200D01*
D02*
G37*
G36*
X21617D02*
X19023D01*
X16518Y269529D01*
X14272Y268232D01*
X12438Y266398D01*
X11141Y264152D01*
X10470Y261647D01*
Y259053D01*
X11141Y256548D01*
X12438Y254302D01*
X14272Y252468D01*
X16518Y251171D01*
X19023Y250500D01*
X21617D01*
X24122Y251171D01*
X26368Y252468D01*
X28202Y254302D01*
X29499Y256548D01*
X30170Y259053D01*
Y261647D01*
X29499Y264152D01*
X28202Y266398D01*
X26368Y268232D01*
X24122Y269529D01*
X21617Y270200D01*
D02*
G37*
G36*
X198147Y244800D02*
X195553D01*
X193048Y244129D01*
X190802Y242832D01*
X188968Y240998D01*
X187671Y238752D01*
X187000Y236247D01*
Y233653D01*
X187671Y231148D01*
X188968Y228902D01*
X190802Y227068D01*
X193048Y225771D01*
X195553Y225100D01*
X198147D01*
X200652Y225771D01*
X202898Y227068D01*
X204732Y228902D01*
X206029Y231148D01*
X206700Y233653D01*
Y236247D01*
X206029Y238752D01*
X204732Y240998D01*
X202898Y242832D01*
X200652Y244129D01*
X198147Y244800D01*
D02*
G37*
G36*
X21617D02*
X19023D01*
X16518Y244129D01*
X14272Y242832D01*
X12438Y240998D01*
X11141Y238752D01*
X10470Y236247D01*
Y233653D01*
X11141Y231148D01*
X12438Y228902D01*
X14272Y227068D01*
X16518Y225771D01*
X19023Y225100D01*
X21617D01*
X24122Y225771D01*
X26368Y227068D01*
X28202Y228902D01*
X29499Y231148D01*
X30170Y233653D01*
Y236247D01*
X29499Y238752D01*
X28202Y240998D01*
X26368Y242832D01*
X24122Y244129D01*
X21617Y244800D01*
D02*
G37*
G36*
Y219400D02*
X19023D01*
X16518Y218729D01*
X14272Y217432D01*
X12438Y215598D01*
X11141Y213352D01*
X10470Y210847D01*
Y208253D01*
X11141Y205748D01*
X12438Y203502D01*
X14272Y201668D01*
X16518Y200371D01*
X19023Y199700D01*
X21617D01*
X24122Y200371D01*
X26368Y201668D01*
X28202Y203502D01*
X29499Y205748D01*
X30170Y208253D01*
Y210847D01*
X29499Y213352D01*
X28202Y215598D01*
X26368Y217432D01*
X24122Y218729D01*
X21617Y219400D01*
D02*
G37*
G36*
Y194000D02*
X19023D01*
X16518Y193329D01*
X14272Y192032D01*
X12438Y190198D01*
X11141Y187952D01*
X10470Y185447D01*
Y182853D01*
X11141Y180348D01*
X12438Y178102D01*
X14272Y176268D01*
X16518Y174971D01*
X19023Y174300D01*
X21617D01*
X24122Y174971D01*
X26368Y176268D01*
X28202Y178102D01*
X29499Y180348D01*
X30170Y182853D01*
Y185447D01*
X29499Y187952D01*
X28202Y190198D01*
X26368Y192032D01*
X24122Y193329D01*
X21617Y194000D01*
D02*
G37*
G36*
X198147Y168600D02*
X195553D01*
X193048Y167929D01*
X190802Y166632D01*
X188968Y164798D01*
X187671Y162552D01*
X187000Y160047D01*
Y157453D01*
X187671Y154948D01*
X188968Y152702D01*
X190802Y150868D01*
X193048Y149571D01*
X195553Y148900D01*
X198147D01*
X200652Y149571D01*
X202898Y150868D01*
X204732Y152702D01*
X206029Y154948D01*
X206700Y157453D01*
Y160047D01*
X206029Y162552D01*
X204732Y164798D01*
X202898Y166632D01*
X200652Y167929D01*
X198147Y168600D01*
D02*
G37*
G36*
X21617D02*
X19023D01*
X16518Y167929D01*
X14272Y166632D01*
X12438Y164798D01*
X11141Y162552D01*
X10470Y160047D01*
Y157453D01*
X11141Y154948D01*
X12438Y152702D01*
X14272Y150868D01*
X16518Y149571D01*
X19023Y148900D01*
X21617D01*
X24122Y149571D01*
X26368Y150868D01*
X28202Y152702D01*
X29499Y154948D01*
X30170Y157453D01*
Y160047D01*
X29499Y162552D01*
X28202Y164798D01*
X26368Y166632D01*
X24122Y167929D01*
X21617Y168600D01*
D02*
G37*
G36*
X198147Y117800D02*
X195553D01*
X193048Y117129D01*
X190802Y115832D01*
X188968Y113998D01*
X187671Y111752D01*
X187000Y109247D01*
Y106653D01*
X187671Y104148D01*
X188968Y101902D01*
X190802Y100068D01*
X193048Y98771D01*
X195553Y98100D01*
X198147D01*
X200652Y98771D01*
X202898Y100068D01*
X204732Y101902D01*
X206029Y104148D01*
X206700Y106653D01*
Y109247D01*
X206029Y111752D01*
X204732Y113998D01*
X202898Y115832D01*
X200652Y117129D01*
X198147Y117800D01*
D02*
G37*
G36*
X117325Y52545D02*
X114751D01*
X113260Y52248D01*
X111996Y51404D01*
X111152Y50140D01*
X110855Y48649D01*
Y44450D01*
X117325D01*
Y52545D01*
D02*
G37*
G36*
X167912Y45030D02*
X163830D01*
Y41198D01*
X164685D01*
X165920Y41444D01*
X166967Y42143D01*
X167666Y43190D01*
X167912Y44425D01*
Y45030D01*
D02*
G37*
G36*
X103689Y51994D02*
X96001D01*
X94721Y51740D01*
X93636Y51014D01*
X92910Y49929D01*
X92656Y48649D01*
Y37711D01*
X92910Y36431D01*
X93636Y35346D01*
X94721Y34620D01*
X96001Y34366D01*
X103689D01*
X104969Y34620D01*
X106054Y35346D01*
X106780Y36431D01*
X107034Y37711D01*
Y48649D01*
X106780Y49929D01*
X106054Y51014D01*
X104969Y51740D01*
X103689Y51994D01*
D02*
G37*
G36*
X117325Y41910D02*
X110855D01*
Y37711D01*
X111152Y36220D01*
X111996Y34956D01*
X113260Y34112D01*
X114751Y33815D01*
X117325D01*
Y41910D01*
D02*
G37*
G36*
X57230Y24130D02*
X52070D01*
Y18970D01*
X53324Y19306D01*
X54816Y20167D01*
X56033Y21384D01*
X56894Y22876D01*
X57230Y24130D01*
D02*
G37*
G36*
X38100Y17780D02*
X32940D01*
X33276Y16526D01*
X34137Y15034D01*
X35354Y13817D01*
X36846Y12956D01*
X38100Y12620D01*
Y17780D01*
D02*
G37*
G36*
X162560Y402670D02*
Y397510D01*
X167720D01*
X167384Y398764D01*
X166523Y400256D01*
X165306Y401473D01*
X163814Y402334D01*
X162560Y402670D01*
D02*
G37*
G36*
X160020D02*
X158766Y402334D01*
X157274Y401473D01*
X156057Y400256D01*
X155196Y398764D01*
X154860Y397510D01*
X160020D01*
Y402670D01*
D02*
G37*
G36*
X143640Y402590D02*
X134620D01*
Y393570D01*
X134705D01*
X137322Y394271D01*
X139668Y395626D01*
X141584Y397542D01*
X142939Y399888D01*
X143640Y402505D01*
Y402590D01*
D02*
G37*
G36*
X132080D02*
X123060D01*
Y402505D01*
X123761Y399888D01*
X125116Y397542D01*
X127032Y395626D01*
X129378Y394271D01*
X131995Y393570D01*
X132080D01*
Y402590D01*
D02*
G37*
G36*
X95030Y341920D02*
X88760D01*
Y327150D01*
X95030D01*
Y341920D01*
D02*
G37*
G36*
X86220D02*
X79950D01*
Y327150D01*
X86220D01*
Y341920D01*
D02*
G37*
G36*
X121040Y257175D02*
X116840D01*
Y252975D01*
X118708Y253748D01*
X120267Y255307D01*
X121040Y257175D01*
D02*
G37*
G36*
X130810Y254080D02*
X129556Y253744D01*
X128064Y252883D01*
X126847Y251666D01*
X125986Y250174D01*
X125650Y248920D01*
X130810D01*
Y254080D01*
D02*
G37*
%LPD*%
D24*
X157480Y314475D02*
D03*
Y333225D02*
D03*
Y298935D02*
D03*
Y280185D02*
D03*
D29*
X162560Y55300D02*
D03*
Y46300D02*
D03*
D34*
X82550Y378460D02*
D03*
D35*
X107950D02*
D03*
X133350D02*
D03*
X107950Y403860D02*
D03*
X133350D02*
D03*
X82550D02*
D03*
D36*
X20320Y311150D02*
D03*
X196850Y361950D02*
D03*
Y336550D02*
D03*
Y311150D02*
D03*
Y285750D02*
D03*
Y260350D02*
D03*
Y234950D02*
D03*
Y209550D02*
D03*
Y184150D02*
D03*
Y158750D02*
D03*
Y133350D02*
D03*
Y107950D02*
D03*
Y82550D02*
D03*
Y57150D02*
D03*
Y31750D02*
D03*
X20320Y361950D02*
D03*
Y336550D02*
D03*
Y285750D02*
D03*
Y260350D02*
D03*
Y234950D02*
D03*
Y209550D02*
D03*
Y184150D02*
D03*
Y158750D02*
D03*
Y133350D02*
D03*
Y107950D02*
D03*
Y82550D02*
D03*
Y57150D02*
D03*
Y31750D02*
D03*
D37*
X196850Y387350D02*
D03*
X20320D02*
D03*
D38*
X154940Y80010D02*
D03*
X168910Y179206D02*
D03*
X50800Y25400D02*
D03*
X77470Y237147D02*
D03*
X124460Y303690D02*
D03*
X85090Y67310D02*
D03*
X60960D02*
D03*
X99121Y81341D02*
D03*
X158750Y208121D02*
D03*
X170222Y218482D02*
D03*
X57150Y398780D02*
D03*
X38170Y327208D02*
D03*
X169955Y410435D02*
D03*
X162910Y360680D02*
D03*
X95250Y175260D02*
D03*
X144780Y181610D02*
D03*
X102870Y259080D02*
D03*
X110490Y238760D02*
D03*
X43180Y402590D02*
D03*
X39370Y19050D02*
D03*
X68580Y74930D02*
D03*
X109220Y71120D02*
D03*
X161850Y107316D02*
D03*
X130854Y142240D02*
D03*
X97790Y162560D02*
D03*
X118110D02*
D03*
X115570Y179070D02*
D03*
X120650Y219630D02*
D03*
X132080Y247650D02*
D03*
X144730Y335280D02*
D03*
X170180Y345440D02*
D03*
X161290Y396240D02*
D03*
X184150Y410210D02*
D03*
D39*
X143510Y290830D02*
D03*
X54610Y331470D02*
D03*
X55880Y359410D02*
D03*
X58420Y120650D02*
D03*
X86360Y123190D02*
D03*
X121920Y71120D02*
D03*
X143510Y74930D02*
D03*
X115570Y258445D02*
D03*
X87630Y363220D02*
D03*
X175260Y298450D02*
D03*
D40*
X133350Y176358D02*
Y194310D01*
X135480Y196440D02*
X145265D01*
X133350Y194310D02*
X135480Y196440D01*
X146136Y173394D02*
X146470Y173060D01*
X136314Y173394D02*
X146136D01*
X133350Y176358D02*
X136314Y173394D01*
X77470Y237147D02*
X90133D01*
X93030Y234250D01*
X124460Y317500D02*
X127000Y320040D01*
X124460Y303690D02*
Y317500D01*
X154190Y295645D02*
X157480Y298935D01*
X143510Y290830D02*
X148325Y295645D01*
X154190D01*
X137240Y295860D02*
X155855Y314475D01*
X137240Y259000D02*
Y295860D01*
Y259000D02*
X145300Y250940D01*
X60960Y67310D02*
X85090D01*
X79080Y88560D02*
X96520Y71120D01*
X109220D01*
X71970Y88560D02*
X79080D01*
X99060Y81401D02*
X99121Y81341D01*
X99060Y81401D02*
Y91440D01*
X71970Y95060D02*
X95440D01*
X99060Y91440D01*
X170222Y218482D02*
X180298D01*
X182880Y187960D02*
Y215900D01*
X180298Y218482D02*
X182880Y215900D01*
Y187960D02*
X186678Y184162D01*
X175005Y208535D02*
X177920Y205620D01*
X175220Y162770D02*
X175470D01*
X177920Y165221D01*
Y205620D01*
X173990Y161540D02*
X175220Y162770D01*
X173990Y138430D02*
Y161540D01*
X158750Y208121D02*
X159163Y208535D01*
X175005D01*
X196850Y336550D02*
Y337405D01*
X148590Y353060D02*
X181194D01*
X196850Y337405D01*
X212090Y288290D02*
Y332740D01*
X196850Y336550D02*
X208280D01*
X212090Y332740D01*
X45440Y392150D02*
X51627Y398338D01*
X56708D02*
X57150Y398780D01*
X45440Y308330D02*
Y392150D01*
X51627Y398338D02*
X56708D01*
X142359Y410435D02*
X169955D01*
X136140Y416655D02*
X142359Y410435D01*
X40640Y156210D02*
Y303530D01*
X45440Y308330D01*
X34290Y149860D02*
X40640Y156210D01*
X154940Y80010D02*
X163520Y71430D01*
X205430D01*
X161850Y84529D02*
X165100Y81280D01*
X195580D01*
X161850Y84529D02*
Y107316D01*
X195580Y81280D02*
X196850Y82550D01*
X144730Y335280D02*
Y349200D01*
X148590Y353060D01*
X127000Y320040D02*
X144780D01*
X145300Y208871D02*
Y250940D01*
X149840Y201015D02*
Y273835D01*
X152007Y276002D01*
X209550Y36830D02*
Y67310D01*
X205430Y71430D02*
X209550Y67310D01*
X196838Y184162D02*
X196850Y184150D01*
X186678Y184162D02*
X196838D01*
X118430Y200980D02*
X143385D01*
X115570Y179070D02*
Y198120D01*
X118430Y200980D01*
X71970Y140560D02*
X85950D01*
X87630Y142240D02*
Y162117D01*
X85950Y140560D02*
X87630Y142240D01*
X101275Y134295D02*
X118110Y151130D01*
X72205Y134295D02*
X101275D01*
X118110Y151130D02*
Y162560D01*
X145265Y196440D02*
X149840Y201015D01*
X152007Y276002D02*
Y276331D01*
X155861Y280185D01*
X157480D01*
X89118Y163605D02*
X96745D01*
X87630Y162117D02*
X89118Y163605D01*
X96745D02*
X97790Y162560D01*
X175260Y402590D02*
X182880Y410210D01*
X184150D01*
X137915Y367440D02*
X156555Y386080D01*
X107950Y378460D02*
X118970Y367440D01*
X137915D01*
X133490Y343190D02*
X135907Y345607D01*
X155855Y314475D02*
X157480D01*
X152007Y329371D02*
X155861Y333225D01*
X144780Y320040D02*
X152007Y327267D01*
Y329371D01*
X135907Y359012D02*
X146465Y369570D01*
X135907Y345607D02*
Y359012D01*
X71970Y134060D02*
X72205Y134295D01*
X143385Y200980D02*
X145300Y202896D01*
Y208871D01*
X120650Y219630D02*
X130030Y210250D01*
X133030D01*
X164990Y161290D02*
Y161540D01*
X159970Y166560D02*
X164990Y161540D01*
X146470Y166560D02*
X159970D01*
X130854Y142240D02*
Y143554D01*
X134360Y147060D02*
X146470D01*
X130854Y143554D02*
X134360Y147060D01*
X146465Y369570D02*
X177800D01*
X185420Y389890D02*
X194310D01*
X181610Y386080D02*
X185420Y389890D01*
X194310D02*
X196850Y387350D01*
X175260Y298450D02*
X184150D01*
X179070Y133350D02*
X196850D01*
X173990Y138430D02*
X179070Y133350D01*
X198745Y33645D02*
X206365D01*
X209550Y36830D01*
X196850Y31750D02*
X198745Y33645D01*
X177800Y369570D02*
X181610Y373380D01*
X159099Y333225D02*
X170180Y344306D01*
Y345440D01*
X155861Y333225D02*
X159099D01*
X175260Y391160D02*
Y402590D01*
X181610Y373380D02*
Y386080D01*
X156555D02*
X170180D01*
X175260Y391160D01*
X17802Y364468D02*
X20320Y361950D01*
X11868Y364468D02*
X17802D01*
X9200Y367136D02*
X11868Y364468D01*
X20320Y31750D02*
X31750D01*
X34290Y34290D02*
Y149860D01*
X31750Y31750D02*
X34290Y34290D01*
X22955Y416655D02*
X136140D01*
X209550Y285750D02*
X212090Y288290D01*
X184150Y298450D02*
X196850Y285750D01*
X209550D01*
X9200Y367136D02*
Y402900D01*
X22955Y416655D01*
D41*
X162696Y185420D02*
X168910Y179206D01*
X149107Y185420D02*
X162696D01*
X64400Y250960D02*
X67495Y247865D01*
X67495D02*
X70308Y245052D01*
X104198D02*
X110490Y238760D01*
X70308Y245052D02*
X104198D01*
X64400Y250960D02*
Y251460D01*
X68210Y315730D02*
X71305Y312635D01*
X71801D02*
X74032Y310403D01*
X71305Y312635D02*
X71801D01*
X74032Y279400D02*
Y310403D01*
X68210Y315730D02*
Y408570D01*
X38170Y327208D02*
Y396446D01*
X58420Y120650D02*
X58698Y120928D01*
X71838D01*
X72102Y121192D02*
X83769D01*
X66441Y271296D02*
X74032Y278888D01*
Y279400D01*
X68210Y408570D02*
X71120Y411480D01*
X75238D01*
X85767Y123190D02*
X86360D01*
X110798D01*
X83769Y121192D02*
X85767Y123190D01*
X113030Y125422D02*
Y137160D01*
X110798Y123190D02*
X113030Y125422D01*
Y137160D02*
X129430Y153560D01*
X146470D01*
X146602Y153692D01*
X144780Y181610D02*
X145297D01*
X149107Y185420D01*
X102870Y259080D02*
X110490Y266700D01*
Y284190D02*
Y343190D01*
Y266700D02*
Y284190D01*
X82550Y403860D02*
Y404168D01*
X75238Y411480D02*
X82550Y404168D01*
X96091Y366089D02*
X110490Y351690D01*
Y343190D02*
Y351690D01*
X82550Y403860D02*
X96091Y390319D01*
Y366089D02*
Y390319D01*
X66441Y251459D02*
Y271296D01*
X43180Y401456D02*
Y402590D01*
X110395Y238665D02*
X110490Y238760D01*
X110395Y190405D02*
Y238665D01*
X95250Y175260D02*
X110395Y190405D01*
X38170Y396446D02*
X43180Y401456D01*
D42*
X46990Y207010D02*
X50230Y210250D01*
X93030D01*
X46990Y162104D02*
Y207010D01*
X48747Y160347D02*
X71683D01*
X46990Y162104D02*
X48747Y160347D01*
X50800Y25400D02*
Y122222D01*
X54610Y317130D02*
Y357328D01*
X53710Y316230D02*
X54610Y317130D01*
Y357328D02*
X55880Y358598D01*
X162910Y360680D02*
X195580D01*
X55880Y358598D02*
Y359410D01*
X53710Y316230D02*
X55508Y314432D01*
Y279400D02*
Y314432D01*
X130920Y108060D02*
X133720Y110860D01*
X137088Y133310D02*
X137659D01*
X133720Y110860D02*
Y129942D01*
X137659Y133310D02*
X137659Y133310D01*
X138314D01*
X139064Y134060D01*
X71970Y108060D02*
X130920D01*
X139064Y134060D02*
X146470D01*
X133720Y129942D02*
X137088Y133310D01*
X71970Y101560D02*
X124500D01*
X127615Y78125D02*
Y98445D01*
X124500Y101560D02*
X127615Y98445D01*
X20320Y285750D02*
X22077D01*
X53340Y277232D02*
X55508Y279400D01*
X87630Y343330D02*
Y363220D01*
X87490Y343190D02*
X87630Y343330D01*
X53340Y254900D02*
Y277232D01*
X49900Y251460D02*
X53340Y254900D01*
X71683Y107773D02*
X71970Y108060D01*
X162560Y55300D02*
X163485Y56225D01*
X118595Y43180D02*
X159190D01*
X162310Y46300D01*
X162560D01*
X150440Y55300D02*
X162310D01*
X127615Y78125D02*
X150440Y55300D01*
X71683Y127273D02*
X71970Y127560D01*
X67310Y74930D02*
X68580D01*
X132080Y235200D02*
X133030Y234250D01*
X195580Y360680D02*
X196850Y361950D01*
X163485Y56225D02*
X195925D01*
X132080Y235200D02*
Y247650D01*
X71683Y153273D02*
X71970Y153560D01*
X71683Y160347D02*
X71970Y160060D01*
X63051Y107773D02*
X71683D01*
X59220Y103942D02*
X63051Y107773D01*
X59220Y83020D02*
Y103942D01*
Y83020D02*
X67310Y74930D01*
X195925Y56225D02*
X196850Y57150D01*
X44449Y153273D02*
X71683D01*
X39370Y148194D02*
X44449Y153273D01*
X55851Y127273D02*
X71683D01*
X50800Y122222D02*
X55851Y127273D01*
X39370Y19050D02*
Y148194D01*
D50*
X64400Y251460D02*
D03*
X68210Y316230D02*
D03*
X53710D02*
D03*
X49900Y251460D02*
D03*
D51*
X74032Y279400D02*
D03*
X55508D02*
D03*
D52*
X110490Y284190D02*
D03*
D53*
Y343190D02*
D03*
X133490D02*
D03*
X87490D02*
D03*
D54*
X146470Y153560D02*
D03*
X71970Y121060D02*
D03*
X146470Y173060D02*
D03*
Y166560D02*
D03*
Y160060D02*
D03*
Y147060D02*
D03*
Y140560D02*
D03*
Y134060D02*
D03*
Y127560D02*
D03*
Y121060D02*
D03*
Y114560D02*
D03*
Y108060D02*
D03*
Y101560D02*
D03*
Y95060D02*
D03*
Y88560D02*
D03*
X71970Y173060D02*
D03*
Y166560D02*
D03*
Y160060D02*
D03*
Y153560D02*
D03*
Y147060D02*
D03*
Y140560D02*
D03*
Y134060D02*
D03*
Y127560D02*
D03*
Y114560D02*
D03*
Y108060D02*
D03*
Y101560D02*
D03*
Y95060D02*
D03*
Y88560D02*
D03*
D55*
X93030Y210250D02*
D03*
X133030D02*
D03*
Y234250D02*
D03*
X93030D02*
D03*
D56*
X99845Y43180D02*
D03*
X118595D02*
D03*
D57*
X164990Y161290D02*
D03*
X173990D02*
D03*
M02*
