G04*
G04 #@! TF.GenerationSoftware,Altium Limited,Altium Designer,26.9.1 (10)*
G04*
G04 Layer_Color=32768*
G04 Board_Origin=34100000|22900000*
%FSLAX44Y44*%
%MOMM*%
G71*
G04*
G04 #@! TF.SameCoordinates,422ACB3C-2A18-4883-AF2F-CBEBC1C0E268*
G04*
G04*
G04 #@! TF.FilePolarity,Positive*
G04*
G01*
G75*
G36*
X80175Y139257D02*
X80167Y139182D01*
Y139108D01*
X80158Y139016D01*
X80150Y138916D01*
X80133Y138708D01*
X80100Y138491D01*
X80058Y138283D01*
X80033Y138183D01*
X80000Y138099D01*
Y138091D01*
X79992Y138083D01*
X79983Y138058D01*
X79967Y138024D01*
X79925Y137941D01*
X79858Y137841D01*
X79775Y137725D01*
X79667Y137608D01*
X79534Y137491D01*
X79384Y137383D01*
X79375D01*
X79367Y137375D01*
X79342Y137358D01*
X79309Y137341D01*
X79217Y137300D01*
X79100Y137250D01*
X78959Y137200D01*
X78792Y137158D01*
X78609Y137125D01*
X78417Y137116D01*
X78409D01*
X78384D01*
X78351D01*
X78300Y137125D01*
X78242Y137133D01*
X78176Y137141D01*
X78017Y137175D01*
X77834Y137225D01*
X77642Y137300D01*
X77551Y137350D01*
X77451Y137408D01*
X77359Y137483D01*
X77267Y137558D01*
X77259Y137566D01*
X77251Y137575D01*
X77226Y137608D01*
X77192Y137641D01*
X77159Y137691D01*
X77117Y137750D01*
X77067Y137816D01*
X77017Y137891D01*
X76968Y137983D01*
X76918Y138083D01*
X76867Y138199D01*
X76817Y138324D01*
X76776Y138458D01*
X76734Y138599D01*
X76701Y138758D01*
X76676Y138924D01*
X76668Y138907D01*
X76651Y138866D01*
X76618Y138807D01*
X76576Y138733D01*
X76468Y138566D01*
X76409Y138491D01*
X76351Y138416D01*
Y138408D01*
X76334Y138399D01*
X76293Y138349D01*
X76218Y138283D01*
X76118Y138183D01*
X76001Y138074D01*
X75851Y137958D01*
X75684Y137833D01*
X75501Y137708D01*
X73768Y136600D01*
Y137666D01*
X75093Y138508D01*
X75101D01*
X75118Y138524D01*
X75151Y138541D01*
X75185Y138566D01*
X75235Y138599D01*
X75293Y138641D01*
X75418Y138724D01*
X75560Y138824D01*
X75701Y138924D01*
X75843Y139024D01*
X75968Y139124D01*
X75984Y139132D01*
X76018Y139166D01*
X76076Y139207D01*
X76134Y139266D01*
X76209Y139332D01*
X76284Y139407D01*
X76343Y139482D01*
X76401Y139557D01*
X76409Y139566D01*
X76418Y139591D01*
X76443Y139624D01*
X76468Y139674D01*
X76501Y139732D01*
X76526Y139799D01*
X76576Y139941D01*
Y139949D01*
X76584Y139966D01*
Y139999D01*
X76593Y140049D01*
X76601Y140115D01*
Y140199D01*
X76609Y140290D01*
Y141390D01*
X73768D01*
Y142240D01*
X80175D01*
Y139257D01*
D02*
G37*
G36*
X75726Y136100D02*
X75776D01*
X75834Y136092D01*
X75984Y136067D01*
X76151Y136033D01*
X76318Y135975D01*
X76493Y135900D01*
X76659Y135792D01*
X76668D01*
X76676Y135775D01*
X76726Y135733D01*
X76801Y135658D01*
X76892Y135558D01*
X76984Y135433D01*
X77084Y135275D01*
X77167Y135100D01*
X77234Y134892D01*
Y134900D01*
X77242Y134917D01*
X77251Y134942D01*
X77267Y134975D01*
X77309Y135058D01*
X77367Y135167D01*
X77442Y135283D01*
X77526Y135408D01*
X77634Y135517D01*
X77751Y135617D01*
X77767Y135625D01*
X77809Y135650D01*
X77884Y135692D01*
X77976Y135733D01*
X78092Y135775D01*
X78225Y135817D01*
X78376Y135842D01*
X78542Y135850D01*
X78550D01*
X78575D01*
X78609D01*
X78659Y135842D01*
X78717Y135833D01*
X78792Y135825D01*
X78950Y135783D01*
X79134Y135725D01*
X79234Y135683D01*
X79334Y135642D01*
X79433Y135583D01*
X79534Y135517D01*
X79625Y135442D01*
X79717Y135350D01*
X79725Y135342D01*
X79742Y135325D01*
X79758Y135300D01*
X79792Y135259D01*
X79825Y135209D01*
X79867Y135150D01*
X79917Y135075D01*
X79958Y134992D01*
X80000Y134909D01*
X80050Y134809D01*
X80092Y134692D01*
X80125Y134575D01*
X80158Y134450D01*
X80183Y134317D01*
X80192Y134167D01*
X80200Y134017D01*
Y133934D01*
X80192Y133876D01*
X80183Y133809D01*
X80175Y133726D01*
X80158Y133634D01*
X80142Y133534D01*
X80083Y133317D01*
X80042Y133209D01*
X79992Y133092D01*
X79933Y132984D01*
X79875Y132867D01*
X79792Y132767D01*
X79708Y132668D01*
X79700Y132659D01*
X79683Y132642D01*
X79658Y132618D01*
X79625Y132584D01*
X79575Y132551D01*
X79517Y132501D01*
X79450Y132459D01*
X79384Y132409D01*
X79209Y132317D01*
X79009Y132234D01*
X78892Y132201D01*
X78775Y132176D01*
X78650Y132159D01*
X78525Y132151D01*
X78517D01*
X78509D01*
X78484D01*
X78450D01*
X78367Y132159D01*
X78259Y132184D01*
X78134Y132209D01*
X78009Y132251D01*
X77876Y132309D01*
X77742Y132393D01*
X77726Y132401D01*
X77692Y132434D01*
X77634Y132493D01*
X77559Y132568D01*
X77476Y132668D01*
X77392Y132792D01*
X77309Y132934D01*
X77234Y133101D01*
Y133092D01*
X77226Y133076D01*
X77217Y133042D01*
X77201Y133001D01*
X77176Y132951D01*
X77151Y132901D01*
X77084Y132767D01*
X77001Y132618D01*
X76892Y132467D01*
X76768Y132326D01*
X76618Y132201D01*
X76609D01*
X76601Y132184D01*
X76576Y132176D01*
X76543Y132151D01*
X76501Y132126D01*
X76451Y132101D01*
X76334Y132043D01*
X76184Y131993D01*
X76009Y131943D01*
X75809Y131909D01*
X75593Y131893D01*
X75585D01*
X75560D01*
X75518D01*
X75459Y131901D01*
X75385Y131909D01*
X75301Y131926D01*
X75218Y131943D01*
X75118Y131968D01*
X75010Y131993D01*
X74901Y132034D01*
X74785Y132084D01*
X74668Y132134D01*
X74551Y132209D01*
X74435Y132284D01*
X74327Y132376D01*
X74218Y132476D01*
X74210Y132484D01*
X74193Y132501D01*
X74168Y132534D01*
X74135Y132584D01*
X74085Y132642D01*
X74043Y132709D01*
X73993Y132792D01*
X73943Y132884D01*
X73885Y132992D01*
X73835Y133101D01*
X73793Y133226D01*
X73752Y133367D01*
X73710Y133509D01*
X73685Y133667D01*
X73668Y133826D01*
X73660Y134000D01*
Y134092D01*
X73668Y134159D01*
X73677Y134242D01*
X73693Y134334D01*
X73710Y134434D01*
X73727Y134550D01*
X73793Y134792D01*
X73843Y134917D01*
X73893Y135050D01*
X73960Y135175D01*
X74035Y135300D01*
X74118Y135417D01*
X74218Y135533D01*
X74226Y135542D01*
X74243Y135558D01*
X74276Y135583D01*
X74318Y135625D01*
X74377Y135667D01*
X74443Y135717D01*
X74518Y135767D01*
X74601Y135817D01*
X74701Y135875D01*
X74801Y135925D01*
X74918Y135975D01*
X75043Y136017D01*
X75176Y136058D01*
X75318Y136083D01*
X75468Y136100D01*
X75618Y136108D01*
X75626D01*
X75643D01*
X75676D01*
X75726Y136100D01*
D02*
G37*
G36*
X95765Y152562D02*
X95824Y152554D01*
X95974Y152537D01*
X96140Y152504D01*
X96332Y152462D01*
X96524Y152396D01*
X96724Y152304D01*
X96732D01*
X96749Y152296D01*
X96774Y152279D01*
X96807Y152254D01*
X96899Y152196D01*
X97015Y152121D01*
X97140Y152013D01*
X97274Y151896D01*
X97398Y151754D01*
X97515Y151588D01*
Y151579D01*
X97523Y151571D01*
X97540Y151546D01*
X97557Y151513D01*
X97582Y151463D01*
X97598Y151413D01*
X97648Y151288D01*
X97707Y151138D01*
X97748Y150963D01*
X97782Y150771D01*
X97790Y150563D01*
Y150521D01*
X97782Y150471D01*
Y150396D01*
X97765Y150313D01*
X97748Y150221D01*
X97732Y150113D01*
X97698Y149996D01*
X97665Y149871D01*
X97615Y149738D01*
X97557Y149605D01*
X97490Y149472D01*
X97407Y149338D01*
X97307Y149205D01*
X97198Y149080D01*
X97073Y148955D01*
X97065Y148947D01*
X97040Y148930D01*
X96999Y148897D01*
X96932Y148855D01*
X96857Y148813D01*
X96757Y148763D01*
X96640Y148705D01*
X96507Y148647D01*
X96349Y148588D01*
X96174Y148530D01*
X95974Y148480D01*
X95765Y148438D01*
X95524Y148397D01*
X95266Y148363D01*
X94991Y148347D01*
X94691Y148338D01*
X94683D01*
X94666D01*
X94641D01*
X94607D01*
X94566D01*
X94516Y148347D01*
X94391D01*
X94233Y148363D01*
X94058Y148372D01*
X93866Y148397D01*
X93658Y148422D01*
X93441Y148463D01*
X93216Y148505D01*
X92991Y148563D01*
X92766Y148630D01*
X92550Y148705D01*
X92350Y148797D01*
X92158Y148905D01*
X91992Y149022D01*
X91983Y149030D01*
X91958Y149047D01*
X91925Y149080D01*
X91875Y149130D01*
X91817Y149188D01*
X91758Y149263D01*
X91692Y149355D01*
X91617Y149446D01*
X91550Y149555D01*
X91483Y149680D01*
X91425Y149813D01*
X91367Y149955D01*
X91317Y150113D01*
X91283Y150280D01*
X91258Y150455D01*
X91250Y150638D01*
Y150713D01*
X91258Y150763D01*
X91267Y150829D01*
X91275Y150904D01*
X91283Y150988D01*
X91300Y151079D01*
X91350Y151271D01*
X91425Y151479D01*
X91475Y151588D01*
X91533Y151688D01*
X91600Y151788D01*
X91675Y151879D01*
X91683Y151888D01*
X91692Y151904D01*
X91717Y151921D01*
X91750Y151954D01*
X91800Y151996D01*
X91850Y152037D01*
X91908Y152087D01*
X91983Y152137D01*
X92058Y152188D01*
X92150Y152237D01*
X92241Y152279D01*
X92350Y152329D01*
X92575Y152412D01*
X92708Y152437D01*
X92841Y152462D01*
X92900Y151679D01*
X92891D01*
X92883Y151671D01*
X92858D01*
X92825Y151663D01*
X92741Y151638D01*
X92641Y151604D01*
X92533Y151563D01*
X92425Y151504D01*
X92325Y151446D01*
X92233Y151379D01*
X92216Y151363D01*
X92183Y151321D01*
X92125Y151254D01*
X92066Y151163D01*
X92008Y151046D01*
X91950Y150913D01*
X91917Y150754D01*
X91900Y150588D01*
Y150521D01*
X91908Y150455D01*
X91925Y150363D01*
X91950Y150263D01*
X91992Y150146D01*
X92042Y150038D01*
X92116Y149921D01*
X92125Y149905D01*
X92166Y149863D01*
X92225Y149796D01*
X92316Y149713D01*
X92425Y149621D01*
X92558Y149522D01*
X92716Y149430D01*
X92900Y149338D01*
X92908D01*
X92925Y149330D01*
X92950Y149321D01*
X92991Y149305D01*
X93049Y149288D01*
X93116Y149271D01*
X93191Y149255D01*
X93274Y149230D01*
X93375Y149213D01*
X93491Y149197D01*
X93608Y149180D01*
X93741Y149163D01*
X93883Y149147D01*
X94041Y149130D01*
X94208Y149122D01*
X94374D01*
X94366Y149138D01*
X94308Y149172D01*
X94233Y149230D01*
X94141Y149313D01*
X94033Y149413D01*
X93933Y149530D01*
X93824Y149663D01*
X93741Y149813D01*
Y149821D01*
X93733Y149830D01*
X93724Y149855D01*
X93708Y149888D01*
X93674Y149963D01*
X93633Y150071D01*
X93591Y150205D01*
X93558Y150346D01*
X93533Y150505D01*
X93524Y150671D01*
Y150746D01*
X93533Y150805D01*
X93541Y150871D01*
X93558Y150954D01*
X93574Y151038D01*
X93599Y151138D01*
X93624Y151238D01*
X93666Y151346D01*
X93716Y151454D01*
X93766Y151571D01*
X93841Y151688D01*
X93916Y151796D01*
X94008Y151904D01*
X94108Y152013D01*
X94116Y152021D01*
X94133Y152037D01*
X94166Y152063D01*
X94216Y152104D01*
X94274Y152146D01*
X94341Y152188D01*
X94424Y152237D01*
X94516Y152296D01*
X94616Y152346D01*
X94732Y152396D01*
X94849Y152437D01*
X94982Y152487D01*
X95132Y152521D01*
X95282Y152546D01*
X95441Y152562D01*
X95607Y152571D01*
X95616D01*
X95632D01*
X95666D01*
X95707D01*
X95765Y152562D01*
D02*
G37*
G36*
X97682Y146814D02*
X96357Y145972D01*
X96349D01*
X96332Y145956D01*
X96299Y145939D01*
X96265Y145914D01*
X96215Y145881D01*
X96157Y145839D01*
X96032Y145756D01*
X95891Y145656D01*
X95749Y145556D01*
X95607Y145456D01*
X95482Y145356D01*
X95466Y145347D01*
X95432Y145314D01*
X95374Y145273D01*
X95316Y145214D01*
X95241Y145148D01*
X95166Y145073D01*
X95107Y144998D01*
X95049Y144923D01*
X95041Y144914D01*
X95032Y144889D01*
X95007Y144856D01*
X94982Y144806D01*
X94949Y144748D01*
X94924Y144681D01*
X94874Y144539D01*
Y144531D01*
X94866Y144514D01*
Y144481D01*
X94857Y144431D01*
X94849Y144365D01*
Y144281D01*
X94841Y144190D01*
Y143090D01*
X97682D01*
Y142240D01*
X91275D01*
Y145223D01*
X91283Y145298D01*
Y145372D01*
X91292Y145464D01*
X91300Y145564D01*
X91317Y145772D01*
X91350Y145989D01*
X91392Y146197D01*
X91417Y146297D01*
X91450Y146381D01*
Y146389D01*
X91458Y146397D01*
X91467Y146422D01*
X91483Y146456D01*
X91525Y146539D01*
X91592Y146639D01*
X91675Y146756D01*
X91783Y146872D01*
X91917Y146989D01*
X92066Y147097D01*
X92075D01*
X92083Y147105D01*
X92108Y147122D01*
X92141Y147139D01*
X92233Y147180D01*
X92350Y147230D01*
X92491Y147280D01*
X92658Y147322D01*
X92841Y147355D01*
X93033Y147364D01*
X93041D01*
X93066D01*
X93099D01*
X93149Y147355D01*
X93208Y147347D01*
X93274Y147339D01*
X93433Y147305D01*
X93616Y147255D01*
X93808Y147180D01*
X93899Y147130D01*
X93999Y147072D01*
X94091Y146997D01*
X94183Y146922D01*
X94191Y146914D01*
X94199Y146905D01*
X94224Y146872D01*
X94258Y146839D01*
X94291Y146789D01*
X94333Y146730D01*
X94382Y146664D01*
X94432Y146589D01*
X94482Y146497D01*
X94532Y146397D01*
X94583Y146281D01*
X94633Y146156D01*
X94674Y146022D01*
X94716Y145881D01*
X94749Y145722D01*
X94774Y145556D01*
X94782Y145573D01*
X94799Y145614D01*
X94832Y145673D01*
X94874Y145747D01*
X94982Y145914D01*
X95041Y145989D01*
X95099Y146064D01*
Y146072D01*
X95116Y146081D01*
X95157Y146131D01*
X95232Y146197D01*
X95332Y146297D01*
X95449Y146406D01*
X95599Y146522D01*
X95765Y146647D01*
X95949Y146772D01*
X97682Y147880D01*
Y146814D01*
D02*
G37*
G36*
X114951Y152562D02*
X114977Y152546D01*
X115010Y152512D01*
X115060Y152462D01*
X115126Y152412D01*
X115210Y152346D01*
X115301Y152271D01*
X115401Y152188D01*
X115518Y152096D01*
X115651Y152004D01*
X115793Y151904D01*
X115951Y151796D01*
X116110Y151688D01*
X116293Y151579D01*
X116476Y151471D01*
X116676Y151354D01*
X116684Y151346D01*
X116726Y151329D01*
X116784Y151296D01*
X116859Y151254D01*
X116959Y151204D01*
X117076Y151154D01*
X117209Y151088D01*
X117359Y151021D01*
X117517Y150946D01*
X117692Y150871D01*
X117876Y150796D01*
X118067Y150721D01*
X118467Y150571D01*
X118892Y150438D01*
X118900D01*
X118925Y150430D01*
X118975Y150413D01*
X119034Y150396D01*
X119109Y150380D01*
X119200Y150355D01*
X119300Y150338D01*
X119417Y150313D01*
X119542Y150288D01*
X119675Y150255D01*
X119825Y150230D01*
X119975Y150213D01*
X120300Y150171D01*
X120650Y150138D01*
Y149330D01*
X120642D01*
X120617D01*
X120575D01*
X120517Y149338D01*
X120442D01*
X120358Y149347D01*
X120258Y149355D01*
X120142Y149372D01*
X120017Y149388D01*
X119875Y149405D01*
X119725Y149430D01*
X119567Y149455D01*
X119400Y149488D01*
X119217Y149530D01*
X119034Y149572D01*
X118834Y149621D01*
X118817D01*
X118784Y149638D01*
X118726Y149655D01*
X118651Y149671D01*
X118551Y149705D01*
X118442Y149738D01*
X118317Y149780D01*
X118176Y149830D01*
X118017Y149880D01*
X117859Y149946D01*
X117509Y150080D01*
X117143Y150246D01*
X116768Y150430D01*
X116759Y150438D01*
X116726Y150455D01*
X116668Y150480D01*
X116601Y150521D01*
X116518Y150571D01*
X116418Y150630D01*
X116301Y150696D01*
X116185Y150771D01*
X115918Y150938D01*
X115635Y151129D01*
X115351Y151346D01*
X115085Y151563D01*
Y148430D01*
X114327D01*
Y152571D01*
X114943D01*
X114951Y152562D01*
D02*
G37*
G36*
X120650Y146814D02*
X119325Y145972D01*
X119317D01*
X119300Y145956D01*
X119267Y145939D01*
X119234Y145914D01*
X119184Y145881D01*
X119125Y145839D01*
X119000Y145756D01*
X118859Y145656D01*
X118717Y145556D01*
X118575Y145456D01*
X118451Y145356D01*
X118434Y145347D01*
X118401Y145314D01*
X118342Y145273D01*
X118284Y145214D01*
X118209Y145148D01*
X118134Y145073D01*
X118076Y144998D01*
X118017Y144923D01*
X118009Y144914D01*
X118001Y144889D01*
X117976Y144856D01*
X117951Y144806D01*
X117917Y144748D01*
X117892Y144681D01*
X117842Y144539D01*
Y144531D01*
X117834Y144514D01*
Y144481D01*
X117826Y144431D01*
X117817Y144365D01*
Y144281D01*
X117809Y144190D01*
Y143090D01*
X120650D01*
Y142240D01*
X114243D01*
Y145223D01*
X114252Y145298D01*
Y145372D01*
X114260Y145464D01*
X114268Y145564D01*
X114285Y145772D01*
X114318Y145989D01*
X114360Y146197D01*
X114385Y146297D01*
X114418Y146381D01*
Y146389D01*
X114427Y146397D01*
X114435Y146422D01*
X114452Y146456D01*
X114493Y146539D01*
X114560Y146639D01*
X114643Y146756D01*
X114752Y146872D01*
X114885Y146989D01*
X115035Y147097D01*
X115043D01*
X115051Y147105D01*
X115076Y147122D01*
X115110Y147139D01*
X115201Y147180D01*
X115318Y147230D01*
X115460Y147280D01*
X115626Y147322D01*
X115810Y147355D01*
X116001Y147364D01*
X116010D01*
X116034D01*
X116068D01*
X116118Y147355D01*
X116176Y147347D01*
X116243Y147339D01*
X116401Y147305D01*
X116584Y147255D01*
X116776Y147180D01*
X116868Y147130D01*
X116968Y147072D01*
X117059Y146997D01*
X117151Y146922D01*
X117159Y146914D01*
X117168Y146905D01*
X117193Y146872D01*
X117226Y146839D01*
X117259Y146789D01*
X117301Y146730D01*
X117351Y146664D01*
X117401Y146589D01*
X117451Y146497D01*
X117501Y146397D01*
X117551Y146281D01*
X117601Y146156D01*
X117642Y146022D01*
X117684Y145881D01*
X117717Y145722D01*
X117742Y145556D01*
X117751Y145573D01*
X117767Y145614D01*
X117801Y145673D01*
X117842Y145747D01*
X117951Y145914D01*
X118009Y145989D01*
X118067Y146064D01*
Y146072D01*
X118084Y146081D01*
X118126Y146131D01*
X118201Y146197D01*
X118301Y146297D01*
X118417Y146406D01*
X118567Y146522D01*
X118734Y146647D01*
X118917Y146772D01*
X120650Y147880D01*
Y146814D01*
D02*
G37*
G36*
X149917Y139257D02*
X149908Y139182D01*
Y139108D01*
X149900Y139016D01*
X149892Y138916D01*
X149875Y138708D01*
X149842Y138491D01*
X149800Y138283D01*
X149775Y138183D01*
X149742Y138099D01*
Y138091D01*
X149733Y138083D01*
X149725Y138058D01*
X149708Y138024D01*
X149667Y137941D01*
X149600Y137841D01*
X149517Y137725D01*
X149409Y137608D01*
X149275Y137491D01*
X149125Y137383D01*
X149117D01*
X149109Y137375D01*
X149084Y137358D01*
X149050Y137341D01*
X148959Y137300D01*
X148842Y137250D01*
X148700Y137200D01*
X148534Y137158D01*
X148350Y137125D01*
X148159Y137116D01*
X148151D01*
X148125D01*
X148092D01*
X148042Y137125D01*
X147984Y137133D01*
X147917Y137141D01*
X147759Y137175D01*
X147576Y137225D01*
X147384Y137300D01*
X147292Y137350D01*
X147192Y137408D01*
X147101Y137483D01*
X147009Y137558D01*
X147001Y137566D01*
X146992Y137575D01*
X146967Y137608D01*
X146934Y137641D01*
X146901Y137691D01*
X146859Y137750D01*
X146809Y137816D01*
X146759Y137891D01*
X146709Y137983D01*
X146659Y138083D01*
X146609Y138199D01*
X146559Y138324D01*
X146518Y138458D01*
X146476Y138599D01*
X146443Y138758D01*
X146418Y138924D01*
X146409Y138907D01*
X146393Y138866D01*
X146359Y138807D01*
X146318Y138733D01*
X146209Y138566D01*
X146151Y138491D01*
X146093Y138416D01*
Y138408D01*
X146076Y138399D01*
X146034Y138349D01*
X145959Y138283D01*
X145859Y138183D01*
X145743Y138074D01*
X145593Y137958D01*
X145426Y137833D01*
X145243Y137708D01*
X143510Y136600D01*
Y137666D01*
X144835Y138508D01*
X144843D01*
X144860Y138524D01*
X144893Y138541D01*
X144926Y138566D01*
X144976Y138599D01*
X145035Y138641D01*
X145160Y138724D01*
X145301Y138824D01*
X145443Y138924D01*
X145584Y139024D01*
X145709Y139124D01*
X145726Y139132D01*
X145759Y139166D01*
X145818Y139207D01*
X145876Y139266D01*
X145951Y139332D01*
X146026Y139407D01*
X146084Y139482D01*
X146143Y139557D01*
X146151Y139566D01*
X146159Y139591D01*
X146184Y139624D01*
X146209Y139674D01*
X146243Y139732D01*
X146268Y139799D01*
X146318Y139941D01*
Y139949D01*
X146326Y139966D01*
Y139999D01*
X146334Y140049D01*
X146343Y140115D01*
Y140199D01*
X146351Y140290D01*
Y141390D01*
X143510D01*
Y142240D01*
X149917D01*
Y139257D01*
D02*
G37*
G36*
X148334Y135492D02*
X148350Y135467D01*
X148367Y135433D01*
X148392Y135392D01*
X148417Y135333D01*
X148459Y135267D01*
X148542Y135108D01*
X148650Y134934D01*
X148784Y134734D01*
X148925Y134542D01*
X149084Y134350D01*
X149092Y134342D01*
X149100Y134325D01*
X149125Y134300D01*
X149159Y134267D01*
X149242Y134184D01*
X149359Y134075D01*
X149483Y133967D01*
X149633Y133850D01*
X149783Y133742D01*
X149942Y133651D01*
Y133142D01*
X143510D01*
Y133926D01*
X148517D01*
X148509Y133942D01*
X148475Y133975D01*
X148417Y134042D01*
X148350Y134125D01*
X148267Y134234D01*
X148175Y134367D01*
X148076Y134509D01*
X147976Y134675D01*
Y134684D01*
X147967Y134692D01*
X147950Y134717D01*
X147934Y134750D01*
X147884Y134842D01*
X147826Y134950D01*
X147759Y135075D01*
X147692Y135217D01*
X147626Y135358D01*
X147567Y135500D01*
X148334D01*
Y135492D01*
D02*
G37*
G36*
X173491Y109215D02*
X173546D01*
X173606Y109210D01*
X173670Y109200D01*
X173745Y109190D01*
X173825Y109180D01*
X173909Y109165D01*
X174084Y109125D01*
X174258Y109071D01*
X174347Y109036D01*
X174432Y108996D01*
X174437Y108991D01*
X174452Y108986D01*
X174477Y108971D01*
X174507Y108951D01*
X174542Y108931D01*
X174586Y108901D01*
X174631Y108867D01*
X174686Y108827D01*
X174795Y108737D01*
X174905Y108623D01*
X175014Y108493D01*
X175064Y108419D01*
X175109Y108344D01*
X175114Y108339D01*
X175119Y108324D01*
X175129Y108299D01*
X175144Y108269D01*
X175164Y108229D01*
X175184Y108184D01*
X175204Y108130D01*
X175229Y108070D01*
X175249Y108000D01*
X175268Y107931D01*
X175308Y107771D01*
X175333Y107597D01*
X175343Y107507D01*
Y107358D01*
X175338Y107318D01*
X175333Y107268D01*
X175328Y107209D01*
X175318Y107144D01*
X175308Y107074D01*
X175273Y106925D01*
X175249Y106845D01*
X175219Y106761D01*
X175184Y106681D01*
X175149Y106601D01*
X175099Y106522D01*
X175049Y106447D01*
X175044Y106442D01*
X175034Y106432D01*
X175019Y106407D01*
X174995Y106382D01*
X174965Y106352D01*
X174930Y106313D01*
X174885Y106273D01*
X174835Y106228D01*
X174781Y106183D01*
X174721Y106138D01*
X174651Y106094D01*
X174581Y106049D01*
X174502Y106004D01*
X174417Y105964D01*
X174322Y105924D01*
X174228Y105894D01*
X174109Y106392D01*
X174113D01*
X174128Y106397D01*
X174148Y106407D01*
X174178Y106417D01*
X174213Y106432D01*
X174253Y106447D01*
X174342Y106492D01*
X174442Y106547D01*
X174542Y106611D01*
X174636Y106691D01*
X174676Y106736D01*
X174716Y106781D01*
Y106786D01*
X174726Y106791D01*
X174736Y106805D01*
X174746Y106825D01*
X174761Y106850D01*
X174776Y106880D01*
X174815Y106955D01*
X174850Y107049D01*
X174880Y107159D01*
X174900Y107283D01*
X174910Y107423D01*
Y107468D01*
X174905Y107498D01*
Y107532D01*
X174900Y107577D01*
X174890Y107627D01*
X174885Y107682D01*
X174860Y107796D01*
X174820Y107921D01*
X174766Y108045D01*
X174736Y108105D01*
X174696Y108165D01*
Y108170D01*
X174686Y108180D01*
X174676Y108194D01*
X174656Y108214D01*
X174611Y108264D01*
X174547Y108324D01*
X174467Y108394D01*
X174367Y108463D01*
X174258Y108528D01*
X174128Y108578D01*
X174123D01*
X174113Y108583D01*
X174093Y108588D01*
X174069Y108598D01*
X174034Y108608D01*
X173994Y108618D01*
X173949Y108628D01*
X173904Y108638D01*
X173790Y108657D01*
X173665Y108677D01*
X173531Y108692D01*
X173392Y108697D01*
X173387D01*
X173372D01*
X173347D01*
X173312D01*
X173267Y108692D01*
X173217Y108687D01*
X173163D01*
X173103Y108677D01*
X172968Y108662D01*
X172829Y108638D01*
X172680Y108603D01*
X172540Y108558D01*
X172535D01*
X172525Y108553D01*
X172505Y108543D01*
X172481Y108528D01*
X172451Y108513D01*
X172416Y108498D01*
X172336Y108448D01*
X172246Y108384D01*
X172157Y108309D01*
X172072Y108219D01*
X171998Y108115D01*
Y108110D01*
X171988Y108100D01*
X171983Y108085D01*
X171968Y108060D01*
X171958Y108035D01*
X171943Y108000D01*
X171908Y107921D01*
X171873Y107821D01*
X171848Y107711D01*
X171828Y107592D01*
X171818Y107463D01*
Y107423D01*
X171823Y107393D01*
X171828Y107353D01*
X171833Y107313D01*
X171838Y107263D01*
X171848Y107214D01*
X171878Y107099D01*
X171923Y106980D01*
X171948Y106915D01*
X171983Y106855D01*
X172017Y106796D01*
X172062Y106741D01*
X172067Y106736D01*
X172072Y106726D01*
X172087Y106711D01*
X172107Y106691D01*
X172132Y106671D01*
X172167Y106641D01*
X172202Y106611D01*
X172246Y106581D01*
X172291Y106547D01*
X172346Y106512D01*
X172406Y106482D01*
X172471Y106447D01*
X172545Y106417D01*
X172620Y106387D01*
X172700Y106362D01*
X172789Y106337D01*
X172660Y105830D01*
X172655D01*
X172635Y105840D01*
X172600Y105850D01*
X172555Y105860D01*
X172505Y105879D01*
X172446Y105904D01*
X172381Y105929D01*
X172306Y105964D01*
X172232Y105999D01*
X172152Y106044D01*
X172077Y106089D01*
X171998Y106143D01*
X171918Y106198D01*
X171843Y106263D01*
X171774Y106333D01*
X171709Y106407D01*
X171704Y106412D01*
X171694Y106427D01*
X171679Y106447D01*
X171659Y106482D01*
X171634Y106522D01*
X171604Y106572D01*
X171579Y106626D01*
X171550Y106686D01*
X171515Y106761D01*
X171490Y106835D01*
X171460Y106920D01*
X171435Y107010D01*
X171415Y107104D01*
X171400Y107204D01*
X171390Y107308D01*
X171385Y107418D01*
Y107478D01*
X171390Y107522D01*
X171395Y107572D01*
X171400Y107637D01*
X171405Y107702D01*
X171415Y107776D01*
X171445Y107936D01*
X171490Y108105D01*
X171520Y108189D01*
X171555Y108274D01*
X171589Y108354D01*
X171634Y108428D01*
X171639Y108433D01*
X171644Y108443D01*
X171659Y108463D01*
X171684Y108493D01*
X171709Y108523D01*
X171739Y108563D01*
X171779Y108603D01*
X171823Y108647D01*
X171868Y108697D01*
X171923Y108742D01*
X171983Y108792D01*
X172052Y108842D01*
X172122Y108891D01*
X172197Y108936D01*
X172281Y108981D01*
X172366Y109021D01*
X172371D01*
X172386Y109031D01*
X172416Y109041D01*
X172451Y109051D01*
X172495Y109066D01*
X172545Y109086D01*
X172605Y109101D01*
X172675Y109120D01*
X172749Y109140D01*
X172829Y109155D01*
X172914Y109175D01*
X172998Y109190D01*
X173192Y109210D01*
X173392Y109220D01*
X173397D01*
X173417D01*
X173451D01*
X173491Y109215D01*
D02*
G37*
G36*
X174093Y105392D02*
X174143Y105387D01*
X174203Y105377D01*
X174268Y105367D01*
X174333Y105352D01*
X174482Y105312D01*
X174562Y105287D01*
X174641Y105252D01*
X174716Y105212D01*
X174795Y105168D01*
X174865Y105118D01*
X174935Y105058D01*
X174940Y105053D01*
X174950Y105043D01*
X174970Y105023D01*
X174990Y104998D01*
X175019Y104964D01*
X175049Y104924D01*
X175079Y104874D01*
X175114Y104819D01*
X175149Y104764D01*
X175179Y104695D01*
X175209Y104625D01*
X175239Y104550D01*
X175259Y104471D01*
X175278Y104381D01*
X175288Y104291D01*
X175293Y104197D01*
Y104162D01*
X175288Y104132D01*
Y104102D01*
X175283Y104062D01*
X175268Y103973D01*
X175243Y103868D01*
X175209Y103754D01*
X175159Y103634D01*
X175089Y103515D01*
Y103510D01*
X175079Y103500D01*
X175069Y103485D01*
X175054Y103465D01*
X175005Y103410D01*
X174945Y103341D01*
X174860Y103266D01*
X174766Y103186D01*
X174651Y103111D01*
X174517Y103047D01*
X174512D01*
X174502Y103042D01*
X174477Y103032D01*
X174447Y103022D01*
X174407Y103007D01*
X174362Y102997D01*
X174308Y102982D01*
X174243Y102962D01*
X174168Y102947D01*
X174089Y102932D01*
X174004Y102922D01*
X173904Y102907D01*
X173800Y102897D01*
X173690Y102887D01*
X173571Y102882D01*
X173441D01*
X173431D01*
X173412D01*
X173372D01*
X173322D01*
X173257Y102887D01*
X173188Y102893D01*
X173108Y102897D01*
X173018Y102902D01*
X172929Y102912D01*
X172834Y102922D01*
X172635Y102947D01*
X172446Y102987D01*
X172356Y103012D01*
X172271Y103042D01*
X172267D01*
X172251Y103047D01*
X172232Y103057D01*
X172202Y103072D01*
X172162Y103087D01*
X172122Y103106D01*
X172027Y103161D01*
X171918Y103226D01*
X171808Y103311D01*
X171704Y103405D01*
X171609Y103520D01*
Y103525D01*
X171599Y103535D01*
X171589Y103550D01*
X171574Y103574D01*
X171560Y103604D01*
X171540Y103639D01*
X171520Y103684D01*
X171500Y103729D01*
X171455Y103838D01*
X171420Y103963D01*
X171395Y104102D01*
X171390Y104177D01*
X171385Y104256D01*
Y104301D01*
X171390Y104331D01*
X171395Y104371D01*
X171400Y104411D01*
X171405Y104461D01*
X171415Y104515D01*
X171445Y104630D01*
X171490Y104754D01*
X171520Y104814D01*
X171555Y104874D01*
X171589Y104934D01*
X171634Y104988D01*
X171639Y104993D01*
X171644Y104998D01*
X171659Y105013D01*
X171679Y105033D01*
X171704Y105058D01*
X171739Y105083D01*
X171774Y105108D01*
X171813Y105138D01*
X171863Y105168D01*
X171913Y105197D01*
X171973Y105222D01*
X172038Y105252D01*
X172102Y105277D01*
X172177Y105297D01*
X172251Y105312D01*
X172336Y105327D01*
X172371Y104874D01*
X172366D01*
X172356Y104869D01*
X172341D01*
X172321Y104864D01*
X172262Y104849D01*
X172197Y104824D01*
X172117Y104799D01*
X172042Y104759D01*
X171973Y104714D01*
X171913Y104660D01*
X171908Y104650D01*
X171893Y104630D01*
X171868Y104595D01*
X171843Y104545D01*
X171818Y104486D01*
X171793Y104416D01*
X171779Y104331D01*
X171774Y104242D01*
Y104207D01*
X171779Y104167D01*
X171784Y104112D01*
X171798Y104057D01*
X171813Y103993D01*
X171838Y103928D01*
X171868Y103863D01*
X171873Y103858D01*
X171888Y103833D01*
X171908Y103804D01*
X171938Y103769D01*
X171978Y103724D01*
X172022Y103679D01*
X172072Y103634D01*
X172132Y103594D01*
X172142Y103589D01*
X172162Y103574D01*
X172202Y103560D01*
X172251Y103535D01*
X172316Y103505D01*
X172391Y103475D01*
X172481Y103445D01*
X172580Y103420D01*
X172585D01*
X172595Y103415D01*
X172610D01*
X172630Y103410D01*
X172655Y103405D01*
X172685Y103400D01*
X172759Y103385D01*
X172844Y103370D01*
X172943Y103360D01*
X173048Y103355D01*
X173158Y103350D01*
X173163D01*
X173183D01*
X173212D01*
X173252D01*
X173242Y103355D01*
X173217Y103375D01*
X173172Y103410D01*
X173123Y103455D01*
X173063Y103510D01*
X173003Y103574D01*
X172943Y103654D01*
X172889Y103739D01*
Y103744D01*
X172884Y103749D01*
X172874Y103764D01*
X172869Y103784D01*
X172844Y103828D01*
X172819Y103898D01*
X172794Y103973D01*
X172769Y104062D01*
X172754Y104162D01*
X172749Y104267D01*
Y104311D01*
X172754Y104346D01*
X172759Y104386D01*
X172769Y104436D01*
X172779Y104486D01*
X172794Y104545D01*
X172809Y104605D01*
X172834Y104670D01*
X172859Y104734D01*
X172894Y104804D01*
X172934Y104874D01*
X172978Y104939D01*
X173033Y105003D01*
X173093Y105068D01*
X173098Y105073D01*
X173108Y105083D01*
X173128Y105098D01*
X173158Y105118D01*
X173188Y105143D01*
X173232Y105173D01*
X173282Y105202D01*
X173337Y105232D01*
X173397Y105262D01*
X173466Y105292D01*
X173541Y105322D01*
X173621Y105347D01*
X173705Y105367D01*
X173800Y105382D01*
X173894Y105392D01*
X173999Y105397D01*
X174004D01*
X174024D01*
X174054D01*
X174093Y105392D01*
D02*
G37*
G36*
X152839Y302337D02*
X152957Y302325D01*
X153074Y302302D01*
X153210Y302272D01*
X153351Y302237D01*
X153487Y302184D01*
X153634Y302119D01*
X153787Y302037D01*
X153940Y301942D01*
X154088Y301831D01*
X154229Y301701D01*
X154288Y301642D01*
X154323Y301595D01*
X154370Y301536D01*
X154429Y301465D01*
X154482Y301389D01*
X154547Y301300D01*
X154665Y301100D01*
X154718Y300988D01*
X154765Y300870D01*
X154818Y300747D01*
X154853Y300617D01*
X154877Y300487D01*
X154895Y300352D01*
Y300340D01*
Y300317D01*
Y300281D01*
X154889Y300228D01*
Y300158D01*
X154877Y300087D01*
X154871Y299998D01*
X154848Y299904D01*
X154830Y299804D01*
X154795Y299698D01*
X154759Y299580D01*
X154706Y299468D01*
X154653Y299345D01*
X154588Y299233D01*
X154512Y299109D01*
X154418Y298991D01*
X153793Y299533D01*
X153799Y299539D01*
X153805Y299557D01*
X153828Y299580D01*
X153852Y299615D01*
X153876Y299663D01*
X153905Y299716D01*
X153970Y299828D01*
X154035Y299975D01*
X154088Y300134D01*
X154123Y300299D01*
X154135Y300464D01*
X154129Y300481D01*
X154123Y300534D01*
X154105Y300623D01*
X154076Y300723D01*
X154035Y300847D01*
X153964Y300976D01*
X153882Y301106D01*
X153770Y301241D01*
X153728Y301283D01*
X153693Y301306D01*
X153658Y301330D01*
X153610Y301365D01*
X153498Y301442D01*
X153351Y301518D01*
X153180Y301571D01*
X153092Y301601D01*
X152992Y301618D01*
X152892Y301624D01*
X152762D01*
X152733Y301618D01*
X152691Y301613D01*
X152639Y301607D01*
X152574Y301589D01*
X152509Y301571D01*
X152432Y301554D01*
X152267Y301483D01*
X152085Y301395D01*
X151896Y301265D01*
X151802Y301194D01*
X151708Y301100D01*
X151702Y301094D01*
X151684Y301077D01*
X151661Y301053D01*
X151637Y301018D01*
X151596Y300976D01*
X151554Y300923D01*
X151472Y300794D01*
X151378Y300641D01*
X151301Y300470D01*
X151242Y300281D01*
X151225Y300181D01*
X151219Y300081D01*
X151213Y300075D01*
X151219Y300057D01*
X151225Y300028D01*
Y299993D01*
X151236Y299886D01*
X151266Y299751D01*
X151319Y299604D01*
X151390Y299439D01*
X151502Y299268D01*
X151560Y299186D01*
X151690Y299056D01*
X151743Y299015D01*
X151826Y298956D01*
X151908Y298897D01*
X152014Y298838D01*
X152138Y298785D01*
X152261Y298744D01*
X152279Y298738D01*
X152320Y298732D01*
X152379Y298720D01*
X152468Y298714D01*
X152562Y298702D01*
X152680D01*
X152792Y298708D01*
X152909Y298732D01*
X153357Y298131D01*
X150594Y296240D01*
X148344Y298490D01*
X148874Y299021D01*
X150683Y297212D01*
X152149Y298196D01*
X152138D01*
X152120Y298202D01*
X152079Y298207D01*
X152032Y298219D01*
X151979Y298237D01*
X151902Y298255D01*
X151831Y298278D01*
X151743Y298308D01*
X151560Y298384D01*
X151378Y298484D01*
X151183Y298608D01*
X151095Y298685D01*
X151007Y298761D01*
X150948Y298820D01*
X150912Y298867D01*
X150871Y298920D01*
X150824Y298991D01*
X150771Y299068D01*
X150712Y299162D01*
X150653Y299256D01*
X150606Y299362D01*
X150559Y299480D01*
X150506Y299604D01*
X150477Y299739D01*
X150447Y299875D01*
X150429Y300022D01*
X150423Y300169D01*
Y300181D01*
Y300205D01*
X150429Y300246D01*
X150435Y300311D01*
X150447Y300381D01*
X150459Y300464D01*
X150477Y300564D01*
X150506Y300664D01*
X150535Y300776D01*
X150583Y300894D01*
X150630Y301012D01*
X150694Y301135D01*
X150771Y301271D01*
X150859Y301395D01*
X150960Y301518D01*
X151072Y301642D01*
X151077Y301648D01*
X151101Y301672D01*
X151130Y301701D01*
X151178Y301736D01*
X151236Y301783D01*
X151307Y301842D01*
X151390Y301901D01*
X151478Y301954D01*
X151690Y302084D01*
X151808Y302143D01*
X151931Y302196D01*
X152061Y302243D01*
X152197Y302284D01*
X152338Y302320D01*
X152491Y302343D01*
X152503D01*
X152532Y302349D01*
X152591D01*
X152656Y302343D01*
X152745Y302349D01*
X152839Y302337D01*
D02*
G37*
G36*
X156709Y299068D02*
X156368Y297536D01*
X156362Y297530D01*
Y297507D01*
X156350Y297471D01*
X156344Y297430D01*
X156332Y297371D01*
X156320Y297300D01*
X156291Y297153D01*
X156262Y296982D01*
X156232Y296811D01*
X156203Y296640D01*
X156185Y296481D01*
X156179Y296464D01*
Y296417D01*
X156167Y296346D01*
Y296264D01*
X156161Y296163D01*
Y296057D01*
X156173Y295963D01*
X156185Y295869D01*
Y295857D01*
X156197Y295833D01*
X156203Y295792D01*
X156220Y295739D01*
X156238Y295674D01*
X156267Y295610D01*
X156332Y295474D01*
X156338Y295468D01*
X156344Y295450D01*
X156368Y295427D01*
X156397Y295386D01*
X156438Y295333D01*
X156497Y295274D01*
X156556Y295203D01*
X157334Y294426D01*
X159342Y296434D01*
X159943Y295833D01*
X155413Y291303D01*
X153304Y293412D01*
X153257Y293471D01*
X153204Y293524D01*
X153145Y293595D01*
X153080Y293671D01*
X152945Y293831D01*
X152815Y294007D01*
X152697Y294184D01*
X152644Y294272D01*
X152609Y294355D01*
X152603Y294361D01*
Y294373D01*
X152591Y294396D01*
X152580Y294431D01*
X152550Y294520D01*
X152527Y294638D01*
X152503Y294779D01*
X152497Y294938D01*
X152509Y295115D01*
X152538Y295297D01*
X152544Y295303D01*
Y295315D01*
X152550Y295345D01*
X152562Y295380D01*
X152597Y295474D01*
X152644Y295592D01*
X152709Y295727D01*
X152797Y295875D01*
X152904Y296028D01*
X153033Y296169D01*
X153039Y296175D01*
X153057Y296193D01*
X153080Y296216D01*
X153122Y296246D01*
X153169Y296281D01*
X153222Y296322D01*
X153357Y296411D01*
X153522Y296505D01*
X153711Y296588D01*
X153811Y296617D01*
X153923Y296646D01*
X154040Y296658D01*
X154158Y296670D01*
X154182D01*
X154223Y296664D01*
X154270D01*
X154329Y296652D01*
X154400Y296640D01*
X154482Y296629D01*
X154571Y296611D01*
X154671Y296582D01*
X154777Y296546D01*
X154895Y296499D01*
X155019Y296446D01*
X155142Y296381D01*
X155272Y296311D01*
X155407Y296222D01*
X155543Y296122D01*
X155537Y296140D01*
X155519Y296181D01*
X155501Y296246D01*
X155478Y296328D01*
X155437Y296523D01*
X155425Y296617D01*
X155413Y296711D01*
X155407Y296717D01*
X155413Y296735D01*
X155407Y296800D01*
X155413Y296900D01*
Y297041D01*
X155419Y297200D01*
X155443Y297389D01*
X155472Y297595D01*
X155513Y297813D01*
X155955Y299822D01*
X156709Y299068D01*
D02*
G37*
G36*
X168099Y206056D02*
X168176Y206049D01*
X168261Y206035D01*
X168345Y206021D01*
X168430Y206000D01*
X168521Y205971D01*
X168609Y205940D01*
X168613Y205936D01*
X168630Y205933D01*
X168658Y205919D01*
X168690Y205901D01*
X168732Y205880D01*
X168782Y205859D01*
X168834Y205827D01*
X168898Y205792D01*
X168965Y205753D01*
X169032Y205707D01*
X169105Y205662D01*
X169176Y205612D01*
X169327Y205489D01*
X169475Y205355D01*
X169479Y205352D01*
X169493Y205338D01*
X169517Y205313D01*
X169542Y205282D01*
X169581Y205243D01*
X169620Y205197D01*
X169658Y205144D01*
X169704Y205084D01*
X169753Y205021D01*
X169802Y204951D01*
X169898Y204799D01*
X169982Y204637D01*
X170021Y204549D01*
X170052Y204461D01*
Y204454D01*
X170060Y204440D01*
X170067Y204412D01*
X170074Y204377D01*
X170084Y204338D01*
X170095Y204285D01*
X170102Y204229D01*
X170112Y204162D01*
X170126Y204021D01*
X170123Y203863D01*
X170109Y203694D01*
X170091Y203606D01*
X170070Y203521D01*
Y203514D01*
X170063Y203500D01*
X170052Y203476D01*
X170042Y203444D01*
X170028Y203402D01*
X170010Y203356D01*
X169986Y203303D01*
X169961Y203243D01*
X169926Y203180D01*
X169890Y203116D01*
X169806Y202976D01*
X169700Y202835D01*
X169644Y202764D01*
X169538Y202659D01*
X169507Y202634D01*
X169468Y202603D01*
X169422Y202564D01*
X169370Y202525D01*
X169313Y202483D01*
X169183Y202402D01*
X169109Y202363D01*
X169028Y202324D01*
X168947Y202293D01*
X168866Y202261D01*
X168775Y202240D01*
X168687Y202222D01*
X168680D01*
X168666D01*
X168637Y202215D01*
X168602D01*
X168560D01*
X168507Y202212D01*
X168447Y202215D01*
X168380Y202219D01*
X168310Y202226D01*
X168236Y202236D01*
X168155Y202254D01*
X168074Y202272D01*
X167986Y202296D01*
X167898Y202328D01*
X167803Y202367D01*
X167715Y202412D01*
X167983Y202849D01*
X167986Y202845D01*
X168000Y202838D01*
X168021Y202831D01*
X168049Y202817D01*
X168085Y202803D01*
X168123Y202786D01*
X168218Y202754D01*
X168328Y202722D01*
X168444Y202698D01*
X168567Y202687D01*
X168627Y202691D01*
X168687Y202694D01*
X168690Y202698D01*
X168701Y202694D01*
X168718Y202698D01*
X168739Y202705D01*
X168768Y202712D01*
X168799Y202722D01*
X168880Y202747D01*
X168972Y202789D01*
X169070Y202845D01*
X169172Y202919D01*
X169278Y203011D01*
X169310Y203043D01*
X169327Y203067D01*
X169352Y203092D01*
X169380Y203127D01*
X169408Y203169D01*
X169443Y203212D01*
X169507Y203310D01*
X169567Y203426D01*
X169616Y203553D01*
X169637Y203616D01*
X169651Y203687D01*
X169655Y203690D01*
Y203704D01*
X169658Y203722D01*
Y203750D01*
X169662Y203817D01*
X169658Y203905D01*
X169651Y204011D01*
X169630Y204130D01*
X169598Y204254D01*
X169542Y204380D01*
X169538Y204384D01*
X169535Y204394D01*
X169524Y204412D01*
X169514Y204437D01*
X169496Y204468D01*
X169475Y204503D01*
X169450Y204542D01*
X169426Y204581D01*
X169359Y204676D01*
X169285Y204778D01*
X169201Y204884D01*
X169105Y204986D01*
X169102Y204989D01*
X169091Y205000D01*
X169074Y205017D01*
X169049Y205042D01*
X169014Y205070D01*
X168975Y205102D01*
X168937Y205141D01*
X168887Y205176D01*
X168782Y205260D01*
X168666Y205341D01*
X168535Y205422D01*
X168405Y205489D01*
X168401Y205493D01*
X168391Y205496D01*
X168370Y205503D01*
X168342Y205510D01*
X168310Y205521D01*
X168275Y205535D01*
X168183Y205556D01*
X168074Y205574D01*
X167958Y205584D01*
X167835Y205581D01*
X167708Y205560D01*
X167704Y205556D01*
X167690D01*
X167676Y205549D01*
X167648Y205542D01*
X167624Y205531D01*
X167588Y205517D01*
X167507Y205486D01*
X167412Y205440D01*
X167317Y205380D01*
X167219Y205310D01*
X167120Y205225D01*
X167092Y205197D01*
X167074Y205172D01*
X167050Y205141D01*
X167025Y205109D01*
X166993Y205070D01*
X166965Y205028D01*
X166905Y204926D01*
X166852Y204810D01*
X166824Y204746D01*
X166807Y204680D01*
X166789Y204613D01*
X166782Y204542D01*
Y204535D01*
X166779Y204525D01*
Y204503D01*
Y204475D01*
X166782Y204444D01*
X166786Y204398D01*
X166789Y204352D01*
X166800Y204299D01*
X166807Y204243D01*
X166821Y204180D01*
X166842Y204116D01*
X166863Y204046D01*
X166895Y203972D01*
X166926Y203898D01*
X166965Y203824D01*
X167011Y203743D01*
X166560Y203476D01*
X166557Y203479D01*
X166550Y203500D01*
X166532Y203532D01*
X166507Y203571D01*
X166486Y203620D01*
X166462Y203680D01*
X166434Y203743D01*
X166406Y203820D01*
X166377Y203898D01*
X166353Y203986D01*
X166332Y204070D01*
X166314Y204165D01*
X166296Y204261D01*
X166289Y204359D01*
Y204458D01*
X166296Y204556D01*
Y204563D01*
X166300Y204581D01*
X166303Y204606D01*
X166314Y204644D01*
X166325Y204690D01*
X166339Y204746D01*
X166360Y204803D01*
X166381Y204866D01*
X166409Y204944D01*
X166444Y205014D01*
X166483Y205095D01*
X166529Y205176D01*
X166581Y205257D01*
X166641Y205338D01*
X166708Y205419D01*
X166782Y205500D01*
X166824Y205542D01*
X166860Y205570D01*
X166898Y205602D01*
X166948Y205644D01*
X166997Y205686D01*
X167057Y205732D01*
X167190Y205824D01*
X167342Y205912D01*
X167423Y205950D01*
X167507Y205986D01*
X167588Y206017D01*
X167673Y206038D01*
X167680D01*
X167690Y206042D01*
X167715Y206045D01*
X167754Y206049D01*
X167792Y206052D01*
X167842Y206059D01*
X167898D01*
X167961D01*
X168028Y206063D01*
X168099Y206056D01*
D02*
G37*
G36*
X166596Y200990D02*
X166599Y201001D01*
Y201029D01*
X166603Y201082D01*
X166610Y201145D01*
X166620Y201226D01*
X166638Y201321D01*
X166655Y201423D01*
X166684Y201536D01*
X166687Y201539D01*
Y201546D01*
X166691Y201564D01*
X166698Y201585D01*
X166715Y201645D01*
X166736Y201715D01*
X166761Y201796D01*
X166793Y201884D01*
X166824Y201972D01*
X166860Y202057D01*
X167183Y201733D01*
X167180Y201730D01*
X167176Y201712D01*
X167169Y201691D01*
X167162Y201663D01*
X167148Y201627D01*
X167138Y201582D01*
X167106Y201480D01*
X167078Y201360D01*
X167050Y201219D01*
X167029Y201078D01*
X167015Y200930D01*
Y200923D01*
X167011Y200913D01*
Y200892D01*
Y200863D01*
Y200793D01*
X167015Y200698D01*
X167022Y200599D01*
X167036Y200487D01*
X167053Y200378D01*
X167081Y200272D01*
X166867Y200057D01*
X164149Y202775D01*
X164480Y203106D01*
X166596Y200990D01*
D02*
G37*
%LPC*%
G36*
X79467Y141390D02*
X77342D01*
Y139432D01*
X77351Y139374D01*
X77359Y139241D01*
X77367Y139099D01*
X77392Y138941D01*
X77417Y138799D01*
X77459Y138666D01*
X77467Y138649D01*
X77484Y138608D01*
X77509Y138549D01*
X77551Y138474D01*
X77601Y138399D01*
X77667Y138316D01*
X77751Y138233D01*
X77842Y138166D01*
X77851Y138158D01*
X77892Y138141D01*
X77942Y138108D01*
X78017Y138074D01*
X78101Y138049D01*
X78200Y138016D01*
X78300Y137999D01*
X78417Y137991D01*
X78425D01*
X78434D01*
X78459D01*
X78492Y137999D01*
X78575Y138008D01*
X78684Y138033D01*
X78800Y138074D01*
X78925Y138133D01*
X79050Y138216D01*
X79167Y138324D01*
X79184Y138341D01*
X79217Y138391D01*
X79259Y138466D01*
X79317Y138583D01*
X79342Y138649D01*
X79375Y138724D01*
X79400Y138807D01*
X79417Y138907D01*
X79442Y139008D01*
X79450Y139116D01*
X79467Y139241D01*
Y141390D01*
D02*
G37*
G36*
X78567Y135042D02*
X78559D01*
X78550D01*
X78525D01*
X78492Y135034D01*
X78409Y135025D01*
X78309Y135008D01*
X78192Y134975D01*
X78067Y134925D01*
X77942Y134850D01*
X77826Y134759D01*
X77817Y134742D01*
X77784Y134709D01*
X77734Y134642D01*
X77684Y134550D01*
X77634Y134442D01*
X77584Y134309D01*
X77551Y134159D01*
X77542Y133992D01*
Y133951D01*
X77551Y133917D01*
X77559Y133834D01*
X77576Y133734D01*
X77609Y133617D01*
X77659Y133492D01*
X77734Y133367D01*
X77826Y133251D01*
X77842Y133234D01*
X77876Y133201D01*
X77934Y133159D01*
X78017Y133101D01*
X78117Y133051D01*
X78242Y133001D01*
X78376Y132967D01*
X78525Y132959D01*
X78534D01*
X78542D01*
X78567D01*
X78600Y132967D01*
X78675Y132976D01*
X78775Y132992D01*
X78892Y133034D01*
X79017Y133084D01*
X79134Y133159D01*
X79250Y133259D01*
X79267Y133276D01*
X79300Y133309D01*
X79342Y133376D01*
X79400Y133467D01*
X79458Y133576D01*
X79500Y133701D01*
X79534Y133842D01*
X79550Y134000D01*
Y134042D01*
X79542Y134075D01*
X79534Y134159D01*
X79517Y134267D01*
X79475Y134384D01*
X79425Y134509D01*
X79359Y134634D01*
X79259Y134750D01*
X79242Y134759D01*
X79209Y134792D01*
X79142Y134842D01*
X79067Y134892D01*
X78959Y134950D01*
X78842Y134992D01*
X78709Y135025D01*
X78567Y135042D01*
D02*
G37*
G36*
X75618Y135300D02*
X75601D01*
X75560D01*
X75493Y135292D01*
X75410Y135283D01*
X75310Y135267D01*
X75193Y135233D01*
X75076Y135200D01*
X74960Y135150D01*
X74943Y135142D01*
X74910Y135117D01*
X74851Y135084D01*
X74785Y135034D01*
X74710Y134967D01*
X74626Y134884D01*
X74551Y134784D01*
X74476Y134675D01*
X74468Y134659D01*
X74451Y134617D01*
X74426Y134559D01*
X74393Y134475D01*
X74360Y134367D01*
X74335Y134259D01*
X74318Y134134D01*
X74310Y134000D01*
Y133942D01*
X74318Y133909D01*
Y133859D01*
X74327Y133800D01*
X74352Y133667D01*
X74401Y133526D01*
X74460Y133367D01*
X74551Y133209D01*
X74601Y133134D01*
X74668Y133067D01*
X74676Y133059D01*
X74685Y133051D01*
X74735Y133009D01*
X74810Y132951D01*
X74918Y132884D01*
X75051Y132817D01*
X75210Y132759D01*
X75385Y132717D01*
X75484Y132701D01*
X75585D01*
X75593D01*
X75609D01*
X75643D01*
X75684Y132709D01*
X75726D01*
X75785Y132717D01*
X75918Y132751D01*
X76068Y132792D01*
X76226Y132859D01*
X76384Y132951D01*
X76459Y133009D01*
X76526Y133076D01*
X76534D01*
X76543Y133092D01*
X76584Y133142D01*
X76643Y133226D01*
X76718Y133334D01*
X76784Y133476D01*
X76842Y133634D01*
X76884Y133817D01*
X76901Y133917D01*
Y134075D01*
X76892Y134117D01*
Y134167D01*
X76884Y134217D01*
X76859Y134350D01*
X76809Y134492D01*
X76743Y134650D01*
X76659Y134800D01*
X76601Y134875D01*
X76534Y134942D01*
X76518Y134958D01*
X76468Y135000D01*
X76393Y135058D01*
X76284Y135117D01*
X76151Y135183D01*
X75993Y135242D01*
X75818Y135283D01*
X75718Y135292D01*
X75618Y135300D01*
D02*
G37*
G36*
X95774Y151763D02*
X95649D01*
X95641D01*
X95616D01*
X95582D01*
X95541Y151754D01*
X95482D01*
X95416Y151746D01*
X95266Y151721D01*
X95099Y151679D01*
X94924Y151613D01*
X94757Y151521D01*
X94674Y151471D01*
X94599Y151404D01*
X94591D01*
X94583Y151388D01*
X94541Y151338D01*
X94474Y151263D01*
X94408Y151163D01*
X94341Y151029D01*
X94274Y150879D01*
X94233Y150704D01*
X94216Y150613D01*
Y150463D01*
X94224Y150421D01*
Y150380D01*
X94233Y150321D01*
X94266Y150205D01*
X94308Y150063D01*
X94374Y149905D01*
X94474Y149755D01*
X94532Y149680D01*
X94599Y149613D01*
X94607D01*
X94616Y149596D01*
X94641Y149580D01*
X94666Y149555D01*
X94749Y149496D01*
X94866Y149430D01*
X95016Y149363D01*
X95182Y149305D01*
X95382Y149263D01*
X95491Y149255D01*
X95607Y149247D01*
X95616D01*
X95624D01*
X95674D01*
X95757Y149255D01*
X95857Y149271D01*
X95974Y149288D01*
X96107Y149313D01*
X96249Y149355D01*
X96390Y149413D01*
X96407Y149422D01*
X96449Y149446D01*
X96515Y149488D01*
X96599Y149538D01*
X96690Y149605D01*
X96782Y149688D01*
X96865Y149788D01*
X96948Y149896D01*
X96957Y149913D01*
X96982Y149946D01*
X97007Y150013D01*
X97040Y150096D01*
X97082Y150188D01*
X97107Y150305D01*
X97132Y150421D01*
X97140Y150546D01*
Y150596D01*
X97132Y150630D01*
X97115Y150721D01*
X97090Y150838D01*
X97040Y150979D01*
X96973Y151121D01*
X96874Y151263D01*
X96807Y151338D01*
X96740Y151404D01*
X96732Y151413D01*
X96724Y151421D01*
X96699Y151438D01*
X96665Y151463D01*
X96624Y151488D01*
X96574Y151521D01*
X96515Y151554D01*
X96457Y151588D01*
X96299Y151646D01*
X96107Y151704D01*
X95891Y151746D01*
X95774Y151763D01*
D02*
G37*
G36*
X93033Y146489D02*
X93025D01*
X93016D01*
X92991D01*
X92958Y146481D01*
X92875Y146472D01*
X92766Y146447D01*
X92650Y146406D01*
X92525Y146347D01*
X92400Y146264D01*
X92283Y146156D01*
X92266Y146139D01*
X92233Y146089D01*
X92191Y146014D01*
X92133Y145897D01*
X92108Y145831D01*
X92075Y145756D01*
X92050Y145673D01*
X92033Y145573D01*
X92008Y145472D01*
X92000Y145364D01*
X91983Y145239D01*
Y143090D01*
X94108D01*
Y145048D01*
X94099Y145106D01*
X94091Y145239D01*
X94083Y145381D01*
X94058Y145539D01*
X94033Y145681D01*
X93991Y145814D01*
X93983Y145831D01*
X93966Y145872D01*
X93941Y145931D01*
X93899Y146006D01*
X93849Y146081D01*
X93783Y146164D01*
X93699Y146247D01*
X93608Y146314D01*
X93599Y146322D01*
X93558Y146339D01*
X93508Y146372D01*
X93433Y146406D01*
X93350Y146431D01*
X93250Y146464D01*
X93149Y146481D01*
X93033Y146489D01*
D02*
G37*
G36*
X116001D02*
X115993D01*
X115984D01*
X115960D01*
X115926Y146481D01*
X115843Y146472D01*
X115735Y146447D01*
X115618Y146406D01*
X115493Y146347D01*
X115368Y146264D01*
X115251Y146156D01*
X115235Y146139D01*
X115201Y146089D01*
X115160Y146014D01*
X115101Y145897D01*
X115076Y145831D01*
X115043Y145756D01*
X115018Y145673D01*
X115001Y145573D01*
X114977Y145472D01*
X114968Y145364D01*
X114951Y145239D01*
Y143090D01*
X117076D01*
Y145048D01*
X117068Y145106D01*
X117059Y145239D01*
X117051Y145381D01*
X117026Y145539D01*
X117001Y145681D01*
X116959Y145814D01*
X116951Y145831D01*
X116934Y145872D01*
X116909Y145931D01*
X116868Y146006D01*
X116818Y146081D01*
X116751Y146164D01*
X116668Y146247D01*
X116576Y146314D01*
X116568Y146322D01*
X116526Y146339D01*
X116476Y146372D01*
X116401Y146406D01*
X116318Y146431D01*
X116218Y146464D01*
X116118Y146481D01*
X116001Y146489D01*
D02*
G37*
G36*
X149208Y141390D02*
X147084D01*
Y139432D01*
X147092Y139374D01*
X147101Y139241D01*
X147109Y139099D01*
X147134Y138941D01*
X147159Y138799D01*
X147201Y138666D01*
X147209Y138649D01*
X147226Y138608D01*
X147251Y138549D01*
X147292Y138474D01*
X147342Y138399D01*
X147409Y138316D01*
X147492Y138233D01*
X147584Y138166D01*
X147592Y138158D01*
X147634Y138141D01*
X147684Y138108D01*
X147759Y138074D01*
X147842Y138049D01*
X147942Y138016D01*
X148042Y137999D01*
X148159Y137991D01*
X148167D01*
X148175D01*
X148201D01*
X148234Y137999D01*
X148317Y138008D01*
X148425Y138033D01*
X148542Y138074D01*
X148667Y138133D01*
X148792Y138216D01*
X148909Y138324D01*
X148925Y138341D01*
X148959Y138391D01*
X149000Y138466D01*
X149059Y138583D01*
X149084Y138649D01*
X149117Y138724D01*
X149142Y138807D01*
X149159Y138907D01*
X149184Y139008D01*
X149192Y139116D01*
X149208Y139241D01*
Y141390D01*
D02*
G37*
G36*
X173984Y104914D02*
X173979D01*
X173969D01*
X173949D01*
X173924Y104909D01*
X173889D01*
X173855Y104904D01*
X173770Y104889D01*
X173675Y104859D01*
X173576Y104824D01*
X173476Y104769D01*
X173431Y104739D01*
X173387Y104700D01*
Y104695D01*
X173377Y104690D01*
X173352Y104660D01*
X173317Y104615D01*
X173277Y104550D01*
X173232Y104471D01*
X173197Y104376D01*
X173172Y104271D01*
X173167Y104212D01*
X173163Y104152D01*
Y104122D01*
X173167Y104097D01*
Y104072D01*
X173172Y104038D01*
X173192Y103963D01*
X173217Y103878D01*
X173257Y103789D01*
X173312Y103704D01*
X173347Y103659D01*
X173387Y103619D01*
X173392Y103614D01*
X173397Y103609D01*
X173412Y103599D01*
X173431Y103584D01*
X173451Y103569D01*
X173481Y103550D01*
X173551Y103510D01*
X173640Y103475D01*
X173750Y103440D01*
X173880Y103415D01*
X173949Y103405D01*
X174024D01*
X174029D01*
X174044D01*
X174064D01*
X174089Y103410D01*
X174123D01*
X174163Y103415D01*
X174258Y103430D01*
X174357Y103455D01*
X174467Y103495D01*
X174571Y103550D01*
X174621Y103580D01*
X174666Y103619D01*
X174671D01*
X174676Y103629D01*
X174706Y103659D01*
X174741Y103704D01*
X174785Y103764D01*
X174830Y103838D01*
X174870Y103928D01*
X174895Y104032D01*
X174900Y104087D01*
X174905Y104142D01*
Y104172D01*
X174900Y104197D01*
X174895Y104222D01*
X174890Y104252D01*
X174875Y104326D01*
X174840Y104411D01*
X174795Y104506D01*
X174766Y104550D01*
X174731Y104595D01*
X174691Y104640D01*
X174646Y104685D01*
X174641D01*
X174636Y104695D01*
X174621Y104705D01*
X174601Y104719D01*
X174576Y104739D01*
X174547Y104759D01*
X174507Y104779D01*
X174467Y104799D01*
X174372Y104839D01*
X174258Y104879D01*
X174128Y104904D01*
X174059Y104909D01*
X173984Y104914D01*
D02*
G37*
G36*
X154412Y295851D02*
X154294D01*
X154182Y295833D01*
X154170D01*
X154129Y295816D01*
X154070Y295804D01*
X153993Y295774D01*
X153917Y295733D01*
X153823Y295686D01*
X153740Y295627D01*
X153652Y295551D01*
X153646Y295545D01*
X153640Y295539D01*
X153622Y295521D01*
X153605Y295492D01*
X153552Y295427D01*
X153493Y295333D01*
X153440Y295221D01*
X153392Y295091D01*
X153363Y294944D01*
X153357Y294785D01*
Y294761D01*
X153369Y294702D01*
X153392Y294620D01*
X153434Y294496D01*
X153463Y294431D01*
X153493Y294355D01*
X153534Y294278D01*
X153593Y294196D01*
X153646Y294107D01*
X153716Y294025D01*
X153793Y293925D01*
X155313Y292405D01*
X156815Y293907D01*
X155431Y295292D01*
X155384Y295327D01*
X155284Y295415D01*
X155177Y295509D01*
X155048Y295604D01*
X154930Y295686D01*
X154806Y295751D01*
X154789Y295757D01*
X154747Y295774D01*
X154689Y295798D01*
X154606Y295822D01*
X154518Y295839D01*
X154412Y295851D01*
D02*
G37*
%LPD*%
M02*
