G04*
G04 #@! TF.GenerationSoftware,Altium Limited,Altium Designer,26.9.1 (10)*
G04*
G04 Layer_Color=128*
G04 Board_Origin=34100000|22900000*
%FSLAX44Y44*%
%MOMM*%
G71*
G04*
G04 #@! TF.SameCoordinates,422ACB3C-2A18-4883-AF2F-CBEBC1C0E268*
G04*
G04*
G04 #@! TF.FilePolarity,Positive*
G04*
G01*
G75*
%ADD13C,0.1270*%
D13*
X77450Y378460D02*
X87650D01*
X82550Y373360D02*
Y383560D01*
X102850Y378460D02*
X113050D01*
X107950Y373360D02*
Y383560D01*
X128250Y378460D02*
X138450D01*
X133350Y373360D02*
Y383560D01*
X102850Y403860D02*
X113050D01*
X107950Y398760D02*
Y408960D01*
X128250Y403860D02*
X138450D01*
X133350Y398760D02*
Y408960D01*
X77450Y403860D02*
X87650D01*
X82550Y398760D02*
Y408960D01*
X15220Y311150D02*
X25420D01*
X20320Y306050D02*
Y316250D01*
X191750Y387350D02*
X201950D01*
X196850Y382250D02*
Y392450D01*
X191750Y361950D02*
X201950D01*
X196850Y356850D02*
Y367050D01*
X191750Y336550D02*
X201950D01*
X196850Y331450D02*
Y341650D01*
X191750Y311150D02*
X201950D01*
X196850Y306050D02*
Y316250D01*
X191750Y285750D02*
X201950D01*
X196850Y280650D02*
Y290850D01*
X191750Y260350D02*
X201950D01*
X196850Y255250D02*
Y265450D01*
X191750Y234950D02*
X201950D01*
X196850Y229850D02*
Y240050D01*
X191750Y209550D02*
X201950D01*
X196850Y204450D02*
Y214650D01*
X191750Y184150D02*
X201950D01*
X196850Y179050D02*
Y189250D01*
X191750Y158750D02*
X201950D01*
X196850Y153650D02*
Y163850D01*
X191750Y133350D02*
X201950D01*
X196850Y128250D02*
Y138450D01*
X191750Y107950D02*
X201950D01*
X196850Y102850D02*
Y113050D01*
X191750Y82550D02*
X201950D01*
X196850Y77450D02*
Y87650D01*
X191750Y57150D02*
X201950D01*
X196850Y52050D02*
Y62250D01*
X191750Y31750D02*
X201950D01*
X196850Y26650D02*
Y36850D01*
X15220Y387350D02*
X25420D01*
X20320Y382250D02*
Y392450D01*
X15220Y361950D02*
X25420D01*
X20320Y356850D02*
Y367050D01*
X15220Y336550D02*
X25420D01*
X20320Y331450D02*
Y341650D01*
X15220Y285750D02*
X25420D01*
X20320Y280650D02*
Y290850D01*
X15220Y260350D02*
X25420D01*
X20320Y255250D02*
Y265450D01*
X15220Y234950D02*
X25420D01*
X20320Y229850D02*
Y240050D01*
X15220Y209550D02*
X25420D01*
X20320Y204450D02*
Y214650D01*
X15220Y184150D02*
X25420D01*
X20320Y179050D02*
Y189250D01*
X15220Y158750D02*
X25420D01*
X20320Y153650D02*
Y163850D01*
X15220Y133350D02*
X25420D01*
X20320Y128250D02*
Y138450D01*
X15220Y107950D02*
X25420D01*
X20320Y102850D02*
Y113050D01*
X15220Y82550D02*
X25420D01*
X20320Y77450D02*
Y87650D01*
X15220Y57150D02*
X25420D01*
X20320Y52050D02*
Y62250D01*
X15220Y31750D02*
X25420D01*
X20320Y26650D02*
Y36850D01*
X152940Y80010D02*
X156940D01*
X154940Y78010D02*
Y82010D01*
X166910Y179206D02*
X170910D01*
X168910Y177206D02*
Y181206D01*
X48800Y25400D02*
X52800D01*
X50800Y23400D02*
Y27400D01*
X75470Y237147D02*
X79470D01*
X77470Y235147D02*
Y239147D01*
X122460Y303690D02*
X126460D01*
X124460Y301690D02*
Y305690D01*
X142010Y290830D02*
X145010D01*
X143510Y289330D02*
Y292330D01*
X83090Y67310D02*
X87090D01*
X85090Y65310D02*
Y69310D01*
X58960Y67310D02*
X62960D01*
X60960Y65310D02*
Y69310D01*
X97121Y81341D02*
X101121D01*
X99121Y79341D02*
Y83341D01*
X156750Y208121D02*
X160750D01*
X158750Y206122D02*
Y210121D01*
X168222Y218482D02*
X172222D01*
X170222Y216482D02*
Y220482D01*
X55150Y398780D02*
X59150D01*
X57150Y396780D02*
Y400780D01*
X53110Y331470D02*
X56110D01*
X54610Y329970D02*
Y332970D01*
X36170Y327208D02*
X40170D01*
X38170Y325208D02*
Y329208D01*
X167955Y410435D02*
X171955D01*
X169955Y408435D02*
Y412435D01*
X160910Y360680D02*
X164910D01*
X162910Y358680D02*
Y362680D01*
X54380Y359410D02*
X57380D01*
X55880Y357910D02*
Y360910D01*
X56920Y120650D02*
X59920D01*
X58420Y119150D02*
Y122150D01*
X84860Y123190D02*
X87860D01*
X86360Y121690D02*
Y124690D01*
X93250Y175260D02*
X97250D01*
X95250Y173260D02*
Y177260D01*
X142780Y181610D02*
X146780D01*
X144780Y179610D02*
Y183610D01*
X100870Y259080D02*
X104870D01*
X102870Y257080D02*
Y261080D01*
X108490Y238760D02*
X112490D01*
X110490Y236760D02*
Y240760D01*
X41180Y402590D02*
X45180D01*
X43180Y400590D02*
Y404590D01*
X37370Y19050D02*
X41370D01*
X39370Y17050D02*
Y21050D01*
X66580Y74930D02*
X70580D01*
X68580Y72930D02*
Y76930D01*
X120420Y71120D02*
X123420D01*
X121920Y69620D02*
Y72620D01*
X107220Y71120D02*
X111220D01*
X109220Y69120D02*
Y73120D01*
X142010Y74930D02*
X145010D01*
X143510Y73430D02*
Y76430D01*
X159851Y107316D02*
X163850D01*
X161850Y105316D02*
Y109316D01*
X128854Y142240D02*
X132854D01*
X130854Y140240D02*
Y144240D01*
X95790Y162560D02*
X99790D01*
X97790Y160560D02*
Y164560D01*
X116110Y162560D02*
X120110D01*
X118110Y160560D02*
Y164560D01*
X113570Y179070D02*
X117570D01*
X115570Y177070D02*
Y181070D01*
X118650Y219630D02*
X122650D01*
X120650Y217630D02*
Y221630D01*
X130080Y247650D02*
X134080D01*
X132080Y245650D02*
Y249650D01*
X114070Y258445D02*
X117070D01*
X115570Y256945D02*
Y259945D01*
X86130Y363220D02*
X89130D01*
X87630Y361720D02*
Y364720D01*
X173760Y298450D02*
X176760D01*
X175260Y296950D02*
Y299950D01*
X142730Y335280D02*
X146730D01*
X144730Y333280D02*
Y337280D01*
X168180Y345440D02*
X172180D01*
X170180Y343440D02*
Y347440D01*
X159290Y396240D02*
X163290D01*
X161290Y394240D02*
Y398240D01*
X182150Y410210D02*
X186150D01*
X184150Y408210D02*
Y412210D01*
M02*
