M48
;Layer_Color=9474304
;FILE_FORMAT=4:4
METRIC
;TYPE=PLATED
T01F00S00C0.3000
T02F00S00C0.4000
T03F00S00C1.0200
%
T01
X00058420Y00120650
X00086360Y00123190
X00121920Y00071120
X00143510Y00074930
X00115570Y00258445
X00143510Y00290830
X00175260Y00298450
X00087630Y00363220
X00055880Y00359410
X00054610Y00331470
T02
X00039370Y00019050
X00050800Y00025400
X00060960Y00067310
X00068580Y00074930
X00085090Y00067310
X00109220Y00071120
X00099121Y00081341
X00154940Y00080010
X00161850Y00107316
X00130854Y00142240
X00118110Y00162560
X00115570Y00179070
X00095250Y00175260
X00097790Y00162560
X00144780Y00181610
X00168910Y00179206
X00158750Y00208121
X00170222Y00218482
X00120650Y00219630
X00110490Y00238760
X00102870Y00259080
X00132080Y00247650
X00124460Y00303690
X00144730Y00335280
X00170180Y00345440
X00162910Y00360680
X00161290Y00396240
X00169955Y00410435
X00184150Y00410210
X00057150Y00398780
X00043180Y00402590
X00038170Y00327208
X00077470Y00237147
T03
X00020320Y00031750
Y00057150
Y00082550
Y00107950
Y00133350
Y00158750
Y00184150
Y00209550
X00196850
Y00184150
Y00158750
Y00133350
Y00107950
Y00082550
Y00057150
Y00031750
Y00234950
Y00260350
Y00285750
Y00311150
Y00336550
Y00361950
Y00387350
X00133350Y00378460
X00107950
X00082550
Y00403860
X00107950
X00133350
X00020320Y00387350
Y00361950
Y00336550
Y00311150
Y00285750
Y00260350
Y00234950
M30
