G04*
G04 #@! TF.GenerationSoftware,Altium Limited,Altium Designer,26.9.1 (10)*
G04*
G04 Layer_Color=8388736*
G04 Board_Origin=34100000|22900000*
%FSLAX44Y44*%
%MOMM*%
G71*
G04*
G04 #@! TF.SameCoordinates,422ACB3C-2A18-4883-AF2F-CBEBC1C0E268*
G04*
G04*
G04 #@! TF.FilePolarity,Positive*
G04*
G01*
G75*
%ADD58C,0.1000*%
D58*
X104220Y29210D02*
X114220D01*
X109220Y24210D02*
Y34210D01*
X55880Y41990D02*
Y51990D01*
X50880Y46990D02*
X60880D01*
X97790Y95330D02*
Y105330D01*
X92790Y100330D02*
X102790D01*
X73660Y95330D02*
Y105330D01*
X68660Y100330D02*
X78660D01*
X68660Y142240D02*
X78660D01*
X73660Y137240D02*
Y147240D01*
X92790Y142240D02*
X102790D01*
X97790Y137240D02*
Y147240D01*
X167640Y36910D02*
Y46910D01*
X162640Y41910D02*
X172640D01*
X120650Y95330D02*
Y105330D01*
X115650Y100330D02*
X125650D01*
X115650Y142240D02*
X125650D01*
X120650Y137240D02*
Y147240D01*
X143510Y95330D02*
Y105330D01*
X138510Y100330D02*
X148510D01*
X138510Y142240D02*
X148510D01*
X143510Y137240D02*
Y147240D01*
X168910Y127080D02*
Y137080D01*
X163910Y132080D02*
X173910D01*
X156484Y292374D02*
X163556Y299445D01*
X156484Y299446D02*
X163556Y292374D01*
X106760Y330200D02*
X116760D01*
X111760Y325200D02*
Y335200D01*
M02*
