G04*
G04 #@! TF.GenerationSoftware,Altium Limited,Altium Designer,26.9.1 (10)*
G04*
G04 Layer_Color=8421504*
G04 Board_Origin=34100000|22900000*
%FSLAX44Y44*%
%MOMM*%
G71*
G04*
G04 #@! TF.SameCoordinates,422ACB3C-2A18-4883-AF2F-CBEBC1C0E268*
G04*
G04*
G04 #@! TF.FilePolarity,Positive*
G04*
G01*
G75*
%ADD17R,1.6500X1.3000*%
%ADD18R,1.8000X1.9000*%
%ADD19R,1.0000X1.9000*%
%ADD20R,1.4250X1.5500*%
%ADD21R,0.4500X1.3800*%
%ADD22R,1.0000X0.7000*%
%ADD23R,0.8000X0.8000*%
G04:AMPARAMS|DCode=24|XSize=1.025mm|YSize=1.35mm|CornerRadius=0.1281mm|HoleSize=0mm|Usage=FLASHONLY|Rotation=270.000|XOffset=0mm|YOffset=0mm|HoleType=Round|Shape=RoundedRectangle|*
%AMROUNDEDRECTD24*
21,1,1.0250,1.0938,0,0,270.0*
21,1,0.7688,1.3500,0,0,270.0*
1,1,0.2563,-0.5469,-0.3844*
1,1,0.2563,-0.5469,0.3844*
1,1,0.2563,0.5469,0.3844*
1,1,0.2563,0.5469,-0.3844*
%
%ADD24ROUNDEDRECTD24*%
G04:AMPARAMS|DCode=25|XSize=0.6mm|YSize=1.95mm|CornerRadius=0mm|HoleSize=0mm|Usage=FLASHONLY|Rotation=45.000|XOffset=0mm|YOffset=0mm|HoleType=Round|Shape=Round|*
%AMOVALD25*
21,1,1.3500,0.6000,0.0000,0.0000,135.0*
1,1,0.6000,0.4773,-0.4773*
1,1,0.6000,-0.4773,0.4773*
%
%ADD25OVALD25*%

G04:AMPARAMS|DCode=26|XSize=0.6mm|YSize=1.95mm|CornerRadius=0mm|HoleSize=0mm|Usage=FLASHONLY|Rotation=315.000|XOffset=0mm|YOffset=0mm|HoleType=Round|Shape=Round|*
%AMOVALD26*
21,1,1.3500,0.6000,0.0000,0.0000,45.0*
1,1,0.6000,-0.4773,-0.4773*
1,1,0.6000,0.4773,0.4773*
%
%ADD26OVALD26*%

%ADD27R,1.5082X1.4057*%
%ADD28R,1.1000X2.0000*%
G04:AMPARAMS|DCode=29|XSize=0.55mm|YSize=0.5mm|CornerRadius=0.0625mm|HoleSize=0mm|Usage=FLASHONLY|Rotation=0.000|XOffset=0mm|YOffset=0mm|HoleType=Round|Shape=RoundedRectangle|*
%AMROUNDEDRECTD29*
21,1,0.5500,0.3750,0,0,0.0*
21,1,0.4250,0.5000,0,0,0.0*
1,1,0.1250,0.2125,-0.1875*
1,1,0.1250,-0.2125,-0.1875*
1,1,0.1250,-0.2125,0.1875*
1,1,0.1250,0.2125,0.1875*
%
%ADD29ROUNDEDRECTD29*%
G04:AMPARAMS|DCode=30|XSize=1.025mm|YSize=1.35mm|CornerRadius=0.1281mm|HoleSize=0mm|Usage=FLASHONLY|Rotation=135.000|XOffset=0mm|YOffset=0mm|HoleType=Round|Shape=RoundedRectangle|*
%AMROUNDEDRECTD30*
21,1,1.0250,1.0938,0,0,135.0*
21,1,0.7688,1.3500,0,0,135.0*
1,1,0.2563,0.1149,0.6585*
1,1,0.2563,0.6585,0.1149*
1,1,0.2563,-0.1149,-0.6585*
1,1,0.2563,-0.6585,-0.1149*
%
%ADD30ROUNDEDRECTD30*%
%ADD31R,1.0500X0.6500*%
%ADD32R,1.1000X1.0000*%
G04:AMPARAMS|DCode=33|XSize=0.55mm|YSize=0.5mm|CornerRadius=0.0625mm|HoleSize=0mm|Usage=FLASHONLY|Rotation=315.000|XOffset=0mm|YOffset=0mm|HoleType=Round|Shape=RoundedRectangle|*
%AMROUNDEDRECTD33*
21,1,0.5500,0.3750,0,0,315.0*
21,1,0.4250,0.5000,0,0,315.0*
1,1,0.1250,0.0177,-0.2828*
1,1,0.1250,-0.2828,0.0177*
1,1,0.1250,-0.0177,0.2828*
1,1,0.1250,0.2828,-0.0177*
%
%ADD33ROUNDEDRECTD33*%
D17*
X75470Y25710D02*
D03*
X142970D02*
D03*
D18*
X97720D02*
D03*
D19*
X124720D02*
D03*
D20*
X84345Y51460D02*
D03*
X134095D02*
D03*
D21*
X96220Y52310D02*
D03*
X109220D02*
D03*
X115720D02*
D03*
X122220D02*
D03*
X102720D02*
D03*
D22*
X55880Y55490D02*
D03*
Y38490D02*
D03*
D23*
X97790Y108580D02*
D03*
Y92080D02*
D03*
X73660Y92830D02*
D03*
Y107830D02*
D03*
X120650Y108580D02*
D03*
Y92080D02*
D03*
X143510Y92830D02*
D03*
Y107830D02*
D03*
X168910Y119580D02*
D03*
D24*
X73660Y132865D02*
D03*
Y151615D02*
D03*
X97790Y132865D02*
D03*
Y151615D02*
D03*
X120650D02*
D03*
Y132865D02*
D03*
X143510Y132865D02*
D03*
Y151615D02*
D03*
D25*
X98967Y289881D02*
D03*
X93310Y284224D02*
D03*
X87653Y278567D02*
D03*
X76340Y267254D02*
D03*
X65026Y255940D02*
D03*
X59369Y250283D02*
D03*
X119473Y190179D02*
D03*
X130787Y201493D02*
D03*
X136444Y207150D02*
D03*
X142100Y212806D02*
D03*
X147757Y218463D02*
D03*
X153414Y224120D02*
D03*
X159071Y229777D02*
D03*
X70683Y261597D02*
D03*
X81996Y272910D02*
D03*
X125130Y195836D02*
D03*
D26*
X59369Y229777D02*
D03*
X65026Y224120D02*
D03*
X70683Y218463D02*
D03*
X76340Y212806D02*
D03*
X81996Y207150D02*
D03*
X87653Y201493D02*
D03*
X93310Y195836D02*
D03*
X98967Y190179D02*
D03*
X159071Y250283D02*
D03*
X153414Y255940D02*
D03*
X147757Y261597D02*
D03*
X142100Y267254D02*
D03*
X136444Y272910D02*
D03*
X130787Y278567D02*
D03*
X125130Y284224D02*
D03*
X119473Y289881D02*
D03*
D27*
X167640Y51172D02*
D03*
Y32648D02*
D03*
D28*
X168910Y138580D02*
D03*
D29*
X172720Y101020D02*
D03*
Y92020D02*
D03*
D30*
X166649Y289281D02*
D03*
X153391Y302539D02*
D03*
D31*
X91010Y340950D02*
D03*
X132510D02*
D03*
X91010Y319450D02*
D03*
X132510D02*
D03*
D32*
X55880Y372480D02*
D03*
Y386980D02*
D03*
D33*
X163202Y200032D02*
D03*
X156838Y193668D02*
D03*
M02*
