G04*
G04 #@! TF.GenerationSoftware,Altium Limited,Altium Designer,26.9.1 (10)*
G04*
G04 Layer_Color=8388736*
G04 Board_Origin=34100000|22900000*
%FSLAX44Y44*%
%MOMM*%
G71*
G04*
G04 #@! TF.SameCoordinates,422ACB3C-2A18-4883-AF2F-CBEBC1C0E268*
G04*
G04*
G04 #@! TF.FilePolarity,Positive*
G04*
G01*
G75*
%ADD12C,0.2000*%
%ADD58C,0.1000*%
G36*
X199382Y250914D02*
X199533Y251022D01*
X199607Y251081D01*
X199666Y251131D01*
X199724Y251181D01*
X199766Y251214D01*
X199791Y251239D01*
X199799Y251248D01*
X199841Y251289D01*
X199899Y251348D01*
X199957Y251406D01*
X200016Y251472D01*
X200149Y251622D01*
X200282Y251781D01*
X200407Y251922D01*
X200466Y251989D01*
X200516Y252039D01*
X200549Y252089D01*
X200582Y252122D01*
X200599Y252147D01*
X200607Y252156D01*
X200741Y252306D01*
X200865Y252456D01*
X200974Y252581D01*
X201082Y252705D01*
X201182Y252814D01*
X201282Y252914D01*
X201365Y253005D01*
X201440Y253080D01*
X201507Y253155D01*
X201565Y253214D01*
X201615Y253264D01*
X201657Y253305D01*
X201690Y253330D01*
X201715Y253355D01*
X201724Y253372D01*
X201732D01*
X201882Y253497D01*
X202032Y253605D01*
X202165Y253697D01*
X202282Y253772D01*
X202373Y253830D01*
X202448Y253864D01*
X202498Y253888D01*
X202515Y253897D01*
X202657Y253947D01*
X202790Y253988D01*
X202923Y254013D01*
X203032Y254038D01*
X203132Y254047D01*
X203207Y254055D01*
X203256D01*
X203273D01*
X203415Y254047D01*
X203548Y254030D01*
X203673Y254005D01*
X203790Y253972D01*
X204006Y253880D01*
X204106Y253839D01*
X204190Y253789D01*
X204273Y253730D01*
X204340Y253689D01*
X204398Y253638D01*
X204448Y253597D01*
X204489Y253564D01*
X204515Y253539D01*
X204531Y253522D01*
X204540Y253514D01*
X204631Y253405D01*
X204706Y253297D01*
X204781Y253180D01*
X204839Y253055D01*
X204889Y252930D01*
X204931Y252814D01*
X204989Y252581D01*
X205014Y252472D01*
X205031Y252372D01*
X205039Y252281D01*
X205048Y252197D01*
X205056Y252139D01*
Y252047D01*
X205048Y251881D01*
X205039Y251722D01*
X205014Y251572D01*
X204981Y251439D01*
X204948Y251306D01*
X204906Y251189D01*
X204864Y251081D01*
X204823Y250981D01*
X204773Y250889D01*
X204731Y250814D01*
X204690Y250748D01*
X204656Y250689D01*
X204623Y250648D01*
X204598Y250614D01*
X204590Y250598D01*
X204581Y250589D01*
X204489Y250489D01*
X204390Y250406D01*
X204281Y250331D01*
X204165Y250264D01*
X204056Y250206D01*
X203940Y250156D01*
X203715Y250081D01*
X203615Y250048D01*
X203515Y250023D01*
X203431Y250006D01*
X203356Y249989D01*
X203290Y249981D01*
X203248D01*
X203215Y249973D01*
X203207D01*
X203123Y250781D01*
X203340Y250798D01*
X203523Y250831D01*
X203681Y250889D01*
X203823Y250956D01*
X203923Y251014D01*
X204006Y251073D01*
X204048Y251106D01*
X204065Y251122D01*
X204181Y251256D01*
X204265Y251406D01*
X204323Y251564D01*
X204365Y251706D01*
X204390Y251831D01*
X204398Y251889D01*
Y251939D01*
X204406Y251972D01*
Y252031D01*
X204390Y252222D01*
X204356Y252397D01*
X204306Y252547D01*
X204248Y252672D01*
X204181Y252772D01*
X204131Y252847D01*
X204098Y252889D01*
X204081Y252905D01*
X203956Y253022D01*
X203823Y253105D01*
X203698Y253164D01*
X203573Y253205D01*
X203465Y253230D01*
X203373Y253239D01*
X203340Y253247D01*
X203323D01*
X203307D01*
X203298D01*
X203215D01*
X203132Y253230D01*
X202957Y253189D01*
X202798Y253130D01*
X202657Y253064D01*
X202532Y252989D01*
X202482Y252955D01*
X202432Y252930D01*
X202398Y252905D01*
X202373Y252889D01*
X202357Y252880D01*
X202348Y252872D01*
X202248Y252797D01*
X202148Y252705D01*
X202040Y252605D01*
X201924Y252497D01*
X201699Y252264D01*
X201482Y252031D01*
X201382Y251922D01*
X201290Y251814D01*
X201207Y251714D01*
X201132Y251631D01*
X201074Y251564D01*
X201032Y251506D01*
X200999Y251472D01*
X200990Y251464D01*
X200791Y251222D01*
X200607Y251014D01*
X200441Y250839D01*
X200299Y250698D01*
X200182Y250581D01*
X200091Y250498D01*
X200057Y250473D01*
X200032Y250448D01*
X200024Y250439D01*
X200016Y250431D01*
X199857Y250306D01*
X199707Y250198D01*
X199566Y250114D01*
X199433Y250040D01*
X199324Y249981D01*
X199241Y249948D01*
X199208Y249931D01*
X199183Y249923D01*
X199174Y249914D01*
X199166D01*
X199066Y249881D01*
X198974Y249856D01*
X198883Y249839D01*
X198799Y249831D01*
X198724Y249823D01*
X198674D01*
X198641D01*
X198624D01*
Y254063D01*
X199382D01*
Y250914D01*
D02*
G37*
G36*
X197416Y244458D02*
X196850D01*
Y249665D01*
X197416D01*
Y244458D01*
D02*
G37*
G36*
X202165Y244174D02*
X202490Y244133D01*
X202640Y244108D01*
X202782Y244074D01*
X202915Y244041D01*
X203032Y244008D01*
X203140Y243966D01*
X203240Y243933D01*
X203323Y243899D01*
X203398Y243874D01*
X203456Y243849D01*
X203498Y243833D01*
X203523Y243824D01*
X203531Y243816D01*
X203798Y243658D01*
X203923Y243574D01*
X204040Y243491D01*
X204140Y243400D01*
X204240Y243308D01*
X204331Y243216D01*
X204406Y243133D01*
X204481Y243050D01*
X204540Y242975D01*
X204590Y242900D01*
X204639Y242841D01*
X204673Y242791D01*
X204698Y242758D01*
X204706Y242733D01*
X204715Y242725D01*
X204790Y242591D01*
X204856Y242450D01*
X204914Y242316D01*
X204964Y242175D01*
X205039Y241908D01*
X205089Y241667D01*
X205106Y241550D01*
X205114Y241450D01*
X205123Y241358D01*
X205131Y241283D01*
X205139Y241217D01*
Y241133D01*
X205131Y240884D01*
X205098Y240650D01*
X205056Y240425D01*
X204998Y240217D01*
X204931Y240017D01*
X204856Y239834D01*
X204773Y239667D01*
X204690Y239517D01*
X204598Y239384D01*
X204523Y239259D01*
X204440Y239159D01*
X204373Y239076D01*
X204315Y239009D01*
X204273Y238959D01*
X204240Y238926D01*
X204231Y238917D01*
X204056Y238767D01*
X203865Y238634D01*
X203665Y238526D01*
X203465Y238426D01*
X203256Y238342D01*
X203048Y238276D01*
X202848Y238218D01*
X202648Y238176D01*
X202465Y238143D01*
X202290Y238109D01*
X202140Y238092D01*
X202007Y238084D01*
X201890Y238076D01*
X201807Y238067D01*
X201782D01*
X201757D01*
X201749D01*
X201740D01*
X201582Y238076D01*
X201432Y238084D01*
X201132Y238126D01*
X200865Y238184D01*
X200741Y238218D01*
X200624Y238251D01*
X200524Y238284D01*
X200424Y238318D01*
X200341Y238351D01*
X200274Y238376D01*
X200216Y238401D01*
X200174Y238417D01*
X200149Y238434D01*
X200141D01*
X199874Y238584D01*
X199632Y238759D01*
X199533Y238842D01*
X199433Y238934D01*
X199341Y239026D01*
X199258Y239109D01*
X199191Y239192D01*
X199124Y239267D01*
X199074Y239334D01*
X199033Y239392D01*
X198991Y239442D01*
X198966Y239475D01*
X198958Y239501D01*
X198949Y239509D01*
X198874Y239642D01*
X198808Y239784D01*
X198749Y239917D01*
X198699Y240059D01*
X198624Y240334D01*
X198574Y240583D01*
X198549Y240700D01*
X198541Y240800D01*
X198533Y240892D01*
X198524Y240975D01*
X198516Y241033D01*
Y241125D01*
X198524Y241283D01*
X198533Y241433D01*
X198574Y241717D01*
X198641Y241983D01*
X198674Y242100D01*
X198716Y242216D01*
X198749Y242316D01*
X198783Y242408D01*
X198816Y242483D01*
X198849Y242550D01*
X198874Y242600D01*
X198891Y242641D01*
X198908Y242666D01*
Y242675D01*
X198983Y242808D01*
X199066Y242933D01*
X199258Y243158D01*
X199449Y243349D01*
X199541Y243433D01*
X199632Y243508D01*
X199724Y243574D01*
X199799Y243633D01*
X199874Y243674D01*
X199941Y243716D01*
X199991Y243749D01*
X200032Y243774D01*
X200057Y243783D01*
X200066Y243791D01*
X200216Y243858D01*
X200366Y243924D01*
X200665Y244024D01*
X200957Y244091D01*
X201099Y244116D01*
X201232Y244141D01*
X201357Y244158D01*
X201465Y244174D01*
X201565Y244183D01*
X201649D01*
X201724Y244191D01*
X201774D01*
X201807D01*
X201815D01*
X201990D01*
X202165Y244174D01*
D02*
G37*
G36*
X205031Y236085D02*
X199999D01*
X205031Y232719D01*
Y231852D01*
X198624D01*
Y232669D01*
X203648D01*
X198624Y236026D01*
Y236901D01*
X205031D01*
Y236085D01*
D02*
G37*
G36*
Y228562D02*
Y227637D01*
X198624Y225196D01*
Y226087D01*
X200565Y226787D01*
Y229470D01*
X198624Y230211D01*
Y231169D01*
X205031Y228562D01*
D02*
G37*
G36*
Y223654D02*
X199999D01*
X205031Y220289D01*
Y219422D01*
X198624D01*
Y220239D01*
X203648D01*
X198624Y223596D01*
Y224471D01*
X205031D01*
Y223654D01*
D02*
G37*
G36*
X197416Y213632D02*
X196850D01*
Y218839D01*
X197416D01*
Y213632D01*
D02*
G37*
G36*
X205031Y212224D02*
X200616D01*
X200424D01*
X200257Y212208D01*
X200124Y212199D01*
X200007Y212183D01*
X199924Y212166D01*
X199866Y212149D01*
X199824Y212141D01*
X199816Y212132D01*
X199724Y212099D01*
X199649Y212049D01*
X199583Y211999D01*
X199524Y211941D01*
X199474Y211891D01*
X199441Y211858D01*
X199424Y211824D01*
X199416Y211816D01*
X199366Y211724D01*
X199333Y211633D01*
X199307Y211541D01*
X199291Y211458D01*
X199282Y211383D01*
X199274Y211316D01*
Y211266D01*
X199282Y211116D01*
X199316Y210975D01*
X199357Y210858D01*
X199408Y210766D01*
X199457Y210683D01*
X199499Y210633D01*
X199533Y210591D01*
X199541Y210583D01*
X199599Y210541D01*
X199657Y210500D01*
X199807Y210441D01*
X199974Y210391D01*
X200141Y210358D01*
X200299Y210341D01*
X200366Y210333D01*
X200424Y210325D01*
X200474Y210316D01*
X200507D01*
X200532D01*
X200541D01*
X200432Y209550D01*
X200257D01*
X200099Y209558D01*
X199949Y209583D01*
X199807Y209608D01*
X199682Y209641D01*
X199566Y209675D01*
X199457Y209716D01*
X199357Y209750D01*
X199274Y209791D01*
X199199Y209833D01*
X199141Y209875D01*
X199091Y209908D01*
X199049Y209933D01*
X199024Y209958D01*
X199008Y209966D01*
X198999Y209975D01*
X198916Y210066D01*
X198841Y210158D01*
X198774Y210258D01*
X198724Y210366D01*
X198674Y210475D01*
X198633Y210583D01*
X198574Y210791D01*
X198558Y210883D01*
X198541Y210975D01*
X198533Y211058D01*
X198524Y211124D01*
X198516Y211183D01*
Y211266D01*
X198524Y211474D01*
X198549Y211666D01*
X198591Y211833D01*
X198633Y211974D01*
X198666Y212099D01*
X198708Y212183D01*
X198724Y212216D01*
X198733Y212241D01*
X198741Y212249D01*
Y212257D01*
X198841Y212407D01*
X198949Y212532D01*
X199058Y212641D01*
X199166Y212724D01*
X199266Y212791D01*
X199341Y212841D01*
X199374Y212857D01*
X199399Y212866D01*
X199408Y212874D01*
X199416D01*
X199499Y212907D01*
X199599Y212941D01*
X199799Y212991D01*
X200007Y213024D01*
X200207Y213049D01*
X200299Y213057D01*
X200391Y213066D01*
X200466D01*
X200532Y213074D01*
X200590D01*
X200632D01*
X200657D01*
X200665D01*
X205031D01*
Y212224D01*
D02*
G37*
G36*
X28526Y252389D02*
X28368Y252297D01*
X28218Y252189D01*
X28068Y252072D01*
X27943Y251964D01*
X27826Y251856D01*
X27743Y251772D01*
X27710Y251739D01*
X27685Y251714D01*
X27676Y251697D01*
X27668Y251689D01*
X27510Y251497D01*
X27368Y251306D01*
X27235Y251106D01*
X27127Y250931D01*
X27043Y250773D01*
X27002Y250706D01*
X26976Y250648D01*
X26951Y250606D01*
X26935Y250573D01*
X26918Y250548D01*
Y250539D01*
X26152D01*
X26210Y250681D01*
X26277Y250823D01*
X26343Y250964D01*
X26410Y251089D01*
X26468Y251197D01*
X26518Y251289D01*
X26535Y251322D01*
X26552Y251348D01*
X26560Y251356D01*
Y251364D01*
X26660Y251531D01*
X26760Y251672D01*
X26851Y251806D01*
X26935Y251914D01*
X27002Y251997D01*
X27060Y252064D01*
X27093Y252097D01*
X27102Y252114D01*
X22094D01*
Y252897D01*
X28526D01*
Y252389D01*
D02*
G37*
G36*
X20886Y244458D02*
X20320D01*
Y249665D01*
X20886D01*
Y244458D01*
D02*
G37*
G36*
X25635Y244174D02*
X25960Y244133D01*
X26110Y244108D01*
X26252Y244074D01*
X26385Y244041D01*
X26502Y244008D01*
X26610Y243966D01*
X26710Y243933D01*
X26793Y243899D01*
X26868Y243874D01*
X26927Y243849D01*
X26968Y243833D01*
X26993Y243824D01*
X27002Y243816D01*
X27268Y243658D01*
X27393Y243574D01*
X27510Y243491D01*
X27610Y243400D01*
X27710Y243308D01*
X27801Y243216D01*
X27876Y243133D01*
X27951Y243050D01*
X28010Y242975D01*
X28060Y242900D01*
X28110Y242841D01*
X28143Y242791D01*
X28168Y242758D01*
X28176Y242733D01*
X28184Y242725D01*
X28259Y242591D01*
X28326Y242450D01*
X28384Y242316D01*
X28435Y242175D01*
X28509Y241908D01*
X28559Y241667D01*
X28576Y241550D01*
X28584Y241450D01*
X28593Y241358D01*
X28601Y241283D01*
X28609Y241217D01*
Y241133D01*
X28601Y240884D01*
X28568Y240650D01*
X28526Y240425D01*
X28468Y240217D01*
X28401Y240017D01*
X28326Y239834D01*
X28243Y239667D01*
X28159Y239517D01*
X28068Y239384D01*
X27993Y239259D01*
X27910Y239159D01*
X27843Y239076D01*
X27785Y239009D01*
X27743Y238959D01*
X27710Y238926D01*
X27701Y238917D01*
X27526Y238767D01*
X27335Y238634D01*
X27135Y238526D01*
X26935Y238426D01*
X26727Y238342D01*
X26518Y238276D01*
X26318Y238218D01*
X26118Y238176D01*
X25935Y238143D01*
X25760Y238109D01*
X25610Y238092D01*
X25477Y238084D01*
X25360Y238076D01*
X25277Y238067D01*
X25252D01*
X25227D01*
X25219D01*
X25210D01*
X25052Y238076D01*
X24902Y238084D01*
X24602Y238126D01*
X24335Y238184D01*
X24211Y238218D01*
X24094Y238251D01*
X23994Y238284D01*
X23894Y238318D01*
X23811Y238351D01*
X23744Y238376D01*
X23686Y238401D01*
X23644Y238417D01*
X23619Y238434D01*
X23611D01*
X23344Y238584D01*
X23103Y238759D01*
X23003Y238842D01*
X22903Y238934D01*
X22811Y239026D01*
X22728Y239109D01*
X22661Y239192D01*
X22594Y239267D01*
X22544Y239334D01*
X22503Y239392D01*
X22461Y239442D01*
X22436Y239475D01*
X22428Y239501D01*
X22419Y239509D01*
X22344Y239642D01*
X22278Y239784D01*
X22219Y239917D01*
X22169Y240059D01*
X22094Y240334D01*
X22044Y240583D01*
X22019Y240700D01*
X22011Y240800D01*
X22003Y240892D01*
X21994Y240975D01*
X21986Y241033D01*
Y241125D01*
X21994Y241283D01*
X22003Y241433D01*
X22044Y241717D01*
X22111Y241983D01*
X22144Y242100D01*
X22186Y242216D01*
X22219Y242316D01*
X22253Y242408D01*
X22286Y242483D01*
X22319Y242550D01*
X22344Y242600D01*
X22361Y242641D01*
X22378Y242666D01*
Y242675D01*
X22453Y242808D01*
X22536Y242933D01*
X22728Y243158D01*
X22919Y243349D01*
X23011Y243433D01*
X23103Y243508D01*
X23194Y243574D01*
X23269Y243633D01*
X23344Y243674D01*
X23411Y243716D01*
X23461Y243749D01*
X23502Y243774D01*
X23527Y243783D01*
X23536Y243791D01*
X23686Y243858D01*
X23836Y243924D01*
X24136Y244024D01*
X24427Y244091D01*
X24569Y244116D01*
X24702Y244141D01*
X24827Y244158D01*
X24935Y244174D01*
X25035Y244183D01*
X25119D01*
X25194Y244191D01*
X25244D01*
X25277D01*
X25285D01*
X25460D01*
X25635Y244174D01*
D02*
G37*
G36*
X28501Y236085D02*
X23469D01*
X28501Y232719D01*
Y231852D01*
X22094D01*
Y232669D01*
X27118D01*
X22094Y236026D01*
Y236901D01*
X28501D01*
Y236085D01*
D02*
G37*
G36*
Y228562D02*
Y227637D01*
X22094Y225196D01*
Y226087D01*
X24036Y226787D01*
Y229470D01*
X22094Y230211D01*
Y231169D01*
X28501Y228562D01*
D02*
G37*
G36*
Y223654D02*
X23469D01*
X28501Y220289D01*
Y219422D01*
X22094D01*
Y220239D01*
X27118D01*
X22094Y223596D01*
Y224471D01*
X28501D01*
Y223654D01*
D02*
G37*
G36*
X20886Y213632D02*
X20320D01*
Y218839D01*
X20886D01*
Y213632D01*
D02*
G37*
G36*
X28501Y212224D02*
X24086D01*
X23894D01*
X23727Y212208D01*
X23594Y212199D01*
X23477Y212183D01*
X23394Y212166D01*
X23336Y212149D01*
X23294Y212141D01*
X23286Y212132D01*
X23194Y212099D01*
X23119Y212049D01*
X23052Y211999D01*
X22994Y211941D01*
X22944Y211891D01*
X22911Y211858D01*
X22894Y211824D01*
X22886Y211816D01*
X22836Y211724D01*
X22803Y211633D01*
X22778Y211541D01*
X22761Y211458D01*
X22753Y211383D01*
X22744Y211316D01*
Y211266D01*
X22753Y211116D01*
X22786Y210975D01*
X22828Y210858D01*
X22878Y210766D01*
X22927Y210683D01*
X22969Y210633D01*
X23003Y210591D01*
X23011Y210583D01*
X23069Y210541D01*
X23128Y210500D01*
X23277Y210441D01*
X23444Y210391D01*
X23611Y210358D01*
X23769Y210341D01*
X23836Y210333D01*
X23894Y210325D01*
X23944Y210316D01*
X23977D01*
X24002D01*
X24011D01*
X23902Y209550D01*
X23727D01*
X23569Y209558D01*
X23419Y209583D01*
X23277Y209608D01*
X23152Y209641D01*
X23036Y209675D01*
X22927Y209716D01*
X22828Y209750D01*
X22744Y209791D01*
X22669Y209833D01*
X22611Y209875D01*
X22561Y209908D01*
X22519Y209933D01*
X22494Y209958D01*
X22478Y209966D01*
X22469Y209975D01*
X22386Y210066D01*
X22311Y210158D01*
X22244Y210258D01*
X22194Y210366D01*
X22144Y210475D01*
X22103Y210583D01*
X22044Y210791D01*
X22028Y210883D01*
X22011Y210975D01*
X22003Y211058D01*
X21994Y211124D01*
X21986Y211183D01*
Y211266D01*
X21994Y211474D01*
X22019Y211666D01*
X22061Y211833D01*
X22103Y211974D01*
X22136Y212099D01*
X22178Y212183D01*
X22194Y212216D01*
X22203Y212241D01*
X22211Y212249D01*
Y212257D01*
X22311Y212407D01*
X22419Y212532D01*
X22528Y212641D01*
X22636Y212724D01*
X22736Y212791D01*
X22811Y212841D01*
X22844Y212857D01*
X22869Y212866D01*
X22878Y212874D01*
X22886D01*
X22969Y212907D01*
X23069Y212941D01*
X23269Y212991D01*
X23477Y213024D01*
X23677Y213049D01*
X23769Y213057D01*
X23861Y213066D01*
X23936D01*
X24002Y213074D01*
X24061D01*
X24102D01*
X24127D01*
X24136D01*
X28501D01*
Y212224D01*
D02*
G37*
G36*
X58230Y282541D02*
X57489Y282432D01*
X57422Y282532D01*
X57347Y282616D01*
X57264Y282699D01*
X57189Y282757D01*
X57122Y282816D01*
X57072Y282849D01*
X57039Y282874D01*
X57022Y282882D01*
X56905Y282941D01*
X56781Y282991D01*
X56664Y283024D01*
X56564Y283041D01*
X56464Y283057D01*
X56397Y283066D01*
X56214D01*
X56114Y283049D01*
X55914Y283007D01*
X55747Y282941D01*
X55606Y282874D01*
X55489Y282799D01*
X55406Y282732D01*
X55381Y282707D01*
X55356Y282691D01*
X55339Y282682D01*
Y282674D01*
X55273Y282599D01*
X55214Y282516D01*
X55123Y282341D01*
X55056Y282166D01*
X55014Y281991D01*
X54981Y281841D01*
X54973Y281774D01*
Y281716D01*
X54964Y281674D01*
Y281641D01*
Y281616D01*
Y281608D01*
Y281474D01*
X54981Y281358D01*
X55023Y281133D01*
X55089Y280941D01*
X55156Y280774D01*
X55198Y280708D01*
X55231Y280650D01*
X55264Y280591D01*
X55298Y280550D01*
X55322Y280516D01*
X55339Y280491D01*
X55347Y280483D01*
X55356Y280475D01*
X55431Y280400D01*
X55506Y280333D01*
X55589Y280275D01*
X55672Y280233D01*
X55831Y280150D01*
X55989Y280100D01*
X56122Y280075D01*
X56181Y280066D01*
X56222Y280058D01*
X56264Y280050D01*
X56322D01*
X56497Y280066D01*
X56647Y280100D01*
X56789Y280141D01*
X56905Y280200D01*
X56997Y280250D01*
X57072Y280300D01*
X57114Y280333D01*
X57130Y280341D01*
X57239Y280466D01*
X57330Y280608D01*
X57405Y280758D01*
X57464Y280908D01*
X57497Y281033D01*
X57514Y281091D01*
X57530Y281141D01*
X57539Y281183D01*
Y281216D01*
X57547Y281233D01*
Y281241D01*
X58372Y281183D01*
X58355Y281033D01*
X58322Y280891D01*
X58288Y280766D01*
X58239Y280641D01*
X58197Y280525D01*
X58138Y280416D01*
X58088Y280316D01*
X58030Y280233D01*
X57980Y280150D01*
X57922Y280083D01*
X57880Y280025D01*
X57830Y279975D01*
X57797Y279933D01*
X57772Y279908D01*
X57755Y279891D01*
X57747Y279883D01*
X57639Y279800D01*
X57530Y279725D01*
X57414Y279658D01*
X57289Y279608D01*
X57172Y279558D01*
X57055Y279517D01*
X56831Y279458D01*
X56722Y279442D01*
X56631Y279425D01*
X56539Y279417D01*
X56464Y279408D01*
X56406Y279400D01*
X56322D01*
X56131Y279408D01*
X55947Y279433D01*
X55772Y279475D01*
X55606Y279525D01*
X55456Y279583D01*
X55322Y279641D01*
X55198Y279716D01*
X55081Y279791D01*
X54981Y279858D01*
X54889Y279933D01*
X54814Y279991D01*
X54756Y280058D01*
X54706Y280100D01*
X54664Y280141D01*
X54648Y280166D01*
X54639Y280175D01*
X54548Y280300D01*
X54473Y280425D01*
X54406Y280550D01*
X54348Y280674D01*
X54298Y280800D01*
X54256Y280924D01*
X54198Y281166D01*
X54173Y281266D01*
X54156Y281366D01*
X54148Y281458D01*
X54139Y281533D01*
X54131Y281591D01*
Y281633D01*
Y281666D01*
Y281674D01*
X54139Y281841D01*
X54156Y281999D01*
X54181Y282149D01*
X54223Y282299D01*
X54264Y282432D01*
X54314Y282549D01*
X54365Y282666D01*
X54423Y282766D01*
X54473Y282857D01*
X54531Y282941D01*
X54581Y283007D01*
X54623Y283066D01*
X54664Y283116D01*
X54689Y283149D01*
X54706Y283166D01*
X54714Y283174D01*
X54823Y283274D01*
X54939Y283365D01*
X55056Y283440D01*
X55173Y283515D01*
X55298Y283566D01*
X55414Y283615D01*
X55522Y283657D01*
X55631Y283682D01*
X55739Y283707D01*
X55831Y283724D01*
X55914Y283740D01*
X55981Y283749D01*
X56039Y283757D01*
X56122D01*
X56239Y283749D01*
X56356Y283740D01*
X56581Y283690D01*
X56781Y283632D01*
X56964Y283557D01*
X57047Y283515D01*
X57114Y283482D01*
X57180Y283440D01*
X57230Y283416D01*
X57272Y283391D01*
X57305Y283365D01*
X57322Y283357D01*
X57330Y283349D01*
X56989Y285082D01*
X54431D01*
Y285832D01*
X57614D01*
X58230Y282541D01*
D02*
G37*
G36*
X62054Y286007D02*
X62346Y285965D01*
X62612Y285898D01*
X62729Y285865D01*
X62846Y285832D01*
X62946Y285790D01*
X63037Y285757D01*
X63112Y285723D01*
X63179Y285690D01*
X63229Y285665D01*
X63271Y285648D01*
X63295Y285640D01*
X63304Y285632D01*
X63429Y285557D01*
X63554Y285473D01*
X63770Y285290D01*
X63962Y285107D01*
X64112Y284923D01*
X64179Y284832D01*
X64237Y284757D01*
X64287Y284682D01*
X64320Y284624D01*
X64354Y284573D01*
X64379Y284532D01*
X64387Y284507D01*
X64395Y284499D01*
X64462Y284357D01*
X64520Y284207D01*
X64612Y283915D01*
X64679Y283624D01*
X64703Y283482D01*
X64720Y283349D01*
X64737Y283224D01*
X64753Y283116D01*
X64762Y283016D01*
Y282924D01*
X64770Y282857D01*
Y282799D01*
Y282766D01*
Y282757D01*
X64753Y282424D01*
X64720Y282099D01*
X64695Y281958D01*
X64662Y281816D01*
X64637Y281683D01*
X64604Y281558D01*
X64570Y281441D01*
X64545Y281341D01*
X64512Y281258D01*
X64487Y281183D01*
X64470Y281124D01*
X64454Y281074D01*
X64437Y281049D01*
Y281041D01*
X64370Y280900D01*
X64295Y280758D01*
X64220Y280633D01*
X64137Y280516D01*
X64054Y280400D01*
X63970Y280300D01*
X63895Y280208D01*
X63812Y280133D01*
X63737Y280058D01*
X63670Y279991D01*
X63604Y279941D01*
X63554Y279900D01*
X63504Y279858D01*
X63471Y279833D01*
X63454Y279825D01*
X63446Y279816D01*
X63320Y279741D01*
X63187Y279683D01*
X63046Y279625D01*
X62904Y279575D01*
X62621Y279500D01*
X62354Y279450D01*
X62229Y279433D01*
X62121Y279425D01*
X62013Y279417D01*
X61929Y279408D01*
X61854Y279400D01*
X61754D01*
X61571Y279408D01*
X61396Y279425D01*
X61229Y279450D01*
X61071Y279483D01*
X60921Y279525D01*
X60780Y279575D01*
X60655Y279617D01*
X60529Y279675D01*
X60430Y279725D01*
X60338Y279766D01*
X60255Y279816D01*
X60188Y279858D01*
X60130Y279891D01*
X60096Y279916D01*
X60071Y279933D01*
X60063Y279941D01*
X59938Y280050D01*
X59821Y280166D01*
X59713Y280291D01*
X59621Y280425D01*
X59530Y280558D01*
X59455Y280683D01*
X59380Y280816D01*
X59321Y280941D01*
X59263Y281066D01*
X59222Y281174D01*
X59180Y281274D01*
X59147Y281358D01*
X59130Y281433D01*
X59113Y281491D01*
X59097Y281524D01*
Y281533D01*
X59946Y281749D01*
X59988Y281599D01*
X60030Y281466D01*
X60080Y281341D01*
X60130Y281216D01*
X60188Y281108D01*
X60238Y281008D01*
X60296Y280916D01*
X60355Y280841D01*
X60405Y280766D01*
X60455Y280708D01*
X60505Y280650D01*
X60538Y280608D01*
X60571Y280575D01*
X60596Y280550D01*
X60613Y280541D01*
X60621Y280533D01*
X60713Y280458D01*
X60813Y280400D01*
X60913Y280341D01*
X61021Y280300D01*
X61221Y280225D01*
X61413Y280175D01*
X61496Y280158D01*
X61579Y280150D01*
X61646Y280141D01*
X61713Y280133D01*
X61763Y280125D01*
X61829D01*
X62046Y280141D01*
X62246Y280175D01*
X62429Y280216D01*
X62596Y280275D01*
X62729Y280333D01*
X62787Y280358D01*
X62829Y280375D01*
X62871Y280400D01*
X62896Y280408D01*
X62912Y280425D01*
X62921D01*
X63096Y280550D01*
X63246Y280691D01*
X63370Y280841D01*
X63479Y280991D01*
X63562Y281124D01*
X63587Y281183D01*
X63612Y281233D01*
X63637Y281274D01*
X63654Y281308D01*
X63662Y281324D01*
Y281333D01*
X63737Y281566D01*
X63795Y281816D01*
X63837Y282049D01*
X63862Y282274D01*
X63879Y282374D01*
Y282466D01*
X63887Y282549D01*
X63895Y282624D01*
Y282682D01*
Y282724D01*
Y282749D01*
Y282757D01*
X63887Y282991D01*
X63862Y283216D01*
X63829Y283424D01*
X63795Y283615D01*
X63779Y283690D01*
X63762Y283765D01*
X63745Y283832D01*
X63729Y283890D01*
X63712Y283932D01*
X63704Y283965D01*
X63695Y283982D01*
Y283990D01*
X63612Y284207D01*
X63504Y284390D01*
X63387Y284557D01*
X63271Y284690D01*
X63170Y284799D01*
X63087Y284874D01*
X63054Y284907D01*
X63029Y284923D01*
X63012Y284940D01*
X63004D01*
X62904Y285007D01*
X62804Y285057D01*
X62596Y285148D01*
X62387Y285215D01*
X62196Y285257D01*
X62104Y285265D01*
X62021Y285282D01*
X61946Y285290D01*
X61887D01*
X61838Y285298D01*
X61763D01*
X61529Y285282D01*
X61321Y285248D01*
X61138Y285198D01*
X60979Y285140D01*
X60855Y285073D01*
X60805Y285048D01*
X60763Y285023D01*
X60729Y285007D01*
X60704Y284990D01*
X60696Y284973D01*
X60688D01*
X60613Y284907D01*
X60538Y284840D01*
X60405Y284682D01*
X60296Y284515D01*
X60205Y284349D01*
X60130Y284199D01*
X60105Y284132D01*
X60080Y284074D01*
X60063Y284024D01*
X60046Y283990D01*
X60038Y283965D01*
Y283957D01*
X59205Y284157D01*
X59255Y284315D01*
X59321Y284474D01*
X59388Y284615D01*
X59463Y284748D01*
X59538Y284865D01*
X59613Y284982D01*
X59688Y285082D01*
X59763Y285173D01*
X59838Y285257D01*
X59905Y285332D01*
X59971Y285390D01*
X60021Y285440D01*
X60063Y285482D01*
X60105Y285507D01*
X60121Y285523D01*
X60130Y285532D01*
X60255Y285615D01*
X60388Y285698D01*
X60521Y285757D01*
X60655Y285815D01*
X60796Y285865D01*
X60929Y285907D01*
X61179Y285965D01*
X61296Y285982D01*
X61404Y285998D01*
X61504Y286007D01*
X61588Y286015D01*
X61654Y286023D01*
X61904D01*
X62054Y286007D01*
D02*
G37*
%LPC*%
G36*
X201949Y243316D02*
X201890D01*
X201849D01*
X201824D01*
X201815D01*
X201590Y243308D01*
X201382Y243291D01*
X201182Y243258D01*
X200999Y243216D01*
X200824Y243174D01*
X200674Y243116D01*
X200524Y243066D01*
X200399Y243008D01*
X200282Y242950D01*
X200182Y242891D01*
X200099Y242833D01*
X200032Y242791D01*
X199974Y242750D01*
X199941Y242716D01*
X199916Y242700D01*
X199907Y242691D01*
X199791Y242575D01*
X199691Y242450D01*
X199599Y242316D01*
X199524Y242183D01*
X199457Y242050D01*
X199408Y241925D01*
X199357Y241792D01*
X199324Y241675D01*
X199299Y241558D01*
X199274Y241450D01*
X199258Y241358D01*
X199249Y241275D01*
Y241208D01*
X199241Y241158D01*
Y241117D01*
X199249Y240942D01*
X199266Y240784D01*
X199299Y240625D01*
X199341Y240484D01*
X199391Y240342D01*
X199449Y240217D01*
X199508Y240092D01*
X199574Y239992D01*
X199632Y239892D01*
X199691Y239809D01*
X199749Y239734D01*
X199799Y239675D01*
X199841Y239625D01*
X199874Y239584D01*
X199891Y239567D01*
X199899Y239559D01*
X200032Y239450D01*
X200166Y239359D01*
X200316Y239275D01*
X200466Y239201D01*
X200616Y239142D01*
X200765Y239092D01*
X200915Y239051D01*
X201065Y239017D01*
X201199Y238992D01*
X201324Y238976D01*
X201432Y238959D01*
X201532Y238951D01*
X201615D01*
X201674Y238942D01*
X201707D01*
X201724D01*
X201982Y238951D01*
X202223Y238967D01*
X202448Y239001D01*
X202657Y239042D01*
X202840Y239092D01*
X203007Y239142D01*
X203157Y239201D01*
X203290Y239267D01*
X203407Y239326D01*
X203507Y239384D01*
X203598Y239434D01*
X203665Y239484D01*
X203715Y239526D01*
X203756Y239559D01*
X203773Y239576D01*
X203781Y239584D01*
X203890Y239709D01*
X203990Y239834D01*
X204073Y239967D01*
X204140Y240100D01*
X204206Y240234D01*
X204256Y240359D01*
X204298Y240484D01*
X204331Y240600D01*
X204356Y240717D01*
X204373Y240817D01*
X204390Y240909D01*
X204398Y240983D01*
X204406Y241050D01*
Y241133D01*
X204390Y241367D01*
X204356Y241583D01*
X204306Y241775D01*
X204248Y241942D01*
X204215Y242017D01*
X204181Y242083D01*
X204156Y242141D01*
X204131Y242183D01*
X204115Y242225D01*
X204098Y242250D01*
X204081Y242266D01*
Y242275D01*
X203948Y242458D01*
X203806Y242608D01*
X203656Y242741D01*
X203515Y242850D01*
X203382Y242941D01*
X203323Y242975D01*
X203281Y243000D01*
X203240Y243025D01*
X203207Y243041D01*
X203190Y243050D01*
X203181D01*
X202957Y243141D01*
X202723Y243208D01*
X202490Y243249D01*
X202282Y243283D01*
X202182Y243291D01*
X202090Y243300D01*
X202015Y243308D01*
X201949Y243316D01*
D02*
G37*
G36*
X201257Y229203D02*
Y227029D01*
X203132Y227729D01*
X203356Y227812D01*
X203581Y227878D01*
X203790Y227937D01*
X203973Y227987D01*
X204056Y228012D01*
X204131Y228028D01*
X204198Y228045D01*
X204256Y228053D01*
X204306Y228062D01*
X204340Y228070D01*
X204356Y228078D01*
X204365D01*
X204156Y228145D01*
X203931Y228212D01*
X203706Y228287D01*
X203498Y228362D01*
X203398Y228395D01*
X203307Y228428D01*
X203223Y228462D01*
X203157Y228487D01*
X203098Y228503D01*
X203057Y228520D01*
X203032Y228537D01*
X203023D01*
X201257Y229203D01*
D02*
G37*
G36*
X25419Y243316D02*
X25360D01*
X25319D01*
X25294D01*
X25285D01*
X25060Y243308D01*
X24852Y243291D01*
X24652Y243258D01*
X24469Y243216D01*
X24294Y243174D01*
X24144Y243116D01*
X23994Y243066D01*
X23869Y243008D01*
X23752Y242950D01*
X23652Y242891D01*
X23569Y242833D01*
X23502Y242791D01*
X23444Y242750D01*
X23411Y242716D01*
X23386Y242700D01*
X23377Y242691D01*
X23261Y242575D01*
X23161Y242450D01*
X23069Y242316D01*
X22994Y242183D01*
X22927Y242050D01*
X22878Y241925D01*
X22828Y241792D01*
X22794Y241675D01*
X22769Y241558D01*
X22744Y241450D01*
X22728Y241358D01*
X22719Y241275D01*
Y241208D01*
X22711Y241158D01*
Y241117D01*
X22719Y240942D01*
X22736Y240784D01*
X22769Y240625D01*
X22811Y240484D01*
X22861Y240342D01*
X22919Y240217D01*
X22977Y240092D01*
X23044Y239992D01*
X23103Y239892D01*
X23161Y239809D01*
X23219Y239734D01*
X23269Y239675D01*
X23311Y239625D01*
X23344Y239584D01*
X23361Y239567D01*
X23369Y239559D01*
X23502Y239450D01*
X23636Y239359D01*
X23786Y239275D01*
X23936Y239201D01*
X24086Y239142D01*
X24235Y239092D01*
X24385Y239051D01*
X24536Y239017D01*
X24669Y238992D01*
X24794Y238976D01*
X24902Y238959D01*
X25002Y238951D01*
X25085D01*
X25144Y238942D01*
X25177D01*
X25194D01*
X25452Y238951D01*
X25694Y238967D01*
X25918Y239001D01*
X26127Y239042D01*
X26310Y239092D01*
X26477Y239142D01*
X26627Y239201D01*
X26760Y239267D01*
X26876Y239326D01*
X26976Y239384D01*
X27068Y239434D01*
X27135Y239484D01*
X27185Y239526D01*
X27226Y239559D01*
X27243Y239576D01*
X27251Y239584D01*
X27360Y239709D01*
X27460Y239834D01*
X27543Y239967D01*
X27610Y240100D01*
X27676Y240234D01*
X27726Y240359D01*
X27768Y240484D01*
X27801Y240600D01*
X27826Y240717D01*
X27843Y240817D01*
X27860Y240909D01*
X27868Y240983D01*
X27876Y241050D01*
Y241133D01*
X27860Y241367D01*
X27826Y241583D01*
X27776Y241775D01*
X27718Y241942D01*
X27685Y242017D01*
X27651Y242083D01*
X27626Y242141D01*
X27601Y242183D01*
X27585Y242225D01*
X27568Y242250D01*
X27551Y242266D01*
Y242275D01*
X27418Y242458D01*
X27276Y242608D01*
X27127Y242741D01*
X26985Y242850D01*
X26851Y242941D01*
X26793Y242975D01*
X26752Y243000D01*
X26710Y243025D01*
X26677Y243041D01*
X26660Y243050D01*
X26652D01*
X26427Y243141D01*
X26193Y243208D01*
X25960Y243249D01*
X25752Y243283D01*
X25652Y243291D01*
X25560Y243300D01*
X25485Y243308D01*
X25419Y243316D01*
D02*
G37*
G36*
X24727Y229203D02*
Y227029D01*
X26602Y227729D01*
X26827Y227812D01*
X27051Y227878D01*
X27260Y227937D01*
X27443Y227987D01*
X27526Y228012D01*
X27601Y228028D01*
X27668Y228045D01*
X27726Y228053D01*
X27776Y228062D01*
X27810Y228070D01*
X27826Y228078D01*
X27835D01*
X27626Y228145D01*
X27401Y228212D01*
X27176Y228287D01*
X26968Y228362D01*
X26868Y228395D01*
X26777Y228428D01*
X26693Y228462D01*
X26627Y228487D01*
X26568Y228503D01*
X26527Y228520D01*
X26502Y228537D01*
X26493D01*
X24727Y229203D01*
D02*
G37*
%LPD*%
D12*
X211200Y16150D02*
Y402950D01*
X182500D02*
X211200D01*
X182500Y16150D02*
Y402950D01*
Y16150D02*
X211200D01*
X34670D02*
Y402950D01*
X5970D02*
X34670D01*
X5970Y16150D02*
Y402950D01*
Y16150D02*
X34670D01*
X43479Y291941D02*
X86061D01*
X43479Y266859D02*
Y291941D01*
Y266859D02*
X86061D01*
Y291941D01*
D58*
X133220Y174310D02*
G03*
X133220Y174310I-5000J0D01*
G01*
X88030Y206250D02*
Y238250D01*
X138030Y206250D02*
Y238250D01*
X88030Y206250D02*
X138030D01*
X88030Y238250D02*
X138030D01*
X137220Y78310D02*
Y183310D01*
X81220Y78310D02*
Y183310D01*
X137220D01*
X81220Y78310D02*
X137220D01*
X143990Y295140D02*
Y332240D01*
X76990Y295140D02*
Y332240D01*
Y295140D02*
X143990D01*
X76990Y332240D02*
X143990D01*
X98220Y36430D02*
X120220D01*
X98220Y49930D02*
X120220D01*
X98220Y36430D02*
Y49930D01*
X120220Y36430D02*
Y49930D01*
X164230Y312850D02*
Y334850D01*
X150730Y312850D02*
Y334850D01*
Y312850D02*
X164230D01*
X150730Y334850D02*
X164230D01*
Y278560D02*
Y300560D01*
X150730Y278560D02*
Y300560D01*
Y278560D02*
X164230D01*
X150730Y300560D02*
X164230D01*
X69710Y311480D02*
Y320980D01*
X52210Y311480D02*
Y320980D01*
X69710D01*
X52210Y311480D02*
X69710D01*
X163990Y158290D02*
Y164290D01*
X174990Y158290D02*
Y164290D01*
X163990Y158290D02*
X174990D01*
X163990Y164290D02*
X174990D01*
X65900Y246710D02*
Y256210D01*
X48400Y246710D02*
Y256210D01*
X65900D01*
X48400Y246710D02*
X65900D01*
X159560Y56300D02*
X165560D01*
X159560Y45300D02*
X165560D01*
X159560D02*
Y56300D01*
X165560Y45300D02*
Y56300D01*
M02*
